%FSLAX45Y45*%
G04 Gerber Fmt 4.5, Leading zero omitted, Abs format (unit mm)*
G04 Created by KiCad (PCBNEW (6.99.0-1912-g359c99991b)) date 2022-08-15 14:06:02*
%MOMM*%
%LPD*%
G01*
G04 APERTURE LIST*
%TA.AperFunction,Profile*%
%ADD10C,0.100000*%
%TD*%
%ADD11C,0.200000*%
%ADD12C,0.025000*%
%ADD13C,0.060000*%
%ADD14C,0.100000*%
%ADD15C,0.250000*%
%ADD16C,0.300000*%
%ADD17C,0.065000*%
%ADD18C,0.175000*%
%ADD19C,0.398780*%
G04 APERTURE END LIST*
D10*
X0Y-7250172D02*
X1243066Y-200131D01*
X13380000Y100000D02*
X13380000Y810000D01*
X13280000Y0D02*
G75*
G03*
X13380000Y100000I0J100000D01*
G01*
X13280000Y0D02*
X1478353Y0D01*
X13480000Y910000D02*
X14300000Y910000D01*
X14400000Y810000D02*
G75*
G03*
X14300000Y910000I-100000J0D01*
G01*
X26536690Y-204659D02*
X27778810Y-7250172D01*
X11365355Y-9589098D02*
X9263455Y-9400000D01*
X16413455Y-9589098D02*
X11365355Y-9589098D01*
X26536683Y-204660D02*
G75*
G03*
X26305231Y0I-235983J-33670D01*
G01*
X9263455Y-9400000D02*
X164839Y-7492318D01*
X14500000Y0D02*
X26305231Y0D01*
X0Y-7250172D02*
G75*
G03*
X164839Y-7492318I199913J-41090D01*
G01*
X27613970Y-7492313D02*
G75*
G03*
X27778810Y-7250172I-35070J201054D01*
G01*
X1478353Y0D02*
G75*
G03*
X1243066Y-200131I59J-238445D01*
G01*
X14400000Y100000D02*
G75*
G03*
X14500000Y0I100000J0D01*
G01*
X27613971Y-7492318D02*
X18515355Y-9400000D01*
X14400000Y810000D02*
X14400000Y100000D01*
X18515355Y-9400000D02*
X16413455Y-9589098D01*
X13480000Y910000D02*
G75*
G03*
X13380000Y810000I0J-100000D01*
G01*
D11*
D12*
X11747500Y-5537500D02*
X11772500Y-5562500D01*
X11772500Y-5537500D02*
X11747500Y-5562500D01*
X12307500Y-3387500D02*
X12332500Y-3412500D01*
X12332500Y-3387500D02*
X12307500Y-3412500D01*
X13437500Y-1537500D02*
X13462500Y-1562500D01*
X13462500Y-1537500D02*
X13437500Y-1562500D01*
X13457500Y-427500D02*
X13482500Y-452500D01*
X13482500Y-427500D02*
X13457500Y-452500D01*
X13617500Y-427500D02*
X13642500Y-452500D01*
X13642500Y-427500D02*
X13617500Y-452500D01*
X13737500Y-797500D02*
X13762500Y-822500D01*
X13762500Y-797500D02*
X13737500Y-822500D01*
X13747500Y-121400D02*
X13772500Y-146400D01*
X13772500Y-121400D02*
X13747500Y-146400D01*
X13777500Y-7007500D02*
X13802500Y-7032500D01*
X13802500Y-7007500D02*
X13777500Y-7032500D01*
X13957500Y-121400D02*
X13982500Y-146400D01*
X13982500Y-121400D02*
X13957500Y-146400D01*
X14007801Y-798738D02*
X14032801Y-823738D01*
X14032801Y-798738D02*
X14007801Y-823738D01*
X14137500Y-427500D02*
X14162500Y-452500D01*
X14162500Y-427500D02*
X14137500Y-452500D01*
X14177500Y-2277500D02*
X14202500Y-2302500D01*
X14202500Y-2277500D02*
X14177500Y-2302500D01*
X14274222Y-7250098D02*
X14299222Y-7275098D01*
X14299222Y-7250098D02*
X14274222Y-7275098D01*
X14377500Y-2377500D02*
X14402500Y-2402500D01*
X14402500Y-2377500D02*
X14377500Y-2402500D01*
X14577500Y-2457500D02*
X14602500Y-2482500D01*
X14602500Y-2457500D02*
X14577500Y-2482500D01*
X15507500Y-710183D02*
X15532500Y-735183D01*
X15532500Y-710183D02*
X15507500Y-735183D01*
X15527500Y-3187500D02*
X15552500Y-3212500D01*
X15552500Y-3187500D02*
X15527500Y-3212500D01*
X16287500Y-5557500D02*
X16312500Y-5582500D01*
X16312500Y-5557500D02*
X16287500Y-5582500D01*
D13*
X13488000Y648500D02*
G75*
G03*
X13488000Y648500I-30000J0D01*
G01*
D11*
X13428000Y678500D02*
X13428000Y618500D01*
X13428000Y618500D02*
G75*
G03*
X13488000Y618500I30000J0D01*
G01*
X13488000Y618500D02*
X13488000Y678500D01*
X13488000Y678500D02*
G75*
G03*
X13428000Y678500I-30000J0D01*
G01*
D13*
X13488000Y230500D02*
G75*
G03*
X13488000Y230500I-30000J0D01*
G01*
D11*
X13428000Y285500D02*
X13428000Y175500D01*
X13428000Y175500D02*
G75*
G03*
X13488000Y175500I30000J0D01*
G01*
X13488000Y175500D02*
X13488000Y285500D01*
X13488000Y285500D02*
G75*
G03*
X13428000Y285500I-30000J0D01*
G01*
D13*
X14352000Y648500D02*
G75*
G03*
X14352000Y648500I-30000J0D01*
G01*
D11*
X14292000Y678500D02*
X14292000Y618500D01*
X14292000Y618500D02*
G75*
G03*
X14352000Y618500I30000J0D01*
G01*
X14352000Y618500D02*
X14352000Y678500D01*
X14352000Y678500D02*
G75*
G03*
X14292000Y678500I-30000J0D01*
G01*
D13*
X14352000Y230500D02*
G75*
G03*
X14352000Y230500I-30000J0D01*
G01*
D11*
X14292000Y285500D02*
X14292000Y175500D01*
X14292000Y175500D02*
G75*
G03*
X14352000Y175500I30000J0D01*
G01*
X14352000Y175500D02*
X14352000Y285500D01*
X14352000Y285500D02*
G75*
G03*
X14292000Y285500I-30000J0D01*
G01*
D14*
X12789405Y-3150000D02*
X12789405Y-3250000D01*
X12739405Y-3200000D02*
X12839405Y-3200000D01*
X12789405Y-3350000D02*
X12789405Y-3450000D01*
X12739405Y-3400000D02*
X12839405Y-3400000D01*
X12789405Y-3550000D02*
X12789405Y-3650000D01*
X12739405Y-3600000D02*
X12839405Y-3600000D01*
X12789405Y-3750000D02*
X12789405Y-3850000D01*
X12739405Y-3800000D02*
X12839405Y-3800000D01*
X12789405Y-3950000D02*
X12789405Y-4050000D01*
X12739405Y-4000000D02*
X12839405Y-4000000D01*
X12789405Y-4150000D02*
X12789405Y-4250000D01*
X12739405Y-4200000D02*
X12839405Y-4200000D01*
X12789405Y-4350000D02*
X12789405Y-4450000D01*
X12739405Y-4400000D02*
X12839405Y-4400000D01*
X12789405Y-4550000D02*
X12789405Y-4650000D01*
X12739405Y-4600000D02*
X12839405Y-4600000D01*
X12789405Y-4750000D02*
X12789405Y-4850000D01*
X12739405Y-4800000D02*
X12839405Y-4800000D01*
X12789405Y-4950000D02*
X12789405Y-5050000D01*
X12739405Y-5000000D02*
X12839405Y-5000000D01*
X12989405Y-2950000D02*
X12989405Y-3050000D01*
X12939405Y-3000000D02*
X13039405Y-3000000D01*
X12989405Y-5150000D02*
X12989405Y-5250000D01*
X12939405Y-5200000D02*
X13039405Y-5200000D01*
X13189405Y-2950000D02*
X13189405Y-3050000D01*
X13139405Y-3000000D02*
X13239405Y-3000000D01*
X13189405Y-5150000D02*
X13189405Y-5250000D01*
X13139405Y-5200000D02*
X13239405Y-5200000D01*
X13389405Y-2950000D02*
X13389405Y-3050000D01*
X13339405Y-3000000D02*
X13439405Y-3000000D01*
X13389405Y-5150000D02*
X13389405Y-5250000D01*
X13339405Y-5200000D02*
X13439405Y-5200000D01*
X13589405Y-2950000D02*
X13589405Y-3050000D01*
X13539405Y-3000000D02*
X13639405Y-3000000D01*
X13589405Y-5150000D02*
X13589405Y-5250000D01*
X13539405Y-5200000D02*
X13639405Y-5200000D01*
X13789405Y-2950000D02*
X13789405Y-3050000D01*
X13739405Y-3000000D02*
X13839405Y-3000000D01*
X13789405Y-5150000D02*
X13789405Y-5250000D01*
X13739405Y-5200000D02*
X13839405Y-5200000D01*
X13989405Y-2950000D02*
X13989405Y-3050000D01*
X13939405Y-3000000D02*
X14039405Y-3000000D01*
X13989405Y-5150000D02*
X13989405Y-5250000D01*
X13939405Y-5200000D02*
X14039405Y-5200000D01*
X14189405Y-2950000D02*
X14189405Y-3050000D01*
X14139405Y-3000000D02*
X14239405Y-3000000D01*
X14189405Y-5150000D02*
X14189405Y-5250000D01*
X14139405Y-5200000D02*
X14239405Y-5200000D01*
X14389405Y-2950000D02*
X14389405Y-3050000D01*
X14339405Y-3000000D02*
X14439405Y-3000000D01*
X14389405Y-5150000D02*
X14389405Y-5250000D01*
X14339405Y-5200000D02*
X14439405Y-5200000D01*
X14589405Y-2950000D02*
X14589405Y-3050000D01*
X14539405Y-3000000D02*
X14639405Y-3000000D01*
X14589405Y-5150000D02*
X14589405Y-5250000D01*
X14539405Y-5200000D02*
X14639405Y-5200000D01*
X14789405Y-2950000D02*
X14789405Y-3050000D01*
X14739405Y-3000000D02*
X14839405Y-3000000D01*
X14789405Y-5150000D02*
X14789405Y-5250000D01*
X14739405Y-5200000D02*
X14839405Y-5200000D01*
X14989405Y-3150000D02*
X14989405Y-3250000D01*
X14939405Y-3200000D02*
X15039405Y-3200000D01*
X14989405Y-3350000D02*
X14989405Y-3450000D01*
X14939405Y-3400000D02*
X15039405Y-3400000D01*
X14989405Y-3550000D02*
X14989405Y-3650000D01*
X14939405Y-3600000D02*
X15039405Y-3600000D01*
X14989405Y-3750000D02*
X14989405Y-3850000D01*
X14939405Y-3800000D02*
X15039405Y-3800000D01*
X14989405Y-3950000D02*
X14989405Y-4050000D01*
X14939405Y-4000000D02*
X15039405Y-4000000D01*
X14989405Y-4150000D02*
X14989405Y-4250000D01*
X14939405Y-4200000D02*
X15039405Y-4200000D01*
X14989405Y-4350000D02*
X14989405Y-4450000D01*
X14939405Y-4400000D02*
X15039405Y-4400000D01*
X14989405Y-4550000D02*
X14989405Y-4650000D01*
X14939405Y-4600000D02*
X15039405Y-4600000D01*
X14989405Y-4750000D02*
X14989405Y-4850000D01*
X14939405Y-4800000D02*
X15039405Y-4800000D01*
X14989405Y-4950000D02*
X14989405Y-5050000D01*
X14939405Y-5000000D02*
X15039405Y-5000000D01*
X15580000Y-1050000D02*
X15580000Y-1150000D01*
X15530000Y-1100000D02*
X15630000Y-1100000D01*
X15834000Y-1050000D02*
X15834000Y-1150000D01*
X15784000Y-1100000D02*
X15884000Y-1100000D01*
X16088000Y-1050000D02*
X16088000Y-1150000D01*
X16038000Y-1100000D02*
X16138000Y-1100000D01*
X16342000Y-1050000D02*
X16342000Y-1150000D01*
X16292000Y-1100000D02*
X16392000Y-1100000D01*
X16596000Y-1050000D02*
X16596000Y-1150000D01*
X16546000Y-1100000D02*
X16646000Y-1100000D01*
D15*
X658389Y-5548389D02*
X658389Y-5371611D01*
X481611Y-5371611D01*
X481611Y-5548389D01*
X658389Y-5548389D01*
D11*
X345000Y-5585000D02*
X795000Y-5585000D01*
X795000Y-5585000D02*
G75*
G03*
X795000Y-5335000I0J125000D01*
G01*
X795000Y-5335000D02*
X345000Y-5335000D01*
X345000Y-5335000D02*
G75*
G03*
X345000Y-5585000I0J-125000D01*
G01*
D15*
X6668389Y-2028389D02*
X6668389Y-1851611D01*
X6491611Y-1851611D01*
X6491611Y-2028389D01*
X6668389Y-2028389D01*
D11*
X6455000Y-2065000D02*
X6705000Y-2065000D01*
X6705000Y-2065000D02*
G75*
G03*
X6705000Y-1815000I0J125000D01*
G01*
X6705000Y-1815000D02*
X6455000Y-1815000D01*
X6455000Y-1815000D02*
G75*
G03*
X6455000Y-2065000I0J-125000D01*
G01*
D15*
X15508389Y-5568389D02*
X15508389Y-5391611D01*
X15331611Y-5391611D01*
X15331611Y-5568389D01*
X15508389Y-5568389D01*
D11*
X15295000Y-5605000D02*
X15545000Y-5605000D01*
X15545000Y-5605000D02*
G75*
G03*
X15545000Y-5355000I0J125000D01*
G01*
X15545000Y-5355000D02*
X15295000Y-5355000D01*
X15295000Y-5355000D02*
G75*
G03*
X15295000Y-5605000I0J-125000D01*
G01*
D15*
X19138405Y-8640889D02*
X19138405Y-8464111D01*
X18961627Y-8464111D01*
X18961627Y-8640889D01*
X19138405Y-8640889D01*
D11*
X18925016Y-8677500D02*
X19175016Y-8677500D01*
X19175016Y-8677500D02*
G75*
G03*
X19175016Y-8427500I0J125000D01*
G01*
X19175016Y-8427500D02*
X18925016Y-8427500D01*
X18925016Y-8427500D02*
G75*
G03*
X18925016Y-8677500I0J-125000D01*
G01*
D15*
X25328389Y-3608389D02*
X25328389Y-3431611D01*
X25151611Y-3431611D01*
X25151611Y-3608389D01*
X25328389Y-3608389D01*
D11*
X25115000Y-3645000D02*
X25365000Y-3645000D01*
X25365000Y-3645000D02*
G75*
G03*
X25365000Y-3395000I0J125000D01*
G01*
X25365000Y-3395000D02*
X25115000Y-3395000D01*
X25115000Y-3395000D02*
G75*
G03*
X25115000Y-3645000I0J-125000D01*
G01*
D15*
X27288389Y-5548389D02*
X27288389Y-5371611D01*
X27111611Y-5371611D01*
X27111611Y-5548389D01*
X27288389Y-5548389D01*
D11*
X26975000Y-5585000D02*
X27425000Y-5585000D01*
X27425000Y-5585000D02*
G75*
G03*
X27425000Y-5335000I0J125000D01*
G01*
X27425000Y-5335000D02*
X26975000Y-5335000D01*
X26975000Y-5335000D02*
G75*
G03*
X26975000Y-5585000I0J-125000D01*
G01*
D16*
X788559Y-6463404D02*
X938559Y-6313404D01*
X788559Y-6163404D01*
X638559Y-6313404D01*
X788559Y-6463404D01*
X1118490Y-4592270D02*
X1268490Y-4442270D01*
X1118490Y-4292270D01*
X968490Y-4442270D01*
X1118490Y-4592270D01*
X1448422Y-2721135D02*
X1598422Y-2571135D01*
X1448422Y-2421135D01*
X1298422Y-2571135D01*
X1448422Y-2721135D01*
X1458018Y-6323530D02*
X1608018Y-6173530D01*
X1458018Y-6023530D01*
X1308018Y-6173530D01*
X1458018Y-6323530D01*
X1778353Y-850000D02*
X1928353Y-700000D01*
X1778353Y-550000D01*
X1628353Y-700000D01*
X1778353Y-850000D01*
X1787950Y-4452395D02*
X1937950Y-4302395D01*
X1787950Y-4152395D01*
X1637950Y-4302395D01*
X1787950Y-4452395D01*
X2117881Y-2581260D02*
X2267881Y-2431260D01*
X2117881Y-2281260D01*
X1967881Y-2431260D01*
X2117881Y-2581260D01*
X2447813Y-710125D02*
X2597813Y-560125D01*
X2447813Y-410125D01*
X2297813Y-560125D01*
X2447813Y-710125D01*
X2659693Y-6793336D02*
X2809693Y-6643336D01*
X2659693Y-6493336D01*
X2509693Y-6643336D01*
X2659693Y-6793336D01*
X2989625Y-4922201D02*
X3139625Y-4772201D01*
X2989625Y-4622201D01*
X2839625Y-4772201D01*
X2989625Y-4922201D01*
X3319556Y-3051066D02*
X3469556Y-2901066D01*
X3319556Y-2751066D01*
X3169556Y-2901066D01*
X3319556Y-3051066D01*
X3329153Y-6653461D02*
X3479153Y-6503461D01*
X3329153Y-6353461D01*
X3179153Y-6503461D01*
X3329153Y-6653461D01*
X3649488Y-1179932D02*
X3799488Y-1029931D01*
X3649488Y-879931D01*
X3499488Y-1029931D01*
X3649488Y-1179932D01*
X3659084Y-4782326D02*
X3809084Y-4632326D01*
X3659084Y-4482326D01*
X3509084Y-4632326D01*
X3659084Y-4782326D01*
X3989016Y-2911192D02*
X4139016Y-2761192D01*
X3989016Y-2611192D01*
X3839016Y-2761192D01*
X3989016Y-2911192D01*
X4318948Y-1040057D02*
X4468948Y-890057D01*
X4318948Y-740057D01*
X4168947Y-890057D01*
X4318948Y-1040057D01*
X4582923Y-6827825D02*
X4732923Y-6677825D01*
X4582923Y-6527825D01*
X4432923Y-6677825D01*
X4582923Y-6827825D01*
X4912854Y-4956690D02*
X5062854Y-4806690D01*
X4912854Y-4656690D01*
X4762854Y-4806690D01*
X4912854Y-4956690D01*
X5242786Y-3085555D02*
X5392786Y-2935555D01*
X5242786Y-2785556D01*
X5092786Y-2935555D01*
X5242786Y-3085555D01*
X5252382Y-6687950D02*
X5402382Y-6537950D01*
X5252382Y-6387950D01*
X5102382Y-6537950D01*
X5252382Y-6687950D01*
X5572717Y-1214421D02*
X5722717Y-1064421D01*
X5572717Y-914421D01*
X5422717Y-1064421D01*
X5572717Y-1214421D01*
X5582314Y-4816816D02*
X5732314Y-4666816D01*
X5582314Y-4516816D01*
X5432314Y-4666816D01*
X5582314Y-4816816D01*
X5912245Y-2945681D02*
X6062245Y-2795681D01*
X5912245Y-2645681D01*
X5762245Y-2795681D01*
X5912245Y-2945681D01*
X6242177Y-1074546D02*
X6392177Y-924546D01*
X6242177Y-774546D01*
X6092177Y-924546D01*
X6242177Y-1074546D01*
X6540881Y-6665353D02*
X6690881Y-6515353D01*
X6540881Y-6365353D01*
X6390881Y-6515353D01*
X6540881Y-6665353D01*
X6870813Y-4794218D02*
X7020813Y-4644218D01*
X6870813Y-4494218D01*
X6720813Y-4644218D01*
X6870813Y-4794218D01*
X7200744Y-2923083D02*
X7350744Y-2773083D01*
X7200744Y-2623083D01*
X7050744Y-2773083D01*
X7200744Y-2923083D01*
X7210341Y-6525478D02*
X7360341Y-6375478D01*
X7210341Y-6225478D01*
X7060341Y-6375478D01*
X7210341Y-6525478D01*
X7530676Y-1051948D02*
X7680676Y-901948D01*
X7530676Y-751948D01*
X7380676Y-901948D01*
X7530676Y-1051948D01*
X7540272Y-4654343D02*
X7690272Y-4504343D01*
X7540272Y-4354343D01*
X7390272Y-4504343D01*
X7540272Y-4654343D01*
X7870204Y-2783209D02*
X8020204Y-2633209D01*
X7870204Y-2483209D01*
X7720204Y-2633209D01*
X7870204Y-2783209D01*
X8200135Y-912074D02*
X8350135Y-762074D01*
X8200135Y-612074D01*
X8050135Y-762074D01*
X8200135Y-912074D01*
X8307827Y-7586169D02*
X8457827Y-7436169D01*
X8307827Y-7286169D01*
X8157827Y-7436169D01*
X8307827Y-7586169D01*
X8637759Y-5715034D02*
X8787759Y-5565034D01*
X8637759Y-5415034D01*
X8487759Y-5565034D01*
X8637759Y-5715034D01*
X8967690Y-3843899D02*
X9117690Y-3693899D01*
X8967690Y-3543899D01*
X8817690Y-3693899D01*
X8967690Y-3843899D01*
X8977287Y-7446294D02*
X9127287Y-7296294D01*
X8977287Y-7146294D01*
X8827287Y-7296294D01*
X8977287Y-7446294D01*
X9297622Y-1972765D02*
X9447622Y-1822765D01*
X9297622Y-1672765D01*
X9147622Y-1822765D01*
X9297622Y-1972765D01*
X9307218Y-5575160D02*
X9457218Y-5425160D01*
X9307218Y-5275160D01*
X9157218Y-5425160D01*
X9307218Y-5575160D01*
X9637150Y-3704025D02*
X9787150Y-3554025D01*
X9637150Y-3404025D01*
X9487150Y-3554025D01*
X9637150Y-3704025D01*
X9967081Y-1832890D02*
X10117081Y-1682890D01*
X9967081Y-1532890D01*
X9817081Y-1682890D01*
X9967081Y-1832890D01*
X10092138Y-8408504D02*
X10242138Y-8258504D01*
X10092138Y-8108504D01*
X9942138Y-8258504D01*
X10092138Y-8408504D01*
X10422069Y-6537369D02*
X10572069Y-6387369D01*
X10422069Y-6237369D01*
X10272069Y-6387369D01*
X10422069Y-6537369D01*
X10752001Y-4666235D02*
X10902001Y-4516235D01*
X10752001Y-4366235D01*
X10602001Y-4516235D01*
X10752001Y-4666235D01*
X10761597Y-8268630D02*
X10911597Y-8118630D01*
X10761597Y-7968630D01*
X10611597Y-8118630D01*
X10761597Y-8268630D01*
X11081933Y-2795100D02*
X11231932Y-2645100D01*
X11081933Y-2495100D01*
X10931933Y-2645100D01*
X11081933Y-2795100D01*
X11091529Y-6397495D02*
X11241529Y-6247495D01*
X11091529Y-6097495D01*
X10941529Y-6247495D01*
X11091529Y-6397495D01*
X11421460Y-4526360D02*
X11571460Y-4376360D01*
X11421460Y-4226360D01*
X11271460Y-4376360D01*
X11421460Y-4526360D01*
X11751392Y-2655225D02*
X11901392Y-2505225D01*
X11751392Y-2355225D01*
X11601392Y-2505225D01*
X11751392Y-2655225D01*
X12015326Y-8441300D02*
X12165326Y-8291299D01*
X12015326Y-8141299D01*
X11865326Y-8291299D01*
X12015326Y-8441300D01*
X12345058Y-6571299D02*
X12495058Y-6421299D01*
X12345058Y-6271299D01*
X12195058Y-6421299D01*
X12345058Y-6571299D01*
X12684786Y-8301425D02*
X12834786Y-8151425D01*
X12684786Y-8001425D01*
X12534786Y-8151425D01*
X12684786Y-8301425D01*
X13014517Y-6431425D02*
X13164517Y-6281425D01*
X13014517Y-6131425D01*
X12864517Y-6281425D01*
X13014517Y-6431425D01*
X14676163Y-6703619D02*
X14826163Y-6553619D01*
X14676163Y-6403619D01*
X14526163Y-6553619D01*
X14676163Y-6703619D01*
X15005893Y-8573619D02*
X15155893Y-8423619D01*
X15005893Y-8273619D01*
X14855893Y-8423619D01*
X15005893Y-8573619D01*
X15257409Y-6343212D02*
X15407409Y-6193212D01*
X15257409Y-6043212D01*
X15107409Y-6193212D01*
X15257409Y-6343212D01*
X15587139Y-8213212D02*
X15737139Y-8063212D01*
X15587139Y-7913212D01*
X15437139Y-8063212D01*
X15587139Y-8213212D01*
X15938752Y-2926810D02*
X16088752Y-2776810D01*
X15938752Y-2626810D01*
X15788752Y-2776810D01*
X15938752Y-2926810D01*
X16268683Y-4797945D02*
X16418683Y-4647945D01*
X16268683Y-4497945D01*
X16118683Y-4647945D01*
X16268683Y-4797945D01*
X16519998Y-2566402D02*
X16669998Y-2416402D01*
X16519998Y-2266402D01*
X16369998Y-2416402D01*
X16519998Y-2566402D01*
X16598615Y-6669079D02*
X16748615Y-6519079D01*
X16598615Y-6369079D01*
X16448615Y-6519079D01*
X16598615Y-6669079D01*
X16849930Y-4437537D02*
X16999930Y-4287537D01*
X16849930Y-4137537D01*
X16699930Y-4287537D01*
X16849930Y-4437537D01*
X16928547Y-8540214D02*
X17078547Y-8390214D01*
X16928547Y-8240214D01*
X16778547Y-8390214D01*
X16928547Y-8540214D01*
X17179861Y-6308672D02*
X17329861Y-6158672D01*
X17179861Y-6008672D01*
X17029861Y-6158672D01*
X17179861Y-6308672D01*
X17509793Y-8179806D02*
X17659793Y-8029806D01*
X17509793Y-7879806D01*
X17359793Y-8029806D01*
X17509793Y-8179806D01*
X17723063Y-2104475D02*
X17873063Y-1954474D01*
X17723063Y-1804474D01*
X17573063Y-1954474D01*
X17723063Y-2104475D01*
X18052994Y-3975609D02*
X18202994Y-3825609D01*
X18052994Y-3675609D01*
X17902994Y-3825609D01*
X18052994Y-3975609D01*
X18304309Y-1744067D02*
X18454309Y-1594067D01*
X18304309Y-1444067D01*
X18154309Y-1594067D01*
X18304309Y-1744067D01*
X18382926Y-5846744D02*
X18532926Y-5696744D01*
X18382926Y-5546744D01*
X18232926Y-5696744D01*
X18382926Y-5846744D01*
X18634240Y-3615201D02*
X18784240Y-3465201D01*
X18634240Y-3315201D01*
X18484240Y-3465201D01*
X18634240Y-3615201D01*
X18712857Y-7717879D02*
X18862857Y-7567879D01*
X18712857Y-7417879D01*
X18562857Y-7567879D01*
X18712857Y-7717879D01*
X18964172Y-5486336D02*
X19114172Y-5336336D01*
X18964172Y-5186336D01*
X18814172Y-5336336D01*
X18964172Y-5486336D01*
X19294103Y-7357471D02*
X19444103Y-7207471D01*
X19294103Y-7057471D01*
X19144103Y-7207471D01*
X19294103Y-7357471D01*
X19490008Y-1183658D02*
X19640008Y-1033658D01*
X19490008Y-883658D01*
X19340008Y-1033658D01*
X19490008Y-1183658D01*
X19819940Y-3054793D02*
X19969940Y-2904793D01*
X19819940Y-2754793D01*
X19669940Y-2904793D01*
X19819940Y-3054793D01*
X20071255Y-823250D02*
X20221255Y-673251D01*
X20071255Y-523250D01*
X19921255Y-673251D01*
X20071255Y-823250D01*
X20149871Y-4925928D02*
X20299871Y-4775928D01*
X20149871Y-4625928D01*
X19999871Y-4775928D01*
X20149871Y-4925928D01*
X20401186Y-2694385D02*
X20551186Y-2544385D01*
X20401186Y-2394385D01*
X20251186Y-2544385D01*
X20401186Y-2694385D01*
X20479803Y-6797062D02*
X20629803Y-6647062D01*
X20479803Y-6497062D01*
X20329803Y-6647062D01*
X20479803Y-6797062D01*
X20731118Y-4565520D02*
X20881118Y-4415520D01*
X20731118Y-4265520D01*
X20581118Y-4415520D01*
X20731118Y-4565520D01*
X21061049Y-6436655D02*
X21211049Y-6286655D01*
X21061049Y-6136655D01*
X20911049Y-6286655D01*
X21061049Y-6436655D01*
X21447967Y-1346131D02*
X21597967Y-1196131D01*
X21447967Y-1046131D01*
X21297967Y-1196131D01*
X21447967Y-1346131D01*
X21777899Y-3217265D02*
X21927899Y-3067265D01*
X21777899Y-2917265D01*
X21627899Y-3067265D01*
X21777899Y-3217265D01*
X22029213Y-985723D02*
X22179213Y-835723D01*
X22029213Y-685723D01*
X21879213Y-835723D01*
X22029213Y-985723D01*
X22107830Y-5088400D02*
X22257830Y-4938400D01*
X22107830Y-4788400D01*
X21957830Y-4938400D01*
X22107830Y-5088400D01*
X22359145Y-2856858D02*
X22509145Y-2706858D01*
X22359145Y-2556858D01*
X22209145Y-2706858D01*
X22359145Y-2856858D01*
X22437762Y-6959535D02*
X22587762Y-6809535D01*
X22437762Y-6659535D01*
X22287762Y-6809535D01*
X22437762Y-6959535D01*
X22689076Y-4727992D02*
X22839076Y-4577992D01*
X22689076Y-4427992D01*
X22539076Y-4577992D01*
X22689076Y-4727992D01*
X23019008Y-6599127D02*
X23169008Y-6449127D01*
X23019008Y-6299127D01*
X22869008Y-6449127D01*
X23019008Y-6599127D01*
X23371196Y-1311642D02*
X23521196Y-1161642D01*
X23371196Y-1011641D01*
X23221196Y-1161642D01*
X23371196Y-1311642D01*
X23701128Y-3182776D02*
X23851128Y-3032776D01*
X23701128Y-2882776D01*
X23551128Y-3032776D01*
X23701128Y-3182776D01*
X23952443Y-951234D02*
X24102443Y-801234D01*
X23952443Y-651234D01*
X23802443Y-801234D01*
X23952443Y-951234D01*
X24031059Y-5053911D02*
X24181059Y-4903911D01*
X24031059Y-4753911D01*
X23881059Y-4903911D01*
X24031059Y-5053911D01*
X24282374Y-2822368D02*
X24432374Y-2672368D01*
X24282374Y-2522368D01*
X24132374Y-2672368D01*
X24282374Y-2822368D01*
X24360991Y-6925046D02*
X24510991Y-6775046D01*
X24360991Y-6625046D01*
X24210991Y-6775046D01*
X24360991Y-6925046D01*
X24612306Y-4693503D02*
X24762306Y-4543503D01*
X24612306Y-4393503D01*
X24462306Y-4543503D01*
X24612306Y-4693503D01*
X24942237Y-6564638D02*
X25092237Y-6414638D01*
X24942237Y-6264638D01*
X24792237Y-6414638D01*
X24942237Y-6564638D01*
X25242331Y-981710D02*
X25392331Y-831710D01*
X25242331Y-681710D01*
X25092331Y-831710D01*
X25242331Y-981710D01*
X25572263Y-2852845D02*
X25722263Y-2702845D01*
X25572263Y-2552845D01*
X25422263Y-2702845D01*
X25572263Y-2852845D01*
X25823577Y-621302D02*
X25973577Y-471302D01*
X25823577Y-321302D01*
X25673577Y-471302D01*
X25823577Y-621302D01*
X25902194Y-4723979D02*
X26052194Y-4573979D01*
X25902194Y-4423979D01*
X25752194Y-4573979D01*
X25902194Y-4723979D01*
X26153509Y-2492437D02*
X26303509Y-2342437D01*
X26153509Y-2192437D01*
X26003509Y-2342437D01*
X26153509Y-2492437D01*
X26232126Y-6595114D02*
X26382126Y-6445114D01*
X26232126Y-6295114D01*
X26082126Y-6445114D01*
X26232126Y-6595114D01*
X26483440Y-4363572D02*
X26633440Y-4213572D01*
X26483440Y-4063572D01*
X26333440Y-4213572D01*
X26483440Y-4363572D01*
X26813372Y-6234706D02*
X26963372Y-6084706D01*
X26813372Y-5934706D01*
X26663372Y-6084706D01*
X26813372Y-6234706D01*
D17*
X13568500Y316000D02*
X13633500Y251000D01*
X13633500Y316000D02*
X13568500Y251000D01*
X13633500Y283500D02*
G75*
G03*
X13633500Y283500I-32500J0D01*
G01*
X14146500Y316000D02*
X14211500Y251000D01*
X14211500Y316000D02*
X14146500Y251000D01*
X14211500Y283500D02*
G75*
G03*
X14211500Y283500I-32500J0D01*
G01*
D18*
X531881Y-6453992D02*
X706881Y-6628992D01*
X706881Y-6453992D02*
X531881Y-6628992D01*
X619381Y-6453992D02*
X619381Y-6628992D01*
X531881Y-6541492D02*
X706881Y-6541492D01*
X861813Y-4582857D02*
X1036813Y-4757857D01*
X1036813Y-4582857D02*
X861813Y-4757857D01*
X949313Y-4582857D02*
X949313Y-4757857D01*
X861813Y-4670357D02*
X1036813Y-4670357D01*
X1191745Y-2711723D02*
X1366745Y-2886722D01*
X1366745Y-2711723D02*
X1191745Y-2886722D01*
X1279245Y-2711723D02*
X1279245Y-2886722D01*
X1191745Y-2799222D02*
X1366745Y-2799222D01*
X1521676Y-840588D02*
X1696676Y-1015588D01*
X1696676Y-840588D02*
X1521676Y-1015588D01*
X1609176Y-840588D02*
X1609176Y-1015588D01*
X1521676Y-928088D02*
X1696676Y-928088D01*
X1532446Y-6630419D02*
X1707446Y-6805419D01*
X1707446Y-6630419D02*
X1532446Y-6805419D01*
X1619946Y-6630419D02*
X1619946Y-6805419D01*
X1532446Y-6717919D02*
X1707446Y-6717919D01*
X1862378Y-4759284D02*
X2037378Y-4934284D01*
X2037378Y-4759284D02*
X1862378Y-4934284D01*
X1949878Y-4759284D02*
X1949878Y-4934284D01*
X1862378Y-4846784D02*
X2037378Y-4846784D01*
X2192309Y-2888149D02*
X2367309Y-3063149D01*
X2367309Y-2888149D02*
X2192309Y-3063149D01*
X2279809Y-2888149D02*
X2279809Y-3063149D01*
X2192309Y-2975649D02*
X2367309Y-2975649D01*
X2403016Y-6783923D02*
X2578016Y-6958923D01*
X2578016Y-6783923D02*
X2403016Y-6958923D01*
X2490516Y-6783923D02*
X2490516Y-6958923D01*
X2403016Y-6871423D02*
X2578016Y-6871423D01*
X2522241Y-1017014D02*
X2697241Y-1192014D01*
X2697241Y-1017014D02*
X2522241Y-1192014D01*
X2609741Y-1017014D02*
X2609741Y-1192014D01*
X2522241Y-1104514D02*
X2697241Y-1104514D01*
X2732948Y-4912789D02*
X2907948Y-5087789D01*
X2907948Y-4912789D02*
X2732948Y-5087789D01*
X2820448Y-4912789D02*
X2820448Y-5087789D01*
X2732948Y-5000289D02*
X2907948Y-5000289D01*
X3062879Y-3041654D02*
X3237879Y-3216654D01*
X3237879Y-3041654D02*
X3062879Y-3216654D01*
X3150379Y-3041654D02*
X3150379Y-3216654D01*
X3062879Y-3129154D02*
X3237879Y-3129154D01*
X3392811Y-1170519D02*
X3567811Y-1345519D01*
X3567811Y-1170519D02*
X3392811Y-1345519D01*
X3480311Y-1170519D02*
X3480311Y-1345519D01*
X3392811Y-1258019D02*
X3567811Y-1258019D01*
X3403581Y-6960350D02*
X3578581Y-7135350D01*
X3578581Y-6960350D02*
X3403581Y-7135350D01*
X3491081Y-6960350D02*
X3491081Y-7135350D01*
X3403581Y-7047850D02*
X3578581Y-7047850D01*
X3733512Y-5089215D02*
X3908512Y-5264215D01*
X3908512Y-5089215D02*
X3733512Y-5264215D01*
X3821012Y-5089215D02*
X3821012Y-5264215D01*
X3733512Y-5176715D02*
X3908512Y-5176715D01*
X4063444Y-3218081D02*
X4238444Y-3393081D01*
X4238444Y-3218081D02*
X4063444Y-3393081D01*
X4150944Y-3218081D02*
X4150944Y-3393081D01*
X4063444Y-3305581D02*
X4238444Y-3305581D01*
X4326245Y-6818413D02*
X4501245Y-6993413D01*
X4501245Y-6818413D02*
X4326245Y-6993413D01*
X4413745Y-6818413D02*
X4413745Y-6993413D01*
X4326245Y-6905913D02*
X4501245Y-6905913D01*
X4393375Y-1346946D02*
X4568375Y-1521946D01*
X4568375Y-1346946D02*
X4393375Y-1521946D01*
X4480875Y-1346946D02*
X4480875Y-1521946D01*
X4393375Y-1434446D02*
X4568375Y-1434446D01*
X4656177Y-4947278D02*
X4831177Y-5122278D01*
X4831177Y-4947278D02*
X4656177Y-5122278D01*
X4743677Y-4947278D02*
X4743677Y-5122278D01*
X4656177Y-5034778D02*
X4831177Y-5034778D01*
X4986108Y-3076143D02*
X5161108Y-3251143D01*
X5161108Y-3076143D02*
X4986108Y-3251143D01*
X5073608Y-3076143D02*
X5073608Y-3251143D01*
X4986108Y-3163643D02*
X5161108Y-3163643D01*
X5316040Y-1205009D02*
X5491040Y-1380009D01*
X5491040Y-1205009D02*
X5316040Y-1380009D01*
X5403540Y-1205009D02*
X5403540Y-1380009D01*
X5316040Y-1292509D02*
X5491040Y-1292509D01*
X5326810Y-6994839D02*
X5501810Y-7169839D01*
X5501810Y-6994839D02*
X5326810Y-7169839D01*
X5414310Y-6994839D02*
X5414310Y-7169839D01*
X5326810Y-7082339D02*
X5501810Y-7082339D01*
X5656741Y-5123705D02*
X5831741Y-5298705D01*
X5831741Y-5123705D02*
X5656741Y-5298705D01*
X5744241Y-5123705D02*
X5744241Y-5298705D01*
X5656741Y-5211205D02*
X5831741Y-5211205D01*
X5986673Y-3252570D02*
X6161673Y-3427570D01*
X6161673Y-3252570D02*
X5986673Y-3427570D01*
X6074173Y-3252570D02*
X6074173Y-3427570D01*
X5986673Y-3340070D02*
X6161673Y-3340070D01*
X6284204Y-6655940D02*
X6459204Y-6830940D01*
X6459204Y-6655940D02*
X6284204Y-6830940D01*
X6371704Y-6655940D02*
X6371704Y-6830940D01*
X6284204Y-6743440D02*
X6459204Y-6743440D01*
X6316605Y-1381435D02*
X6491605Y-1556435D01*
X6491605Y-1381435D02*
X6316605Y-1556435D01*
X6404105Y-1381435D02*
X6404105Y-1556435D01*
X6316605Y-1468935D02*
X6491605Y-1468935D01*
X6614136Y-4784806D02*
X6789136Y-4959806D01*
X6789136Y-4784806D02*
X6614136Y-4959806D01*
X6701636Y-4784806D02*
X6701636Y-4959806D01*
X6614136Y-4872306D02*
X6789136Y-4872306D01*
X6944067Y-2913671D02*
X7119067Y-3088671D01*
X7119067Y-2913671D02*
X6944067Y-3088671D01*
X7031567Y-2913671D02*
X7031567Y-3088671D01*
X6944067Y-3001171D02*
X7119067Y-3001171D01*
X7273999Y-1042536D02*
X7448999Y-1217536D01*
X7448999Y-1042536D02*
X7273999Y-1217536D01*
X7361499Y-1042536D02*
X7361499Y-1217536D01*
X7273999Y-1130036D02*
X7448999Y-1130036D01*
X7284769Y-6832367D02*
X7459769Y-7007367D01*
X7459769Y-6832367D02*
X7284769Y-7007367D01*
X7372269Y-6832367D02*
X7372269Y-7007367D01*
X7284769Y-6919867D02*
X7459769Y-6919867D01*
X7614700Y-4961232D02*
X7789700Y-5136232D01*
X7789700Y-4961232D02*
X7614700Y-5136232D01*
X7702200Y-4961232D02*
X7702200Y-5136232D01*
X7614700Y-5048732D02*
X7789700Y-5048732D01*
X7944632Y-3090097D02*
X8119632Y-3265097D01*
X8119632Y-3090097D02*
X7944632Y-3265097D01*
X8032132Y-3090097D02*
X8032132Y-3265097D01*
X7944632Y-3177597D02*
X8119632Y-3177597D01*
X8051150Y-7576757D02*
X8226150Y-7751757D01*
X8226150Y-7576757D02*
X8051150Y-7751757D01*
X8138650Y-7576757D02*
X8138650Y-7751757D01*
X8051150Y-7664257D02*
X8226150Y-7664257D01*
X8274563Y-1218963D02*
X8449563Y-1393963D01*
X8449563Y-1218963D02*
X8274563Y-1393963D01*
X8362063Y-1218963D02*
X8362063Y-1393963D01*
X8274563Y-1306463D02*
X8449563Y-1306463D01*
X8381081Y-5705622D02*
X8556082Y-5880622D01*
X8556082Y-5705622D02*
X8381081Y-5880622D01*
X8468582Y-5705622D02*
X8468582Y-5880622D01*
X8381081Y-5793122D02*
X8556082Y-5793122D01*
X8711013Y-3834487D02*
X8886013Y-4009487D01*
X8886013Y-3834487D02*
X8711013Y-4009487D01*
X8798513Y-3834487D02*
X8798513Y-4009487D01*
X8711013Y-3921987D02*
X8886013Y-3921987D01*
X9040945Y-1963352D02*
X9215945Y-2138352D01*
X9215945Y-1963352D02*
X9040945Y-2138352D01*
X9128445Y-1963352D02*
X9128445Y-2138352D01*
X9040945Y-2050852D02*
X9215945Y-2050852D01*
X9051715Y-7753183D02*
X9226715Y-7928183D01*
X9226715Y-7753183D02*
X9051715Y-7928183D01*
X9139215Y-7753183D02*
X9139215Y-7928183D01*
X9051715Y-7840683D02*
X9226715Y-7840683D01*
X9381646Y-5882048D02*
X9556646Y-6057048D01*
X9556646Y-5882048D02*
X9381646Y-6057048D01*
X9469146Y-5882048D02*
X9469146Y-6057048D01*
X9381646Y-5969548D02*
X9556646Y-5969548D01*
X9711578Y-4010914D02*
X9886578Y-4185914D01*
X9886578Y-4010914D02*
X9711578Y-4185914D01*
X9799078Y-4010914D02*
X9799078Y-4185914D01*
X9711578Y-4098414D02*
X9886578Y-4098414D01*
X9835461Y-8399092D02*
X10010461Y-8574092D01*
X10010461Y-8399092D02*
X9835461Y-8574092D01*
X9922961Y-8399092D02*
X9922961Y-8574092D01*
X9835461Y-8486592D02*
X10010461Y-8486592D01*
X10041509Y-2139779D02*
X10216509Y-2314779D01*
X10216509Y-2139779D02*
X10041509Y-2314779D01*
X10129009Y-2139779D02*
X10129009Y-2314779D01*
X10041509Y-2227279D02*
X10216509Y-2227279D01*
X10165392Y-6527957D02*
X10340392Y-6702957D01*
X10340392Y-6527957D02*
X10165392Y-6702957D01*
X10252892Y-6527957D02*
X10252892Y-6702957D01*
X10165392Y-6615457D02*
X10340392Y-6615457D01*
X10495324Y-4656823D02*
X10670324Y-4831823D01*
X10670324Y-4656823D02*
X10495324Y-4831823D01*
X10582824Y-4656823D02*
X10582824Y-4831823D01*
X10495324Y-4744323D02*
X10670324Y-4744323D01*
X10825255Y-2785688D02*
X11000255Y-2960688D01*
X11000255Y-2785688D02*
X10825255Y-2960688D01*
X10912755Y-2785688D02*
X10912755Y-2960688D01*
X10825255Y-2873188D02*
X11000255Y-2873188D01*
X10836025Y-8575519D02*
X11011025Y-8750519D01*
X11011025Y-8575519D02*
X10836025Y-8750519D01*
X10923525Y-8575519D02*
X10923525Y-8750519D01*
X10836025Y-8663019D02*
X11011025Y-8663019D01*
X11165957Y-6704384D02*
X11340957Y-6879384D01*
X11340957Y-6704384D02*
X11165957Y-6879384D01*
X11253457Y-6704384D02*
X11253457Y-6879384D01*
X11165957Y-6791884D02*
X11340957Y-6791884D01*
X11495888Y-4833249D02*
X11670888Y-5008249D01*
X11670888Y-4833249D02*
X11495888Y-5008249D01*
X11583388Y-4833249D02*
X11583388Y-5008249D01*
X11495888Y-4920749D02*
X11670888Y-4920749D01*
X11758649Y-8431887D02*
X11933649Y-8606887D01*
X11933649Y-8431887D02*
X11758649Y-8606887D01*
X11846149Y-8431887D02*
X11846149Y-8606887D01*
X11758649Y-8519387D02*
X11933649Y-8519387D01*
X11825820Y-2962114D02*
X12000820Y-3137114D01*
X12000820Y-2962114D02*
X11825820Y-3137114D01*
X11913320Y-2962114D02*
X11913320Y-3137114D01*
X11825820Y-3049614D02*
X12000820Y-3049614D01*
X12088380Y-6561887D02*
X12263380Y-6736887D01*
X12263380Y-6561887D02*
X12088380Y-6736887D01*
X12175880Y-6561887D02*
X12175880Y-6736887D01*
X12088380Y-6649387D02*
X12263380Y-6649387D01*
X12759214Y-8608314D02*
X12934214Y-8783314D01*
X12934214Y-8608314D02*
X12759214Y-8783314D01*
X12846714Y-8608314D02*
X12846714Y-8783314D01*
X12759214Y-8695814D02*
X12934214Y-8695814D01*
X13088945Y-6738314D02*
X13263945Y-6913314D01*
X13263945Y-6738314D02*
X13088945Y-6913314D01*
X13176445Y-6738314D02*
X13176445Y-6913314D01*
X13088945Y-6825814D02*
X13263945Y-6825814D01*
X14507699Y-6738314D02*
X14682699Y-6913314D01*
X14682699Y-6738314D02*
X14507699Y-6913314D01*
X14595199Y-6738314D02*
X14595199Y-6913314D01*
X14507699Y-6825814D02*
X14682699Y-6825814D01*
X14837429Y-8608314D02*
X15012429Y-8783314D01*
X15012429Y-8608314D02*
X14837429Y-8783314D01*
X14924929Y-8608314D02*
X14924929Y-8783314D01*
X14837429Y-8695814D02*
X15012429Y-8695814D01*
X15508263Y-6561887D02*
X15683263Y-6736887D01*
X15683263Y-6561887D02*
X15508263Y-6736887D01*
X15595763Y-6561887D02*
X15595763Y-6736887D01*
X15508263Y-6649387D02*
X15683263Y-6649387D01*
X15770288Y-2961504D02*
X15945288Y-3136504D01*
X15945288Y-2961504D02*
X15770288Y-3136504D01*
X15857788Y-2961504D02*
X15857788Y-3136504D01*
X15770288Y-3049004D02*
X15945288Y-3049004D01*
X15837993Y-8431887D02*
X16012993Y-8606887D01*
X16012993Y-8431887D02*
X15837993Y-8606887D01*
X15925493Y-8431887D02*
X15925493Y-8606887D01*
X15837993Y-8519387D02*
X16012993Y-8519387D01*
X16100219Y-4832639D02*
X16275219Y-5007639D01*
X16275219Y-4832639D02*
X16100219Y-5007639D01*
X16187719Y-4832639D02*
X16187719Y-5007639D01*
X16100219Y-4920139D02*
X16275219Y-4920139D01*
X16430151Y-6703774D02*
X16605151Y-6878774D01*
X16605151Y-6703774D02*
X16430151Y-6878774D01*
X16517651Y-6703774D02*
X16517651Y-6878774D01*
X16430151Y-6791274D02*
X16605151Y-6791274D01*
X16760083Y-8574909D02*
X16935083Y-8749909D01*
X16935083Y-8574909D02*
X16760083Y-8749909D01*
X16847583Y-8574909D02*
X16847583Y-8749909D01*
X16760083Y-8662409D02*
X16935083Y-8662409D01*
X16770852Y-2785078D02*
X16945853Y-2960078D01*
X16945853Y-2785078D02*
X16770852Y-2960078D01*
X16858353Y-2785078D02*
X16858353Y-2960078D01*
X16770852Y-2872578D02*
X16945853Y-2872578D01*
X17100784Y-4656213D02*
X17275784Y-4831213D01*
X17275784Y-4656213D02*
X17100784Y-4831213D01*
X17188284Y-4656213D02*
X17188284Y-4831213D01*
X17100784Y-4743713D02*
X17275784Y-4743713D01*
X17430716Y-6527347D02*
X17605716Y-6702347D01*
X17605716Y-6527347D02*
X17430716Y-6702347D01*
X17518216Y-6527347D02*
X17518216Y-6702347D01*
X17430716Y-6614847D02*
X17605716Y-6614847D01*
X17554599Y-2139169D02*
X17729599Y-2314169D01*
X17729599Y-2139169D02*
X17554599Y-2314169D01*
X17642099Y-2139169D02*
X17642099Y-2314169D01*
X17554599Y-2226669D02*
X17729599Y-2226669D01*
X17760647Y-8398482D02*
X17935647Y-8573482D01*
X17935647Y-8398482D02*
X17760647Y-8573482D01*
X17848147Y-8398482D02*
X17848147Y-8573482D01*
X17760647Y-8485982D02*
X17935647Y-8485982D01*
X17884530Y-4010304D02*
X18059530Y-4185304D01*
X18059530Y-4010304D02*
X17884530Y-4185304D01*
X17972030Y-4010304D02*
X17972030Y-4185304D01*
X17884530Y-4097804D02*
X18059530Y-4097804D01*
X18214462Y-5881438D02*
X18389462Y-6056438D01*
X18389462Y-5881438D02*
X18214462Y-6056438D01*
X18301962Y-5881438D02*
X18301962Y-6056438D01*
X18214462Y-5968938D02*
X18389462Y-5968938D01*
X18544393Y-7752573D02*
X18719393Y-7927573D01*
X18719393Y-7752573D02*
X18544393Y-7927573D01*
X18631893Y-7752573D02*
X18631893Y-7927573D01*
X18544393Y-7840073D02*
X18719393Y-7840073D01*
X18555163Y-1962742D02*
X18730163Y-2137742D01*
X18730163Y-1962742D02*
X18555163Y-2137742D01*
X18642663Y-1962742D02*
X18642663Y-2137742D01*
X18555163Y-2050242D02*
X18730163Y-2050242D01*
X18885095Y-3833877D02*
X19060095Y-4008877D01*
X19060095Y-3833877D02*
X18885095Y-4008877D01*
X18972595Y-3833877D02*
X18972595Y-4008877D01*
X18885095Y-3921377D02*
X19060095Y-3921377D01*
X19215026Y-5705012D02*
X19390026Y-5880012D01*
X19390026Y-5705012D02*
X19215026Y-5880012D01*
X19302526Y-5705012D02*
X19302526Y-5880012D01*
X19215026Y-5792512D02*
X19390026Y-5792512D01*
X19321544Y-1218353D02*
X19496544Y-1393353D01*
X19496544Y-1218353D02*
X19321544Y-1393353D01*
X19409044Y-1218353D02*
X19409044Y-1393353D01*
X19321544Y-1305853D02*
X19496544Y-1305853D01*
X19544958Y-7576147D02*
X19719958Y-7751147D01*
X19719958Y-7576147D02*
X19544958Y-7751147D01*
X19632458Y-7576147D02*
X19632458Y-7751147D01*
X19544958Y-7663647D02*
X19719958Y-7663647D01*
X19651476Y-3089488D02*
X19826476Y-3264488D01*
X19826476Y-3089488D02*
X19651476Y-3264488D01*
X19738976Y-3089488D02*
X19738976Y-3264488D01*
X19651476Y-3176988D02*
X19826476Y-3176988D01*
X19981408Y-4960622D02*
X20156408Y-5135622D01*
X20156408Y-4960622D02*
X19981408Y-5135622D01*
X20068908Y-4960622D02*
X20068908Y-5135622D01*
X19981408Y-5048122D02*
X20156408Y-5048122D01*
X20311339Y-6831757D02*
X20486339Y-7006757D01*
X20486339Y-6831757D02*
X20311339Y-7006757D01*
X20398839Y-6831757D02*
X20398839Y-7006757D01*
X20311339Y-6919257D02*
X20486339Y-6919257D01*
X20322109Y-1041926D02*
X20497109Y-1216926D01*
X20497109Y-1041926D02*
X20322109Y-1216926D01*
X20409609Y-1041926D02*
X20409609Y-1216926D01*
X20322109Y-1129426D02*
X20497109Y-1129426D01*
X20652041Y-2913061D02*
X20827041Y-3088061D01*
X20827041Y-2913061D02*
X20652041Y-3088061D01*
X20739541Y-2913061D02*
X20739541Y-3088061D01*
X20652041Y-3000561D02*
X20827041Y-3000561D01*
X20981972Y-4784196D02*
X21156972Y-4959196D01*
X21156972Y-4784196D02*
X20981972Y-4959196D01*
X21069472Y-4784196D02*
X21069472Y-4959196D01*
X20981972Y-4871696D02*
X21156972Y-4871696D01*
X21279503Y-1380825D02*
X21454503Y-1555825D01*
X21454503Y-1380825D02*
X21279503Y-1555825D01*
X21367003Y-1380825D02*
X21367003Y-1555825D01*
X21279503Y-1468325D02*
X21454503Y-1468325D01*
X21311904Y-6655330D02*
X21486904Y-6830330D01*
X21486904Y-6655330D02*
X21311904Y-6830330D01*
X21399404Y-6655330D02*
X21399404Y-6830330D01*
X21311904Y-6742830D02*
X21486904Y-6742830D01*
X21609435Y-3251960D02*
X21784435Y-3426960D01*
X21784435Y-3251960D02*
X21609435Y-3426960D01*
X21696935Y-3251960D02*
X21696935Y-3426960D01*
X21609435Y-3339460D02*
X21784435Y-3339460D01*
X21939366Y-5123095D02*
X22114366Y-5298095D01*
X22114366Y-5123095D02*
X21939366Y-5298095D01*
X22026866Y-5123095D02*
X22026866Y-5298095D01*
X21939366Y-5210595D02*
X22114366Y-5210595D01*
X22269298Y-6994229D02*
X22444298Y-7169229D01*
X22444298Y-6994229D02*
X22269298Y-7169229D01*
X22356798Y-6994229D02*
X22356798Y-7169229D01*
X22269298Y-7081729D02*
X22444298Y-7081729D01*
X22280068Y-1204399D02*
X22455068Y-1379399D01*
X22455068Y-1204399D02*
X22280068Y-1379399D01*
X22367568Y-1204399D02*
X22367568Y-1379399D01*
X22280068Y-1291899D02*
X22455068Y-1291899D01*
X22609999Y-3075533D02*
X22784999Y-3250533D01*
X22784999Y-3075533D02*
X22609999Y-3250533D01*
X22697499Y-3075533D02*
X22697499Y-3250533D01*
X22609999Y-3163033D02*
X22784999Y-3163033D01*
X22939931Y-4946668D02*
X23114931Y-5121668D01*
X23114931Y-4946668D02*
X22939931Y-5121668D01*
X23027431Y-4946668D02*
X23027431Y-5121668D01*
X22939931Y-5034168D02*
X23114931Y-5034168D01*
X23202732Y-1346336D02*
X23377732Y-1521336D01*
X23377732Y-1346336D02*
X23202732Y-1521336D01*
X23290232Y-1346336D02*
X23290232Y-1521336D01*
X23202732Y-1433836D02*
X23377732Y-1433836D01*
X23269862Y-6817803D02*
X23444862Y-6992803D01*
X23444862Y-6817803D02*
X23269862Y-6992803D01*
X23357362Y-6817803D02*
X23357362Y-6992803D01*
X23269862Y-6905303D02*
X23444862Y-6905303D01*
X23532664Y-3217471D02*
X23707664Y-3392471D01*
X23707664Y-3217471D02*
X23532664Y-3392471D01*
X23620164Y-3217471D02*
X23620164Y-3392471D01*
X23532664Y-3304971D02*
X23707664Y-3304971D01*
X23862595Y-5088605D02*
X24037595Y-5263605D01*
X24037595Y-5088605D02*
X23862595Y-5263605D01*
X23950095Y-5088605D02*
X23950095Y-5263605D01*
X23862595Y-5176105D02*
X24037595Y-5176105D01*
X24192527Y-6959740D02*
X24367527Y-7134740D01*
X24367527Y-6959740D02*
X24192527Y-7134740D01*
X24280027Y-6959740D02*
X24280027Y-7134740D01*
X24192527Y-7047240D02*
X24367527Y-7047240D01*
X24203297Y-1169909D02*
X24378297Y-1344909D01*
X24378297Y-1169909D02*
X24203297Y-1344909D01*
X24290797Y-1169909D02*
X24290797Y-1344909D01*
X24203297Y-1257409D02*
X24378297Y-1257409D01*
X24533228Y-3041044D02*
X24708228Y-3216044D01*
X24708228Y-3041044D02*
X24533228Y-3216044D01*
X24620728Y-3041044D02*
X24620728Y-3216044D01*
X24533228Y-3128544D02*
X24708228Y-3128544D01*
X24863160Y-4912179D02*
X25038160Y-5087179D01*
X25038160Y-4912179D02*
X24863160Y-5087179D01*
X24950660Y-4912179D02*
X24950660Y-5087179D01*
X24863160Y-4999679D02*
X25038160Y-4999679D01*
X25073867Y-1016404D02*
X25248867Y-1191404D01*
X25248867Y-1016404D02*
X25073867Y-1191404D01*
X25161367Y-1016404D02*
X25161367Y-1191404D01*
X25073867Y-1103904D02*
X25248867Y-1103904D01*
X25193092Y-6783313D02*
X25368092Y-6958313D01*
X25368092Y-6783313D02*
X25193092Y-6958313D01*
X25280592Y-6783313D02*
X25280592Y-6958313D01*
X25193092Y-6870813D02*
X25368092Y-6870813D01*
X25403799Y-2887539D02*
X25578799Y-3062539D01*
X25578799Y-2887539D02*
X25403799Y-3062539D01*
X25491299Y-2887539D02*
X25491299Y-3062539D01*
X25403799Y-2975039D02*
X25578799Y-2975039D01*
X25733730Y-4758674D02*
X25908730Y-4933674D01*
X25908730Y-4758674D02*
X25733730Y-4933674D01*
X25821230Y-4758674D02*
X25821230Y-4933674D01*
X25733730Y-4846174D02*
X25908730Y-4846174D01*
X26063662Y-6629809D02*
X26238662Y-6804809D01*
X26238662Y-6629809D02*
X26063662Y-6804809D01*
X26151162Y-6629809D02*
X26151162Y-6804809D01*
X26063662Y-6717309D02*
X26238662Y-6717309D01*
X26074432Y-839978D02*
X26249432Y-1014978D01*
X26249432Y-839978D02*
X26074432Y-1014978D01*
X26161932Y-839978D02*
X26161932Y-1014978D01*
X26074432Y-927478D02*
X26249432Y-927478D01*
X26404363Y-2711113D02*
X26579363Y-2886112D01*
X26579363Y-2711113D02*
X26404363Y-2886112D01*
X26491863Y-2711113D02*
X26491863Y-2886112D01*
X26404363Y-2798612D02*
X26579363Y-2798612D01*
X26734295Y-4582247D02*
X26909295Y-4757247D01*
X26909295Y-4582247D02*
X26734295Y-4757247D01*
X26821795Y-4582247D02*
X26821795Y-4757247D01*
X26734295Y-4669747D02*
X26909295Y-4669747D01*
X27064226Y-6453382D02*
X27239226Y-6628382D01*
X27239226Y-6453382D02*
X27064226Y-6628382D01*
X27151726Y-6453382D02*
X27151726Y-6628382D01*
X27064226Y-6540882D02*
X27239226Y-6540882D01*
D19*
X920274Y-6430315D02*
X1319054Y-6829095D01*
X1319054Y-6430315D02*
X920274Y-6829095D01*
X1260655Y-6770697D02*
X1260655Y-6488714D01*
X978672Y-6488714D01*
X978672Y-6770697D01*
X1260655Y-6770697D01*
X1250205Y-4559181D02*
X1648985Y-4957961D01*
X1648985Y-4559181D02*
X1250205Y-4957961D01*
X1590587Y-4899562D02*
X1590587Y-4617579D01*
X1308604Y-4617579D01*
X1308604Y-4899562D01*
X1590587Y-4899562D01*
X1580137Y-2688046D02*
X1978917Y-3086826D01*
X1978917Y-2688046D02*
X1580137Y-3086826D01*
X1920518Y-3028427D02*
X1920518Y-2746444D01*
X1638535Y-2746444D01*
X1638535Y-3028427D01*
X1920518Y-3028427D01*
X1910068Y-816911D02*
X2308848Y-1215691D01*
X2308848Y-816911D02*
X1910068Y-1215691D01*
X2250450Y-1157293D02*
X2250450Y-875310D01*
X1968467Y-875310D01*
X1968467Y-1157293D01*
X2250450Y-1157293D01*
X2791409Y-6760247D02*
X3190188Y-7159027D01*
X3190188Y-6760247D02*
X2791409Y-7159027D01*
X3131790Y-7100628D02*
X3131790Y-6818645D01*
X2849807Y-6818645D01*
X2849807Y-7100628D01*
X3131790Y-7100628D01*
X3121340Y-4889112D02*
X3520120Y-5287892D01*
X3520120Y-4889112D02*
X3121340Y-5287892D01*
X3461721Y-5229494D02*
X3461721Y-4947511D01*
X3179739Y-4947511D01*
X3179739Y-5229494D01*
X3461721Y-5229494D01*
X3451272Y-3017977D02*
X3850052Y-3416757D01*
X3850052Y-3017977D02*
X3451272Y-3416757D01*
X3791653Y-3358359D02*
X3791653Y-3076376D01*
X3509670Y-3076376D01*
X3509670Y-3358359D01*
X3791653Y-3358359D01*
X3781203Y-1146843D02*
X4179983Y-1545623D01*
X4179983Y-1146843D02*
X3781203Y-1545623D01*
X4121584Y-1487224D02*
X4121584Y-1205241D01*
X3839602Y-1205241D01*
X3839602Y-1487224D01*
X4121584Y-1487224D01*
X4714638Y-6794736D02*
X5113418Y-7193516D01*
X5113418Y-6794736D02*
X4714638Y-7193516D01*
X5055019Y-7135117D02*
X5055019Y-6853135D01*
X4773036Y-6853135D01*
X4773036Y-7135117D01*
X5055019Y-7135117D01*
X5044569Y-4923601D02*
X5443349Y-5322381D01*
X5443349Y-4923601D02*
X5044569Y-5322381D01*
X5384951Y-5263983D02*
X5384951Y-4982000D01*
X5102968Y-4982000D01*
X5102968Y-5263983D01*
X5384951Y-5263983D01*
X5374501Y-3052467D02*
X5773281Y-3451247D01*
X5773281Y-3052467D02*
X5374501Y-3451247D01*
X5714882Y-3392848D02*
X5714882Y-3110865D01*
X5432899Y-3110865D01*
X5432899Y-3392848D01*
X5714882Y-3392848D01*
X5704432Y-1181332D02*
X6103212Y-1580112D01*
X6103212Y-1181332D02*
X5704432Y-1580112D01*
X6044814Y-1521713D02*
X6044814Y-1239731D01*
X5762831Y-1239731D01*
X5762831Y-1521713D01*
X6044814Y-1521713D01*
X6672596Y-6632264D02*
X7071376Y-7031044D01*
X7071376Y-6632264D02*
X6672596Y-7031044D01*
X7012978Y-6972645D02*
X7012978Y-6690662D01*
X6730995Y-6690662D01*
X6730995Y-6972645D01*
X7012978Y-6972645D01*
X7002528Y-4761129D02*
X7401308Y-5159909D01*
X7401308Y-4761129D02*
X7002528Y-5159909D01*
X7342909Y-5101510D02*
X7342909Y-4819528D01*
X7060927Y-4819528D01*
X7060927Y-5101510D01*
X7342909Y-5101510D01*
X7332460Y-2889994D02*
X7731240Y-3288774D01*
X7731240Y-2889994D02*
X7332460Y-3288774D01*
X7672841Y-3230376D02*
X7672841Y-2948393D01*
X7390858Y-2948393D01*
X7390858Y-3230376D01*
X7672841Y-3230376D01*
X7662391Y-1018859D02*
X8061171Y-1417639D01*
X8061171Y-1018859D02*
X7662391Y-1417639D01*
X8002772Y-1359241D02*
X8002772Y-1077258D01*
X7720790Y-1077258D01*
X7720790Y-1359241D01*
X8002772Y-1359241D01*
X8439542Y-7553080D02*
X8838322Y-7951860D01*
X8838322Y-7553080D02*
X8439542Y-7951860D01*
X8779924Y-7893461D02*
X8779924Y-7611478D01*
X8497941Y-7611478D01*
X8497941Y-7893461D01*
X8779924Y-7893461D01*
X8769474Y-5681945D02*
X9168254Y-6080725D01*
X9168254Y-5681945D02*
X8769474Y-6080725D01*
X9109855Y-6022327D02*
X9109855Y-5740344D01*
X8827872Y-5740344D01*
X8827872Y-6022327D01*
X9109855Y-6022327D01*
X9099405Y-3810810D02*
X9498185Y-4209590D01*
X9498185Y-3810810D02*
X9099405Y-4209590D01*
X9439787Y-4151192D02*
X9439787Y-3869209D01*
X9157804Y-3869209D01*
X9157804Y-4151192D01*
X9439787Y-4151192D01*
X9429337Y-1939676D02*
X9828117Y-2338456D01*
X9828117Y-1939676D02*
X9429337Y-2338456D01*
X9769718Y-2280057D02*
X9769718Y-1998074D01*
X9487736Y-1998074D01*
X9487736Y-2280057D01*
X9769718Y-2280057D01*
X10223853Y-8375415D02*
X10622633Y-8774195D01*
X10622633Y-8375415D02*
X10223853Y-8774195D01*
X10564234Y-8715797D02*
X10564234Y-8433814D01*
X10282252Y-8433814D01*
X10282252Y-8715797D01*
X10564234Y-8715797D01*
X10553785Y-6504281D02*
X10952565Y-6903061D01*
X10952565Y-6504281D02*
X10553785Y-6903061D01*
X10894166Y-6844662D02*
X10894166Y-6562679D01*
X10612183Y-6562679D01*
X10612183Y-6844662D01*
X10894166Y-6844662D01*
X10883716Y-4633146D02*
X11282496Y-5031926D01*
X11282496Y-4633146D02*
X10883716Y-5031926D01*
X11224097Y-4973527D02*
X11224097Y-4691544D01*
X10942115Y-4691544D01*
X10942115Y-4973527D01*
X11224097Y-4973527D01*
X11213648Y-2762011D02*
X11612428Y-3160791D01*
X11612428Y-2762011D02*
X11213648Y-3160791D01*
X11554029Y-3102392D02*
X11554029Y-2820410D01*
X11272046Y-2820410D01*
X11272046Y-3102392D01*
X11554029Y-3102392D01*
X12147042Y-8408211D02*
X12545822Y-8806991D01*
X12545822Y-8408211D02*
X12147042Y-8806991D01*
X12487423Y-8748592D02*
X12487423Y-8466609D01*
X12205440Y-8466609D01*
X12205440Y-8748592D01*
X12487423Y-8748592D01*
X12476773Y-6538211D02*
X12875553Y-6936991D01*
X12875553Y-6538211D02*
X12476773Y-6936991D01*
X12817154Y-6878592D02*
X12817154Y-6596609D01*
X12535171Y-6596609D01*
X12535171Y-6878592D01*
X12817154Y-6878592D01*
X14896091Y-6538211D02*
X15294871Y-6936991D01*
X15294871Y-6538211D02*
X14896091Y-6936991D01*
X15236473Y-6878592D02*
X15236473Y-6596609D01*
X14954490Y-6596609D01*
X14954490Y-6878592D01*
X15236473Y-6878592D01*
X15225821Y-8408211D02*
X15624601Y-8806991D01*
X15624601Y-8408211D02*
X15225821Y-8806991D01*
X15566202Y-8748592D02*
X15566202Y-8466609D01*
X15284220Y-8466609D01*
X15284220Y-8748592D01*
X15566202Y-8748592D01*
X16158680Y-2761401D02*
X16557460Y-3160181D01*
X16557460Y-2761401D02*
X16158680Y-3160181D01*
X16499062Y-3101782D02*
X16499062Y-2819800D01*
X16217079Y-2819800D01*
X16217079Y-3101782D01*
X16499062Y-3101782D01*
X16488612Y-4632536D02*
X16887392Y-5031316D01*
X16887392Y-4632536D02*
X16488612Y-5031316D01*
X16828993Y-4972917D02*
X16828993Y-4690935D01*
X16547010Y-4690935D01*
X16547010Y-4972917D01*
X16828993Y-4972917D01*
X16818543Y-6503671D02*
X17217323Y-6902451D01*
X17217323Y-6503671D02*
X16818543Y-6902451D01*
X17158925Y-6844052D02*
X17158925Y-6562069D01*
X16876942Y-6562069D01*
X16876942Y-6844052D01*
X17158925Y-6844052D01*
X17148475Y-8374805D02*
X17547255Y-8773585D01*
X17547255Y-8374805D02*
X17148475Y-8773585D01*
X17488856Y-8715187D02*
X17488856Y-8433204D01*
X17206874Y-8433204D01*
X17206874Y-8715187D01*
X17488856Y-8715187D01*
X17942991Y-1939066D02*
X18341771Y-2337846D01*
X18341771Y-1939066D02*
X17942991Y-2337846D01*
X18283372Y-2279447D02*
X18283372Y-1997464D01*
X18001390Y-1997464D01*
X18001390Y-2279447D01*
X18283372Y-2279447D01*
X18272922Y-3810200D02*
X18671702Y-4208980D01*
X18671702Y-3810200D02*
X18272922Y-4208980D01*
X18613304Y-4150582D02*
X18613304Y-3868599D01*
X18331321Y-3868599D01*
X18331321Y-4150582D01*
X18613304Y-4150582D01*
X18602854Y-5681335D02*
X19001634Y-6080115D01*
X19001634Y-5681335D02*
X18602854Y-6080115D01*
X18943235Y-6021717D02*
X18943235Y-5739734D01*
X18661253Y-5739734D01*
X18661253Y-6021717D01*
X18943235Y-6021717D01*
X18932786Y-7552470D02*
X19331566Y-7951250D01*
X19331566Y-7552470D02*
X18932786Y-7951250D01*
X19273167Y-7892851D02*
X19273167Y-7610868D01*
X18991184Y-7610868D01*
X18991184Y-7892851D01*
X19273167Y-7892851D01*
X19709937Y-1018249D02*
X20108717Y-1417029D01*
X20108717Y-1018249D02*
X19709937Y-1417029D01*
X20050318Y-1358631D02*
X20050318Y-1076648D01*
X19768335Y-1076648D01*
X19768335Y-1358631D01*
X20050318Y-1358631D01*
X20039868Y-2889384D02*
X20438648Y-3288164D01*
X20438648Y-2889384D02*
X20039868Y-3288164D01*
X20380250Y-3229766D02*
X20380250Y-2947783D01*
X20098267Y-2947783D01*
X20098267Y-3229766D01*
X20380250Y-3229766D01*
X20369800Y-4760519D02*
X20768580Y-5159299D01*
X20768580Y-4760519D02*
X20369800Y-5159299D01*
X20710181Y-5100900D02*
X20710181Y-4818918D01*
X20428198Y-4818918D01*
X20428198Y-5100900D01*
X20710181Y-5100900D01*
X20699731Y-6631654D02*
X21098511Y-7030434D01*
X21098511Y-6631654D02*
X20699731Y-7030434D01*
X21040113Y-6972035D02*
X21040113Y-6690052D01*
X20758130Y-6690052D01*
X20758130Y-6972035D01*
X21040113Y-6972035D01*
X21667896Y-1180722D02*
X22066676Y-1579502D01*
X22066676Y-1180722D02*
X21667896Y-1579502D01*
X22008277Y-1521103D02*
X22008277Y-1239121D01*
X21726294Y-1239121D01*
X21726294Y-1521103D01*
X22008277Y-1521103D01*
X21997827Y-3051857D02*
X22396607Y-3450637D01*
X22396607Y-3051857D02*
X21997827Y-3450637D01*
X22338209Y-3392238D02*
X22338209Y-3110255D01*
X22056226Y-3110255D01*
X22056226Y-3392238D01*
X22338209Y-3392238D01*
X22327759Y-4922991D02*
X22726539Y-5321771D01*
X22726539Y-4922991D02*
X22327759Y-5321771D01*
X22668140Y-5263373D02*
X22668140Y-4981390D01*
X22386157Y-4981390D01*
X22386157Y-5263373D01*
X22668140Y-5263373D01*
X22657690Y-6794126D02*
X23056470Y-7192906D01*
X23056470Y-6794126D02*
X22657690Y-7192906D01*
X22998071Y-7134507D02*
X22998071Y-6852525D01*
X22716089Y-6852525D01*
X22716089Y-7134507D01*
X22998071Y-7134507D01*
X23591125Y-1146233D02*
X23989905Y-1545013D01*
X23989905Y-1146233D02*
X23591125Y-1545013D01*
X23931506Y-1486614D02*
X23931506Y-1204631D01*
X23649523Y-1204631D01*
X23649523Y-1486614D01*
X23931506Y-1486614D01*
X23921056Y-3017367D02*
X24319836Y-3416147D01*
X24319836Y-3017367D02*
X23921056Y-3416147D01*
X24261438Y-3357749D02*
X24261438Y-3075766D01*
X23979455Y-3075766D01*
X23979455Y-3357749D01*
X24261438Y-3357749D01*
X24250988Y-4888502D02*
X24649768Y-5287282D01*
X24649768Y-4888502D02*
X24250988Y-5287282D01*
X24591369Y-5228884D02*
X24591369Y-4946901D01*
X24309386Y-4946901D01*
X24309386Y-5228884D01*
X24591369Y-5228884D01*
X24580919Y-6759637D02*
X24979699Y-7158417D01*
X24979699Y-6759637D02*
X24580919Y-7158417D01*
X24921301Y-7100018D02*
X24921301Y-6818035D01*
X24639318Y-6818035D01*
X24639318Y-7100018D01*
X24921301Y-7100018D01*
X25462259Y-816301D02*
X25861039Y-1215081D01*
X25861039Y-816301D02*
X25462259Y-1215081D01*
X25802641Y-1156683D02*
X25802641Y-874700D01*
X25520658Y-874700D01*
X25520658Y-1156683D01*
X25802641Y-1156683D01*
X25792191Y-2687436D02*
X26190971Y-3086216D01*
X26190971Y-2687436D02*
X25792191Y-3086216D01*
X26132572Y-3027817D02*
X26132572Y-2745834D01*
X25850590Y-2745834D01*
X25850590Y-3027817D01*
X26132572Y-3027817D01*
X26122122Y-4558571D02*
X26520902Y-4957351D01*
X26520902Y-4558571D02*
X26122122Y-4957351D01*
X26462504Y-4898952D02*
X26462504Y-4616969D01*
X26180521Y-4616969D01*
X26180521Y-4898952D01*
X26462504Y-4898952D01*
X26452054Y-6429705D02*
X26850834Y-6828485D01*
X26850834Y-6429705D02*
X26452054Y-6828485D01*
X26792435Y-6770087D02*
X26792435Y-6488104D01*
X26510453Y-6488104D01*
X26510453Y-6770087D01*
X26792435Y-6770087D01*
D11*
X238440Y-9887574D02*
X238440Y-9687574D01*
X238440Y-9687574D02*
X286059Y-9687574D01*
X286059Y-9687574D02*
X314630Y-9697098D01*
X314630Y-9697098D02*
X333678Y-9716146D01*
X333678Y-9716146D02*
X343202Y-9735193D01*
X343202Y-9735193D02*
X352726Y-9773289D01*
X352726Y-9773289D02*
X352726Y-9801860D01*
X352726Y-9801860D02*
X343202Y-9839955D01*
X343202Y-9839955D02*
X333678Y-9859003D01*
X333678Y-9859003D02*
X314630Y-9878051D01*
X314630Y-9878051D02*
X286059Y-9887574D01*
X286059Y-9887574D02*
X238440Y-9887574D01*
X438440Y-9887574D02*
X438440Y-9754241D01*
X438440Y-9792336D02*
X447964Y-9773289D01*
X447964Y-9773289D02*
X457487Y-9763765D01*
X457487Y-9763765D02*
X476535Y-9754241D01*
X476535Y-9754241D02*
X495583Y-9754241D01*
X562249Y-9887574D02*
X562249Y-9754241D01*
X562249Y-9687574D02*
X552726Y-9697098D01*
X552726Y-9697098D02*
X562249Y-9706622D01*
X562249Y-9706622D02*
X571773Y-9697098D01*
X571773Y-9697098D02*
X562249Y-9687574D01*
X562249Y-9687574D02*
X562249Y-9706622D01*
X686059Y-9887574D02*
X667011Y-9878051D01*
X667011Y-9878051D02*
X657488Y-9859003D01*
X657488Y-9859003D02*
X657488Y-9687574D01*
X790821Y-9887574D02*
X771773Y-9878051D01*
X771773Y-9878051D02*
X762249Y-9859003D01*
X762249Y-9859003D02*
X762249Y-9687574D01*
X987011Y-9887574D02*
X987011Y-9687574D01*
X987011Y-9687574D02*
X1053678Y-9830432D01*
X1053678Y-9830432D02*
X1120345Y-9687574D01*
X1120345Y-9687574D02*
X1120345Y-9887574D01*
X1301297Y-9887574D02*
X1301297Y-9782812D01*
X1301297Y-9782812D02*
X1291773Y-9763765D01*
X1291773Y-9763765D02*
X1272726Y-9754241D01*
X1272726Y-9754241D02*
X1234630Y-9754241D01*
X1234630Y-9754241D02*
X1215583Y-9763765D01*
X1301297Y-9878051D02*
X1282249Y-9887574D01*
X1282249Y-9887574D02*
X1234630Y-9887574D01*
X1234630Y-9887574D02*
X1215583Y-9878051D01*
X1215583Y-9878051D02*
X1206059Y-9859003D01*
X1206059Y-9859003D02*
X1206059Y-9839955D01*
X1206059Y-9839955D02*
X1215583Y-9820908D01*
X1215583Y-9820908D02*
X1234630Y-9811384D01*
X1234630Y-9811384D02*
X1282249Y-9811384D01*
X1282249Y-9811384D02*
X1301297Y-9801860D01*
X1396535Y-9754241D02*
X1396535Y-9954241D01*
X1396535Y-9763765D02*
X1415583Y-9754241D01*
X1415583Y-9754241D02*
X1453678Y-9754241D01*
X1453678Y-9754241D02*
X1472726Y-9763765D01*
X1472726Y-9763765D02*
X1482249Y-9773289D01*
X1482249Y-9773289D02*
X1491773Y-9792336D01*
X1491773Y-9792336D02*
X1491773Y-9849479D01*
X1491773Y-9849479D02*
X1482249Y-9868527D01*
X1482249Y-9868527D02*
X1472726Y-9878051D01*
X1472726Y-9878051D02*
X1453678Y-9887574D01*
X1453678Y-9887574D02*
X1415583Y-9887574D01*
X1415583Y-9887574D02*
X1396535Y-9878051D01*
X1577487Y-9868527D02*
X1587011Y-9878051D01*
X1587011Y-9878051D02*
X1577487Y-9887574D01*
X1577487Y-9887574D02*
X1567964Y-9878051D01*
X1567964Y-9878051D02*
X1577487Y-9868527D01*
X1577487Y-9868527D02*
X1577487Y-9887574D01*
X1577487Y-9763765D02*
X1587011Y-9773289D01*
X1587011Y-9773289D02*
X1577487Y-9782812D01*
X1577487Y-9782812D02*
X1567964Y-9773289D01*
X1567964Y-9773289D02*
X1577487Y-9763765D01*
X1577487Y-9763765D02*
X1577487Y-9782812D01*
D12*
X-34179Y-10221598D02*
X-9179Y-10246598D01*
X-9179Y-10221598D02*
X-34179Y-10246598D01*
D11*
X276535Y-10107574D02*
X295583Y-10107574D01*
X295583Y-10107574D02*
X314630Y-10117098D01*
X314630Y-10117098D02*
X324154Y-10126622D01*
X324154Y-10126622D02*
X333678Y-10145670D01*
X333678Y-10145670D02*
X343202Y-10183765D01*
X343202Y-10183765D02*
X343202Y-10231384D01*
X343202Y-10231384D02*
X333678Y-10269479D01*
X333678Y-10269479D02*
X324154Y-10288527D01*
X324154Y-10288527D02*
X314630Y-10298051D01*
X314630Y-10298051D02*
X295583Y-10307574D01*
X295583Y-10307574D02*
X276535Y-10307574D01*
X276535Y-10307574D02*
X257487Y-10298051D01*
X257487Y-10298051D02*
X247964Y-10288527D01*
X247964Y-10288527D02*
X238440Y-10269479D01*
X238440Y-10269479D02*
X228916Y-10231384D01*
X228916Y-10231384D02*
X228916Y-10183765D01*
X228916Y-10183765D02*
X238440Y-10145670D01*
X238440Y-10145670D02*
X247964Y-10126622D01*
X247964Y-10126622D02*
X257487Y-10117098D01*
X257487Y-10117098D02*
X276535Y-10107574D01*
X428916Y-10288527D02*
X438440Y-10298051D01*
X438440Y-10298051D02*
X428916Y-10307574D01*
X428916Y-10307574D02*
X419392Y-10298051D01*
X419392Y-10298051D02*
X428916Y-10288527D01*
X428916Y-10288527D02*
X428916Y-10307574D01*
X514630Y-10126622D02*
X524154Y-10117098D01*
X524154Y-10117098D02*
X543202Y-10107574D01*
X543202Y-10107574D02*
X590821Y-10107574D01*
X590821Y-10107574D02*
X609869Y-10117098D01*
X609869Y-10117098D02*
X619392Y-10126622D01*
X619392Y-10126622D02*
X628916Y-10145670D01*
X628916Y-10145670D02*
X628916Y-10164717D01*
X628916Y-10164717D02*
X619392Y-10193289D01*
X619392Y-10193289D02*
X505107Y-10307574D01*
X505107Y-10307574D02*
X628916Y-10307574D01*
X809868Y-10107574D02*
X714630Y-10107574D01*
X714630Y-10107574D02*
X705107Y-10202812D01*
X705107Y-10202812D02*
X714630Y-10193289D01*
X714630Y-10193289D02*
X733678Y-10183765D01*
X733678Y-10183765D02*
X781297Y-10183765D01*
X781297Y-10183765D02*
X800345Y-10193289D01*
X800345Y-10193289D02*
X809868Y-10202812D01*
X809868Y-10202812D02*
X819392Y-10221860D01*
X819392Y-10221860D02*
X819392Y-10269479D01*
X819392Y-10269479D02*
X809868Y-10288527D01*
X809868Y-10288527D02*
X800345Y-10298051D01*
X800345Y-10298051D02*
X781297Y-10307574D01*
X781297Y-10307574D02*
X733678Y-10307574D01*
X733678Y-10307574D02*
X714630Y-10298051D01*
X714630Y-10298051D02*
X705107Y-10288527D01*
X943202Y-10107574D02*
X962249Y-10107574D01*
X962249Y-10107574D02*
X981297Y-10117098D01*
X981297Y-10117098D02*
X990821Y-10126622D01*
X990821Y-10126622D02*
X1000345Y-10145670D01*
X1000345Y-10145670D02*
X1009868Y-10183765D01*
X1009868Y-10183765D02*
X1009868Y-10231384D01*
X1009868Y-10231384D02*
X1000345Y-10269479D01*
X1000345Y-10269479D02*
X990821Y-10288527D01*
X990821Y-10288527D02*
X981297Y-10298051D01*
X981297Y-10298051D02*
X962249Y-10307574D01*
X962249Y-10307574D02*
X943202Y-10307574D01*
X943202Y-10307574D02*
X924154Y-10298051D01*
X924154Y-10298051D02*
X914630Y-10288527D01*
X914630Y-10288527D02*
X905107Y-10269479D01*
X905107Y-10269479D02*
X895583Y-10231384D01*
X895583Y-10231384D02*
X895583Y-10183765D01*
X895583Y-10183765D02*
X905107Y-10145670D01*
X905107Y-10145670D02*
X914630Y-10126622D01*
X914630Y-10126622D02*
X924154Y-10117098D01*
X924154Y-10117098D02*
X943202Y-10107574D01*
X1095583Y-10307574D02*
X1095583Y-10174241D01*
X1095583Y-10193289D02*
X1105107Y-10183765D01*
X1105107Y-10183765D02*
X1124154Y-10174241D01*
X1124154Y-10174241D02*
X1152726Y-10174241D01*
X1152726Y-10174241D02*
X1171773Y-10183765D01*
X1171773Y-10183765D02*
X1181297Y-10202812D01*
X1181297Y-10202812D02*
X1181297Y-10307574D01*
X1181297Y-10202812D02*
X1190821Y-10183765D01*
X1190821Y-10183765D02*
X1209869Y-10174241D01*
X1209869Y-10174241D02*
X1238440Y-10174241D01*
X1238440Y-10174241D02*
X1257488Y-10183765D01*
X1257488Y-10183765D02*
X1267011Y-10202812D01*
X1267011Y-10202812D02*
X1267011Y-10307574D01*
X1362250Y-10307574D02*
X1362250Y-10174241D01*
X1362250Y-10193289D02*
X1371773Y-10183765D01*
X1371773Y-10183765D02*
X1390821Y-10174241D01*
X1390821Y-10174241D02*
X1419392Y-10174241D01*
X1419392Y-10174241D02*
X1438440Y-10183765D01*
X1438440Y-10183765D02*
X1447964Y-10202812D01*
X1447964Y-10202812D02*
X1447964Y-10307574D01*
X1447964Y-10202812D02*
X1457488Y-10183765D01*
X1457488Y-10183765D02*
X1476535Y-10174241D01*
X1476535Y-10174241D02*
X1505107Y-10174241D01*
X1505107Y-10174241D02*
X1524154Y-10183765D01*
X1524154Y-10183765D02*
X1533678Y-10202812D01*
X1533678Y-10202812D02*
X1533678Y-10307574D01*
X1891773Y-10098051D02*
X1720345Y-10355193D01*
X2116535Y-10107574D02*
X2135583Y-10107574D01*
X2135583Y-10107574D02*
X2154631Y-10117098D01*
X2154631Y-10117098D02*
X2164154Y-10126622D01*
X2164154Y-10126622D02*
X2173678Y-10145670D01*
X2173678Y-10145670D02*
X2183202Y-10183765D01*
X2183202Y-10183765D02*
X2183202Y-10231384D01*
X2183202Y-10231384D02*
X2173678Y-10269479D01*
X2173678Y-10269479D02*
X2164154Y-10288527D01*
X2164154Y-10288527D02*
X2154631Y-10298051D01*
X2154631Y-10298051D02*
X2135583Y-10307574D01*
X2135583Y-10307574D02*
X2116535Y-10307574D01*
X2116535Y-10307574D02*
X2097488Y-10298051D01*
X2097488Y-10298051D02*
X2087964Y-10288527D01*
X2087964Y-10288527D02*
X2078440Y-10269479D01*
X2078440Y-10269479D02*
X2068916Y-10231384D01*
X2068916Y-10231384D02*
X2068916Y-10183765D01*
X2068916Y-10183765D02*
X2078440Y-10145670D01*
X2078440Y-10145670D02*
X2087964Y-10126622D01*
X2087964Y-10126622D02*
X2097488Y-10117098D01*
X2097488Y-10117098D02*
X2116535Y-10107574D01*
X2268916Y-10288527D02*
X2278440Y-10298051D01*
X2278440Y-10298051D02*
X2268916Y-10307574D01*
X2268916Y-10307574D02*
X2259392Y-10298051D01*
X2259392Y-10298051D02*
X2268916Y-10288527D01*
X2268916Y-10288527D02*
X2268916Y-10307574D01*
X2402250Y-10107574D02*
X2421297Y-10107574D01*
X2421297Y-10107574D02*
X2440345Y-10117098D01*
X2440345Y-10117098D02*
X2449869Y-10126622D01*
X2449869Y-10126622D02*
X2459392Y-10145670D01*
X2459392Y-10145670D02*
X2468916Y-10183765D01*
X2468916Y-10183765D02*
X2468916Y-10231384D01*
X2468916Y-10231384D02*
X2459392Y-10269479D01*
X2459392Y-10269479D02*
X2449869Y-10288527D01*
X2449869Y-10288527D02*
X2440345Y-10298051D01*
X2440345Y-10298051D02*
X2421297Y-10307574D01*
X2421297Y-10307574D02*
X2402250Y-10307574D01*
X2402250Y-10307574D02*
X2383202Y-10298051D01*
X2383202Y-10298051D02*
X2373678Y-10288527D01*
X2373678Y-10288527D02*
X2364154Y-10269479D01*
X2364154Y-10269479D02*
X2354631Y-10231384D01*
X2354631Y-10231384D02*
X2354631Y-10183765D01*
X2354631Y-10183765D02*
X2364154Y-10145670D01*
X2364154Y-10145670D02*
X2373678Y-10126622D01*
X2373678Y-10126622D02*
X2383202Y-10117098D01*
X2383202Y-10117098D02*
X2402250Y-10107574D01*
X2592726Y-10107574D02*
X2611773Y-10107574D01*
X2611773Y-10107574D02*
X2630821Y-10117098D01*
X2630821Y-10117098D02*
X2640345Y-10126622D01*
X2640345Y-10126622D02*
X2649869Y-10145670D01*
X2649869Y-10145670D02*
X2659392Y-10183765D01*
X2659392Y-10183765D02*
X2659392Y-10231384D01*
X2659392Y-10231384D02*
X2649869Y-10269479D01*
X2649869Y-10269479D02*
X2640345Y-10288527D01*
X2640345Y-10288527D02*
X2630821Y-10298051D01*
X2630821Y-10298051D02*
X2611773Y-10307574D01*
X2611773Y-10307574D02*
X2592726Y-10307574D01*
X2592726Y-10307574D02*
X2573678Y-10298051D01*
X2573678Y-10298051D02*
X2564154Y-10288527D01*
X2564154Y-10288527D02*
X2554631Y-10269479D01*
X2554631Y-10269479D02*
X2545107Y-10231384D01*
X2545107Y-10231384D02*
X2545107Y-10183765D01*
X2545107Y-10183765D02*
X2554631Y-10145670D01*
X2554631Y-10145670D02*
X2564154Y-10126622D01*
X2564154Y-10126622D02*
X2573678Y-10117098D01*
X2573678Y-10117098D02*
X2592726Y-10107574D01*
X2754631Y-10307574D02*
X2792726Y-10307574D01*
X2792726Y-10307574D02*
X2811773Y-10298051D01*
X2811773Y-10298051D02*
X2821297Y-10288527D01*
X2821297Y-10288527D02*
X2840345Y-10259955D01*
X2840345Y-10259955D02*
X2849869Y-10221860D01*
X2849869Y-10221860D02*
X2849869Y-10145670D01*
X2849869Y-10145670D02*
X2840345Y-10126622D01*
X2840345Y-10126622D02*
X2830821Y-10117098D01*
X2830821Y-10117098D02*
X2811773Y-10107574D01*
X2811773Y-10107574D02*
X2773678Y-10107574D01*
X2773678Y-10107574D02*
X2754631Y-10117098D01*
X2754631Y-10117098D02*
X2745107Y-10126622D01*
X2745107Y-10126622D02*
X2735583Y-10145670D01*
X2735583Y-10145670D02*
X2735583Y-10193289D01*
X2735583Y-10193289D02*
X2745107Y-10212336D01*
X2745107Y-10212336D02*
X2754631Y-10221860D01*
X2754631Y-10221860D02*
X2773678Y-10231384D01*
X2773678Y-10231384D02*
X2811773Y-10231384D01*
X2811773Y-10231384D02*
X2830821Y-10221860D01*
X2830821Y-10221860D02*
X2840345Y-10212336D01*
X2840345Y-10212336D02*
X2849869Y-10193289D01*
X2964154Y-10193289D02*
X2945107Y-10183765D01*
X2945107Y-10183765D02*
X2935583Y-10174241D01*
X2935583Y-10174241D02*
X2926059Y-10155193D01*
X2926059Y-10155193D02*
X2926059Y-10145670D01*
X2926059Y-10145670D02*
X2935583Y-10126622D01*
X2935583Y-10126622D02*
X2945107Y-10117098D01*
X2945107Y-10117098D02*
X2964154Y-10107574D01*
X2964154Y-10107574D02*
X3002250Y-10107574D01*
X3002250Y-10107574D02*
X3021297Y-10117098D01*
X3021297Y-10117098D02*
X3030821Y-10126622D01*
X3030821Y-10126622D02*
X3040345Y-10145670D01*
X3040345Y-10145670D02*
X3040345Y-10155193D01*
X3040345Y-10155193D02*
X3030821Y-10174241D01*
X3030821Y-10174241D02*
X3021297Y-10183765D01*
X3021297Y-10183765D02*
X3002250Y-10193289D01*
X3002250Y-10193289D02*
X2964154Y-10193289D01*
X2964154Y-10193289D02*
X2945107Y-10202812D01*
X2945107Y-10202812D02*
X2935583Y-10212336D01*
X2935583Y-10212336D02*
X2926059Y-10231384D01*
X2926059Y-10231384D02*
X2926059Y-10269479D01*
X2926059Y-10269479D02*
X2935583Y-10288527D01*
X2935583Y-10288527D02*
X2945107Y-10298051D01*
X2945107Y-10298051D02*
X2964154Y-10307574D01*
X2964154Y-10307574D02*
X3002250Y-10307574D01*
X3002250Y-10307574D02*
X3021297Y-10298051D01*
X3021297Y-10298051D02*
X3030821Y-10288527D01*
X3030821Y-10288527D02*
X3040345Y-10269479D01*
X3040345Y-10269479D02*
X3040345Y-10231384D01*
X3040345Y-10231384D02*
X3030821Y-10212336D01*
X3030821Y-10212336D02*
X3021297Y-10202812D01*
X3021297Y-10202812D02*
X3002250Y-10193289D01*
X3116535Y-10107574D02*
X3116535Y-10145670D01*
X3192726Y-10107574D02*
X3192726Y-10145670D01*
X3455583Y-10383765D02*
X3446059Y-10374241D01*
X3446059Y-10374241D02*
X3427011Y-10345670D01*
X3427011Y-10345670D02*
X3417488Y-10326622D01*
X3417488Y-10326622D02*
X3407964Y-10298051D01*
X3407964Y-10298051D02*
X3398440Y-10250432D01*
X3398440Y-10250432D02*
X3398440Y-10212336D01*
X3398440Y-10212336D02*
X3407964Y-10164717D01*
X3407964Y-10164717D02*
X3417488Y-10136146D01*
X3417488Y-10136146D02*
X3427011Y-10117098D01*
X3427011Y-10117098D02*
X3446059Y-10088527D01*
X3446059Y-10088527D02*
X3455583Y-10079003D01*
X3636535Y-10307574D02*
X3522250Y-10307574D01*
X3579392Y-10307574D02*
X3579392Y-10107574D01*
X3579392Y-10107574D02*
X3560345Y-10136146D01*
X3560345Y-10136146D02*
X3541297Y-10155193D01*
X3541297Y-10155193D02*
X3522250Y-10164717D01*
X3750821Y-10193289D02*
X3731773Y-10183765D01*
X3731773Y-10183765D02*
X3722250Y-10174241D01*
X3722250Y-10174241D02*
X3712726Y-10155193D01*
X3712726Y-10155193D02*
X3712726Y-10145670D01*
X3712726Y-10145670D02*
X3722250Y-10126622D01*
X3722250Y-10126622D02*
X3731773Y-10117098D01*
X3731773Y-10117098D02*
X3750821Y-10107574D01*
X3750821Y-10107574D02*
X3788916Y-10107574D01*
X3788916Y-10107574D02*
X3807964Y-10117098D01*
X3807964Y-10117098D02*
X3817488Y-10126622D01*
X3817488Y-10126622D02*
X3827011Y-10145670D01*
X3827011Y-10145670D02*
X3827011Y-10155193D01*
X3827011Y-10155193D02*
X3817488Y-10174241D01*
X3817488Y-10174241D02*
X3807964Y-10183765D01*
X3807964Y-10183765D02*
X3788916Y-10193289D01*
X3788916Y-10193289D02*
X3750821Y-10193289D01*
X3750821Y-10193289D02*
X3731773Y-10202812D01*
X3731773Y-10202812D02*
X3722250Y-10212336D01*
X3722250Y-10212336D02*
X3712726Y-10231384D01*
X3712726Y-10231384D02*
X3712726Y-10269479D01*
X3712726Y-10269479D02*
X3722250Y-10288527D01*
X3722250Y-10288527D02*
X3731773Y-10298051D01*
X3731773Y-10298051D02*
X3750821Y-10307574D01*
X3750821Y-10307574D02*
X3788916Y-10307574D01*
X3788916Y-10307574D02*
X3807964Y-10298051D01*
X3807964Y-10298051D02*
X3817488Y-10288527D01*
X3817488Y-10288527D02*
X3827011Y-10269479D01*
X3827011Y-10269479D02*
X3827011Y-10231384D01*
X3827011Y-10231384D02*
X3817488Y-10212336D01*
X3817488Y-10212336D02*
X3807964Y-10202812D01*
X3807964Y-10202812D02*
X3788916Y-10193289D01*
X4032726Y-10307574D02*
X4032726Y-10107574D01*
X4118440Y-10307574D02*
X4118440Y-10202812D01*
X4118440Y-10202812D02*
X4108916Y-10183765D01*
X4108916Y-10183765D02*
X4089869Y-10174241D01*
X4089869Y-10174241D02*
X4061297Y-10174241D01*
X4061297Y-10174241D02*
X4042250Y-10183765D01*
X4042250Y-10183765D02*
X4032726Y-10193289D01*
X4242250Y-10307574D02*
X4223202Y-10298051D01*
X4223202Y-10298051D02*
X4213678Y-10288527D01*
X4213678Y-10288527D02*
X4204154Y-10269479D01*
X4204154Y-10269479D02*
X4204154Y-10212336D01*
X4204154Y-10212336D02*
X4213678Y-10193289D01*
X4213678Y-10193289D02*
X4223202Y-10183765D01*
X4223202Y-10183765D02*
X4242250Y-10174241D01*
X4242250Y-10174241D02*
X4270821Y-10174241D01*
X4270821Y-10174241D02*
X4289869Y-10183765D01*
X4289869Y-10183765D02*
X4299393Y-10193289D01*
X4299393Y-10193289D02*
X4308916Y-10212336D01*
X4308916Y-10212336D02*
X4308916Y-10269479D01*
X4308916Y-10269479D02*
X4299393Y-10288527D01*
X4299393Y-10288527D02*
X4289869Y-10298051D01*
X4289869Y-10298051D02*
X4270821Y-10307574D01*
X4270821Y-10307574D02*
X4242250Y-10307574D01*
X4423202Y-10307574D02*
X4404154Y-10298051D01*
X4404154Y-10298051D02*
X4394631Y-10279003D01*
X4394631Y-10279003D02*
X4394631Y-10107574D01*
X4575583Y-10298051D02*
X4556535Y-10307574D01*
X4556535Y-10307574D02*
X4518440Y-10307574D01*
X4518440Y-10307574D02*
X4499393Y-10298051D01*
X4499393Y-10298051D02*
X4489869Y-10279003D01*
X4489869Y-10279003D02*
X4489869Y-10202812D01*
X4489869Y-10202812D02*
X4499393Y-10183765D01*
X4499393Y-10183765D02*
X4518440Y-10174241D01*
X4518440Y-10174241D02*
X4556535Y-10174241D01*
X4556535Y-10174241D02*
X4575583Y-10183765D01*
X4575583Y-10183765D02*
X4585107Y-10202812D01*
X4585107Y-10202812D02*
X4585107Y-10221860D01*
X4585107Y-10221860D02*
X4489869Y-10240908D01*
X4661297Y-10298051D02*
X4680345Y-10307574D01*
X4680345Y-10307574D02*
X4718440Y-10307574D01*
X4718440Y-10307574D02*
X4737488Y-10298051D01*
X4737488Y-10298051D02*
X4747012Y-10279003D01*
X4747012Y-10279003D02*
X4747012Y-10269479D01*
X4747012Y-10269479D02*
X4737488Y-10250432D01*
X4737488Y-10250432D02*
X4718440Y-10240908D01*
X4718440Y-10240908D02*
X4689869Y-10240908D01*
X4689869Y-10240908D02*
X4670821Y-10231384D01*
X4670821Y-10231384D02*
X4661297Y-10212336D01*
X4661297Y-10212336D02*
X4661297Y-10202812D01*
X4661297Y-10202812D02*
X4670821Y-10183765D01*
X4670821Y-10183765D02*
X4689869Y-10174241D01*
X4689869Y-10174241D02*
X4718440Y-10174241D01*
X4718440Y-10174241D02*
X4737488Y-10183765D01*
X4813678Y-10383765D02*
X4823202Y-10374241D01*
X4823202Y-10374241D02*
X4842250Y-10345670D01*
X4842250Y-10345670D02*
X4851774Y-10326622D01*
X4851774Y-10326622D02*
X4861297Y-10298051D01*
X4861297Y-10298051D02*
X4870821Y-10250432D01*
X4870821Y-10250432D02*
X4870821Y-10212336D01*
X4870821Y-10212336D02*
X4861297Y-10164717D01*
X4861297Y-10164717D02*
X4851774Y-10136146D01*
X4851774Y-10136146D02*
X4842250Y-10117098D01*
X4842250Y-10117098D02*
X4823202Y-10088527D01*
X4823202Y-10088527D02*
X4813678Y-10079003D01*
D13*
X-9179Y-10498098D02*
G75*
G03*
X-9179Y-10498098I-30000J0D01*
G01*
D11*
X276535Y-10371574D02*
X295583Y-10371574D01*
X295583Y-10371574D02*
X314630Y-10381098D01*
X314630Y-10381098D02*
X324154Y-10390622D01*
X324154Y-10390622D02*
X333678Y-10409670D01*
X333678Y-10409670D02*
X343202Y-10447765D01*
X343202Y-10447765D02*
X343202Y-10495384D01*
X343202Y-10495384D02*
X333678Y-10533479D01*
X333678Y-10533479D02*
X324154Y-10552527D01*
X324154Y-10552527D02*
X314630Y-10562051D01*
X314630Y-10562051D02*
X295583Y-10571574D01*
X295583Y-10571574D02*
X276535Y-10571574D01*
X276535Y-10571574D02*
X257487Y-10562051D01*
X257487Y-10562051D02*
X247964Y-10552527D01*
X247964Y-10552527D02*
X238440Y-10533479D01*
X238440Y-10533479D02*
X228916Y-10495384D01*
X228916Y-10495384D02*
X228916Y-10447765D01*
X228916Y-10447765D02*
X238440Y-10409670D01*
X238440Y-10409670D02*
X247964Y-10390622D01*
X247964Y-10390622D02*
X257487Y-10381098D01*
X257487Y-10381098D02*
X276535Y-10371574D01*
X428916Y-10552527D02*
X438440Y-10562051D01*
X438440Y-10562051D02*
X428916Y-10571574D01*
X428916Y-10571574D02*
X419392Y-10562051D01*
X419392Y-10562051D02*
X428916Y-10552527D01*
X428916Y-10552527D02*
X428916Y-10571574D01*
X609869Y-10371574D02*
X571773Y-10371574D01*
X571773Y-10371574D02*
X552726Y-10381098D01*
X552726Y-10381098D02*
X543202Y-10390622D01*
X543202Y-10390622D02*
X524154Y-10419193D01*
X524154Y-10419193D02*
X514630Y-10457289D01*
X514630Y-10457289D02*
X514630Y-10533479D01*
X514630Y-10533479D02*
X524154Y-10552527D01*
X524154Y-10552527D02*
X533678Y-10562051D01*
X533678Y-10562051D02*
X552726Y-10571574D01*
X552726Y-10571574D02*
X590821Y-10571574D01*
X590821Y-10571574D02*
X609869Y-10562051D01*
X609869Y-10562051D02*
X619392Y-10552527D01*
X619392Y-10552527D02*
X628916Y-10533479D01*
X628916Y-10533479D02*
X628916Y-10485860D01*
X628916Y-10485860D02*
X619392Y-10466812D01*
X619392Y-10466812D02*
X609869Y-10457289D01*
X609869Y-10457289D02*
X590821Y-10447765D01*
X590821Y-10447765D02*
X552726Y-10447765D01*
X552726Y-10447765D02*
X533678Y-10457289D01*
X533678Y-10457289D02*
X524154Y-10466812D01*
X524154Y-10466812D02*
X514630Y-10485860D01*
X752726Y-10371574D02*
X771773Y-10371574D01*
X771773Y-10371574D02*
X790821Y-10381098D01*
X790821Y-10381098D02*
X800345Y-10390622D01*
X800345Y-10390622D02*
X809868Y-10409670D01*
X809868Y-10409670D02*
X819392Y-10447765D01*
X819392Y-10447765D02*
X819392Y-10495384D01*
X819392Y-10495384D02*
X809868Y-10533479D01*
X809868Y-10533479D02*
X800345Y-10552527D01*
X800345Y-10552527D02*
X790821Y-10562051D01*
X790821Y-10562051D02*
X771773Y-10571574D01*
X771773Y-10571574D02*
X752726Y-10571574D01*
X752726Y-10571574D02*
X733678Y-10562051D01*
X733678Y-10562051D02*
X724154Y-10552527D01*
X724154Y-10552527D02*
X714630Y-10533479D01*
X714630Y-10533479D02*
X705107Y-10495384D01*
X705107Y-10495384D02*
X705107Y-10447765D01*
X705107Y-10447765D02*
X714630Y-10409670D01*
X714630Y-10409670D02*
X724154Y-10390622D01*
X724154Y-10390622D02*
X733678Y-10381098D01*
X733678Y-10381098D02*
X752726Y-10371574D01*
X943202Y-10371574D02*
X962249Y-10371574D01*
X962249Y-10371574D02*
X981297Y-10381098D01*
X981297Y-10381098D02*
X990821Y-10390622D01*
X990821Y-10390622D02*
X1000345Y-10409670D01*
X1000345Y-10409670D02*
X1009868Y-10447765D01*
X1009868Y-10447765D02*
X1009868Y-10495384D01*
X1009868Y-10495384D02*
X1000345Y-10533479D01*
X1000345Y-10533479D02*
X990821Y-10552527D01*
X990821Y-10552527D02*
X981297Y-10562051D01*
X981297Y-10562051D02*
X962249Y-10571574D01*
X962249Y-10571574D02*
X943202Y-10571574D01*
X943202Y-10571574D02*
X924154Y-10562051D01*
X924154Y-10562051D02*
X914630Y-10552527D01*
X914630Y-10552527D02*
X905107Y-10533479D01*
X905107Y-10533479D02*
X895583Y-10495384D01*
X895583Y-10495384D02*
X895583Y-10447765D01*
X895583Y-10447765D02*
X905107Y-10409670D01*
X905107Y-10409670D02*
X914630Y-10390622D01*
X914630Y-10390622D02*
X924154Y-10381098D01*
X924154Y-10381098D02*
X943202Y-10371574D01*
X1095583Y-10571574D02*
X1095583Y-10438241D01*
X1095583Y-10457289D02*
X1105107Y-10447765D01*
X1105107Y-10447765D02*
X1124154Y-10438241D01*
X1124154Y-10438241D02*
X1152726Y-10438241D01*
X1152726Y-10438241D02*
X1171773Y-10447765D01*
X1171773Y-10447765D02*
X1181297Y-10466812D01*
X1181297Y-10466812D02*
X1181297Y-10571574D01*
X1181297Y-10466812D02*
X1190821Y-10447765D01*
X1190821Y-10447765D02*
X1209869Y-10438241D01*
X1209869Y-10438241D02*
X1238440Y-10438241D01*
X1238440Y-10438241D02*
X1257488Y-10447765D01*
X1257488Y-10447765D02*
X1267011Y-10466812D01*
X1267011Y-10466812D02*
X1267011Y-10571574D01*
X1362250Y-10571574D02*
X1362250Y-10438241D01*
X1362250Y-10457289D02*
X1371773Y-10447765D01*
X1371773Y-10447765D02*
X1390821Y-10438241D01*
X1390821Y-10438241D02*
X1419392Y-10438241D01*
X1419392Y-10438241D02*
X1438440Y-10447765D01*
X1438440Y-10447765D02*
X1447964Y-10466812D01*
X1447964Y-10466812D02*
X1447964Y-10571574D01*
X1447964Y-10466812D02*
X1457488Y-10447765D01*
X1457488Y-10447765D02*
X1476535Y-10438241D01*
X1476535Y-10438241D02*
X1505107Y-10438241D01*
X1505107Y-10438241D02*
X1524154Y-10447765D01*
X1524154Y-10447765D02*
X1533678Y-10466812D01*
X1533678Y-10466812D02*
X1533678Y-10571574D01*
X1891773Y-10362051D02*
X1720345Y-10619193D01*
X2116535Y-10371574D02*
X2135583Y-10371574D01*
X2135583Y-10371574D02*
X2154631Y-10381098D01*
X2154631Y-10381098D02*
X2164154Y-10390622D01*
X2164154Y-10390622D02*
X2173678Y-10409670D01*
X2173678Y-10409670D02*
X2183202Y-10447765D01*
X2183202Y-10447765D02*
X2183202Y-10495384D01*
X2183202Y-10495384D02*
X2173678Y-10533479D01*
X2173678Y-10533479D02*
X2164154Y-10552527D01*
X2164154Y-10552527D02*
X2154631Y-10562051D01*
X2154631Y-10562051D02*
X2135583Y-10571574D01*
X2135583Y-10571574D02*
X2116535Y-10571574D01*
X2116535Y-10571574D02*
X2097488Y-10562051D01*
X2097488Y-10562051D02*
X2087964Y-10552527D01*
X2087964Y-10552527D02*
X2078440Y-10533479D01*
X2078440Y-10533479D02*
X2068916Y-10495384D01*
X2068916Y-10495384D02*
X2068916Y-10447765D01*
X2068916Y-10447765D02*
X2078440Y-10409670D01*
X2078440Y-10409670D02*
X2087964Y-10390622D01*
X2087964Y-10390622D02*
X2097488Y-10381098D01*
X2097488Y-10381098D02*
X2116535Y-10371574D01*
X2268916Y-10552527D02*
X2278440Y-10562051D01*
X2278440Y-10562051D02*
X2268916Y-10571574D01*
X2268916Y-10571574D02*
X2259392Y-10562051D01*
X2259392Y-10562051D02*
X2268916Y-10552527D01*
X2268916Y-10552527D02*
X2268916Y-10571574D01*
X2402250Y-10371574D02*
X2421297Y-10371574D01*
X2421297Y-10371574D02*
X2440345Y-10381098D01*
X2440345Y-10381098D02*
X2449869Y-10390622D01*
X2449869Y-10390622D02*
X2459392Y-10409670D01*
X2459392Y-10409670D02*
X2468916Y-10447765D01*
X2468916Y-10447765D02*
X2468916Y-10495384D01*
X2468916Y-10495384D02*
X2459392Y-10533479D01*
X2459392Y-10533479D02*
X2449869Y-10552527D01*
X2449869Y-10552527D02*
X2440345Y-10562051D01*
X2440345Y-10562051D02*
X2421297Y-10571574D01*
X2421297Y-10571574D02*
X2402250Y-10571574D01*
X2402250Y-10571574D02*
X2383202Y-10562051D01*
X2383202Y-10562051D02*
X2373678Y-10552527D01*
X2373678Y-10552527D02*
X2364154Y-10533479D01*
X2364154Y-10533479D02*
X2354631Y-10495384D01*
X2354631Y-10495384D02*
X2354631Y-10447765D01*
X2354631Y-10447765D02*
X2364154Y-10409670D01*
X2364154Y-10409670D02*
X2373678Y-10390622D01*
X2373678Y-10390622D02*
X2383202Y-10381098D01*
X2383202Y-10381098D02*
X2402250Y-10371574D01*
X2545107Y-10390622D02*
X2554631Y-10381098D01*
X2554631Y-10381098D02*
X2573678Y-10371574D01*
X2573678Y-10371574D02*
X2621297Y-10371574D01*
X2621297Y-10371574D02*
X2640345Y-10381098D01*
X2640345Y-10381098D02*
X2649869Y-10390622D01*
X2649869Y-10390622D02*
X2659392Y-10409670D01*
X2659392Y-10409670D02*
X2659392Y-10428717D01*
X2659392Y-10428717D02*
X2649869Y-10457289D01*
X2649869Y-10457289D02*
X2535583Y-10571574D01*
X2535583Y-10571574D02*
X2659392Y-10571574D01*
X2726059Y-10371574D02*
X2849869Y-10371574D01*
X2849869Y-10371574D02*
X2783202Y-10447765D01*
X2783202Y-10447765D02*
X2811773Y-10447765D01*
X2811773Y-10447765D02*
X2830821Y-10457289D01*
X2830821Y-10457289D02*
X2840345Y-10466812D01*
X2840345Y-10466812D02*
X2849869Y-10485860D01*
X2849869Y-10485860D02*
X2849869Y-10533479D01*
X2849869Y-10533479D02*
X2840345Y-10552527D01*
X2840345Y-10552527D02*
X2830821Y-10562051D01*
X2830821Y-10562051D02*
X2811773Y-10571574D01*
X2811773Y-10571574D02*
X2754631Y-10571574D01*
X2754631Y-10571574D02*
X2735583Y-10562051D01*
X2735583Y-10562051D02*
X2726059Y-10552527D01*
X3021297Y-10371574D02*
X2983202Y-10371574D01*
X2983202Y-10371574D02*
X2964154Y-10381098D01*
X2964154Y-10381098D02*
X2954630Y-10390622D01*
X2954630Y-10390622D02*
X2935583Y-10419193D01*
X2935583Y-10419193D02*
X2926059Y-10457289D01*
X2926059Y-10457289D02*
X2926059Y-10533479D01*
X2926059Y-10533479D02*
X2935583Y-10552527D01*
X2935583Y-10552527D02*
X2945107Y-10562051D01*
X2945107Y-10562051D02*
X2964154Y-10571574D01*
X2964154Y-10571574D02*
X3002250Y-10571574D01*
X3002250Y-10571574D02*
X3021297Y-10562051D01*
X3021297Y-10562051D02*
X3030821Y-10552527D01*
X3030821Y-10552527D02*
X3040345Y-10533479D01*
X3040345Y-10533479D02*
X3040345Y-10485860D01*
X3040345Y-10485860D02*
X3030821Y-10466812D01*
X3030821Y-10466812D02*
X3021297Y-10457289D01*
X3021297Y-10457289D02*
X3002250Y-10447765D01*
X3002250Y-10447765D02*
X2964154Y-10447765D01*
X2964154Y-10447765D02*
X2945107Y-10457289D01*
X2945107Y-10457289D02*
X2935583Y-10466812D01*
X2935583Y-10466812D02*
X2926059Y-10485860D01*
X3116535Y-10371574D02*
X3116535Y-10409670D01*
X3192726Y-10371574D02*
X3192726Y-10409670D01*
X3455583Y-10647765D02*
X3446059Y-10638241D01*
X3446059Y-10638241D02*
X3427011Y-10609670D01*
X3427011Y-10609670D02*
X3417488Y-10590622D01*
X3417488Y-10590622D02*
X3407964Y-10562051D01*
X3407964Y-10562051D02*
X3398440Y-10514432D01*
X3398440Y-10514432D02*
X3398440Y-10476336D01*
X3398440Y-10476336D02*
X3407964Y-10428717D01*
X3407964Y-10428717D02*
X3417488Y-10400146D01*
X3417488Y-10400146D02*
X3427011Y-10381098D01*
X3427011Y-10381098D02*
X3446059Y-10352527D01*
X3446059Y-10352527D02*
X3455583Y-10343003D01*
X3569869Y-10371574D02*
X3588916Y-10371574D01*
X3588916Y-10371574D02*
X3607964Y-10381098D01*
X3607964Y-10381098D02*
X3617488Y-10390622D01*
X3617488Y-10390622D02*
X3627011Y-10409670D01*
X3627011Y-10409670D02*
X3636535Y-10447765D01*
X3636535Y-10447765D02*
X3636535Y-10495384D01*
X3636535Y-10495384D02*
X3627011Y-10533479D01*
X3627011Y-10533479D02*
X3617488Y-10552527D01*
X3617488Y-10552527D02*
X3607964Y-10562051D01*
X3607964Y-10562051D02*
X3588916Y-10571574D01*
X3588916Y-10571574D02*
X3569869Y-10571574D01*
X3569869Y-10571574D02*
X3550821Y-10562051D01*
X3550821Y-10562051D02*
X3541297Y-10552527D01*
X3541297Y-10552527D02*
X3531773Y-10533479D01*
X3531773Y-10533479D02*
X3522250Y-10495384D01*
X3522250Y-10495384D02*
X3522250Y-10447765D01*
X3522250Y-10447765D02*
X3531773Y-10409670D01*
X3531773Y-10409670D02*
X3541297Y-10390622D01*
X3541297Y-10390622D02*
X3550821Y-10381098D01*
X3550821Y-10381098D02*
X3569869Y-10371574D01*
X3842250Y-10571574D02*
X3842250Y-10371574D01*
X3927964Y-10571574D02*
X3927964Y-10466812D01*
X3927964Y-10466812D02*
X3918440Y-10447765D01*
X3918440Y-10447765D02*
X3899392Y-10438241D01*
X3899392Y-10438241D02*
X3870821Y-10438241D01*
X3870821Y-10438241D02*
X3851773Y-10447765D01*
X3851773Y-10447765D02*
X3842250Y-10457289D01*
X4051773Y-10571574D02*
X4032726Y-10562051D01*
X4032726Y-10562051D02*
X4023202Y-10552527D01*
X4023202Y-10552527D02*
X4013678Y-10533479D01*
X4013678Y-10533479D02*
X4013678Y-10476336D01*
X4013678Y-10476336D02*
X4023202Y-10457289D01*
X4023202Y-10457289D02*
X4032726Y-10447765D01*
X4032726Y-10447765D02*
X4051773Y-10438241D01*
X4051773Y-10438241D02*
X4080345Y-10438241D01*
X4080345Y-10438241D02*
X4099392Y-10447765D01*
X4099392Y-10447765D02*
X4108916Y-10457289D01*
X4108916Y-10457289D02*
X4118440Y-10476336D01*
X4118440Y-10476336D02*
X4118440Y-10533479D01*
X4118440Y-10533479D02*
X4108916Y-10552527D01*
X4108916Y-10552527D02*
X4099392Y-10562051D01*
X4099392Y-10562051D02*
X4080345Y-10571574D01*
X4080345Y-10571574D02*
X4051773Y-10571574D01*
X4232726Y-10571574D02*
X4213678Y-10562051D01*
X4213678Y-10562051D02*
X4204154Y-10543003D01*
X4204154Y-10543003D02*
X4204154Y-10371574D01*
X4385107Y-10562051D02*
X4366059Y-10571574D01*
X4366059Y-10571574D02*
X4327964Y-10571574D01*
X4327964Y-10571574D02*
X4308916Y-10562051D01*
X4308916Y-10562051D02*
X4299393Y-10543003D01*
X4299393Y-10543003D02*
X4299393Y-10466812D01*
X4299393Y-10466812D02*
X4308916Y-10447765D01*
X4308916Y-10447765D02*
X4327964Y-10438241D01*
X4327964Y-10438241D02*
X4366059Y-10438241D01*
X4366059Y-10438241D02*
X4385107Y-10447765D01*
X4385107Y-10447765D02*
X4394631Y-10466812D01*
X4394631Y-10466812D02*
X4394631Y-10485860D01*
X4394631Y-10485860D02*
X4299393Y-10504908D01*
X4470821Y-10562051D02*
X4489869Y-10571574D01*
X4489869Y-10571574D02*
X4527964Y-10571574D01*
X4527964Y-10571574D02*
X4547012Y-10562051D01*
X4547012Y-10562051D02*
X4556535Y-10543003D01*
X4556535Y-10543003D02*
X4556535Y-10533479D01*
X4556535Y-10533479D02*
X4547012Y-10514432D01*
X4547012Y-10514432D02*
X4527964Y-10504908D01*
X4527964Y-10504908D02*
X4499393Y-10504908D01*
X4499393Y-10504908D02*
X4480345Y-10495384D01*
X4480345Y-10495384D02*
X4470821Y-10476336D01*
X4470821Y-10476336D02*
X4470821Y-10466812D01*
X4470821Y-10466812D02*
X4480345Y-10447765D01*
X4480345Y-10447765D02*
X4499393Y-10438241D01*
X4499393Y-10438241D02*
X4527964Y-10438241D01*
X4527964Y-10438241D02*
X4547012Y-10447765D01*
X4762250Y-10495384D02*
X4914631Y-10495384D01*
X4838440Y-10571574D02*
X4838440Y-10419193D01*
X5215583Y-10438241D02*
X5215583Y-10571574D01*
X5167964Y-10362051D02*
X5120345Y-10504908D01*
X5120345Y-10504908D02*
X5244154Y-10504908D01*
X5430821Y-10562051D02*
X5449869Y-10571574D01*
X5449869Y-10571574D02*
X5487964Y-10571574D01*
X5487964Y-10571574D02*
X5507012Y-10562051D01*
X5507012Y-10562051D02*
X5516535Y-10543003D01*
X5516535Y-10543003D02*
X5516535Y-10533479D01*
X5516535Y-10533479D02*
X5507012Y-10514432D01*
X5507012Y-10514432D02*
X5487964Y-10504908D01*
X5487964Y-10504908D02*
X5459393Y-10504908D01*
X5459393Y-10504908D02*
X5440345Y-10495384D01*
X5440345Y-10495384D02*
X5430821Y-10476336D01*
X5430821Y-10476336D02*
X5430821Y-10466812D01*
X5430821Y-10466812D02*
X5440345Y-10447765D01*
X5440345Y-10447765D02*
X5459393Y-10438241D01*
X5459393Y-10438241D02*
X5487964Y-10438241D01*
X5487964Y-10438241D02*
X5507012Y-10447765D01*
X5630821Y-10571574D02*
X5611773Y-10562051D01*
X5611773Y-10562051D02*
X5602250Y-10543003D01*
X5602250Y-10543003D02*
X5602250Y-10371574D01*
X5735583Y-10571574D02*
X5716535Y-10562051D01*
X5716535Y-10562051D02*
X5707012Y-10552527D01*
X5707012Y-10552527D02*
X5697488Y-10533479D01*
X5697488Y-10533479D02*
X5697488Y-10476336D01*
X5697488Y-10476336D02*
X5707012Y-10457289D01*
X5707012Y-10457289D02*
X5716535Y-10447765D01*
X5716535Y-10447765D02*
X5735583Y-10438241D01*
X5735583Y-10438241D02*
X5764154Y-10438241D01*
X5764154Y-10438241D02*
X5783202Y-10447765D01*
X5783202Y-10447765D02*
X5792726Y-10457289D01*
X5792726Y-10457289D02*
X5802250Y-10476336D01*
X5802250Y-10476336D02*
X5802250Y-10533479D01*
X5802250Y-10533479D02*
X5792726Y-10552527D01*
X5792726Y-10552527D02*
X5783202Y-10562051D01*
X5783202Y-10562051D02*
X5764154Y-10571574D01*
X5764154Y-10571574D02*
X5735583Y-10571574D01*
X5859393Y-10438241D02*
X5935583Y-10438241D01*
X5887964Y-10371574D02*
X5887964Y-10543003D01*
X5887964Y-10543003D02*
X5897488Y-10562051D01*
X5897488Y-10562051D02*
X5916535Y-10571574D01*
X5916535Y-10571574D02*
X5935583Y-10571574D01*
X5992726Y-10562051D02*
X6011773Y-10571574D01*
X6011773Y-10571574D02*
X6049869Y-10571574D01*
X6049869Y-10571574D02*
X6068916Y-10562051D01*
X6068916Y-10562051D02*
X6078440Y-10543003D01*
X6078440Y-10543003D02*
X6078440Y-10533479D01*
X6078440Y-10533479D02*
X6068916Y-10514432D01*
X6068916Y-10514432D02*
X6049869Y-10504908D01*
X6049869Y-10504908D02*
X6021297Y-10504908D01*
X6021297Y-10504908D02*
X6002250Y-10495384D01*
X6002250Y-10495384D02*
X5992726Y-10476336D01*
X5992726Y-10476336D02*
X5992726Y-10466812D01*
X5992726Y-10466812D02*
X6002250Y-10447765D01*
X6002250Y-10447765D02*
X6021297Y-10438241D01*
X6021297Y-10438241D02*
X6049869Y-10438241D01*
X6049869Y-10438241D02*
X6068916Y-10447765D01*
X6145107Y-10647765D02*
X6154631Y-10638241D01*
X6154631Y-10638241D02*
X6173678Y-10609670D01*
X6173678Y-10609670D02*
X6183202Y-10590622D01*
X6183202Y-10590622D02*
X6192726Y-10562051D01*
X6192726Y-10562051D02*
X6202250Y-10514432D01*
X6202250Y-10514432D02*
X6202250Y-10476336D01*
X6202250Y-10476336D02*
X6192726Y-10428717D01*
X6192726Y-10428717D02*
X6183202Y-10400146D01*
X6183202Y-10400146D02*
X6173678Y-10381098D01*
X6173678Y-10381098D02*
X6154631Y-10352527D01*
X6154631Y-10352527D02*
X6145107Y-10343003D01*
D14*
X-59179Y-10712098D02*
X-59179Y-10812098D01*
X-109179Y-10762098D02*
X-9179Y-10762098D01*
D11*
X343202Y-10835574D02*
X228916Y-10835574D01*
X286059Y-10835574D02*
X286059Y-10635574D01*
X286059Y-10635574D02*
X267011Y-10664146D01*
X267011Y-10664146D02*
X247964Y-10683193D01*
X247964Y-10683193D02*
X228916Y-10692717D01*
X428916Y-10816527D02*
X438440Y-10826051D01*
X438440Y-10826051D02*
X428916Y-10835574D01*
X428916Y-10835574D02*
X419392Y-10826051D01*
X419392Y-10826051D02*
X428916Y-10816527D01*
X428916Y-10816527D02*
X428916Y-10835574D01*
X562249Y-10635574D02*
X581297Y-10635574D01*
X581297Y-10635574D02*
X600345Y-10645098D01*
X600345Y-10645098D02*
X609869Y-10654622D01*
X609869Y-10654622D02*
X619392Y-10673670D01*
X619392Y-10673670D02*
X628916Y-10711765D01*
X628916Y-10711765D02*
X628916Y-10759384D01*
X628916Y-10759384D02*
X619392Y-10797479D01*
X619392Y-10797479D02*
X609869Y-10816527D01*
X609869Y-10816527D02*
X600345Y-10826051D01*
X600345Y-10826051D02*
X581297Y-10835574D01*
X581297Y-10835574D02*
X562249Y-10835574D01*
X562249Y-10835574D02*
X543202Y-10826051D01*
X543202Y-10826051D02*
X533678Y-10816527D01*
X533678Y-10816527D02*
X524154Y-10797479D01*
X524154Y-10797479D02*
X514630Y-10759384D01*
X514630Y-10759384D02*
X514630Y-10711765D01*
X514630Y-10711765D02*
X524154Y-10673670D01*
X524154Y-10673670D02*
X533678Y-10654622D01*
X533678Y-10654622D02*
X543202Y-10645098D01*
X543202Y-10645098D02*
X562249Y-10635574D01*
X752726Y-10635574D02*
X771773Y-10635574D01*
X771773Y-10635574D02*
X790821Y-10645098D01*
X790821Y-10645098D02*
X800345Y-10654622D01*
X800345Y-10654622D02*
X809868Y-10673670D01*
X809868Y-10673670D02*
X819392Y-10711765D01*
X819392Y-10711765D02*
X819392Y-10759384D01*
X819392Y-10759384D02*
X809868Y-10797479D01*
X809868Y-10797479D02*
X800345Y-10816527D01*
X800345Y-10816527D02*
X790821Y-10826051D01*
X790821Y-10826051D02*
X771773Y-10835574D01*
X771773Y-10835574D02*
X752726Y-10835574D01*
X752726Y-10835574D02*
X733678Y-10826051D01*
X733678Y-10826051D02*
X724154Y-10816527D01*
X724154Y-10816527D02*
X714630Y-10797479D01*
X714630Y-10797479D02*
X705107Y-10759384D01*
X705107Y-10759384D02*
X705107Y-10711765D01*
X705107Y-10711765D02*
X714630Y-10673670D01*
X714630Y-10673670D02*
X724154Y-10654622D01*
X724154Y-10654622D02*
X733678Y-10645098D01*
X733678Y-10645098D02*
X752726Y-10635574D01*
X943202Y-10635574D02*
X962249Y-10635574D01*
X962249Y-10635574D02*
X981297Y-10645098D01*
X981297Y-10645098D02*
X990821Y-10654622D01*
X990821Y-10654622D02*
X1000345Y-10673670D01*
X1000345Y-10673670D02*
X1009868Y-10711765D01*
X1009868Y-10711765D02*
X1009868Y-10759384D01*
X1009868Y-10759384D02*
X1000345Y-10797479D01*
X1000345Y-10797479D02*
X990821Y-10816527D01*
X990821Y-10816527D02*
X981297Y-10826051D01*
X981297Y-10826051D02*
X962249Y-10835574D01*
X962249Y-10835574D02*
X943202Y-10835574D01*
X943202Y-10835574D02*
X924154Y-10826051D01*
X924154Y-10826051D02*
X914630Y-10816527D01*
X914630Y-10816527D02*
X905107Y-10797479D01*
X905107Y-10797479D02*
X895583Y-10759384D01*
X895583Y-10759384D02*
X895583Y-10711765D01*
X895583Y-10711765D02*
X905107Y-10673670D01*
X905107Y-10673670D02*
X914630Y-10654622D01*
X914630Y-10654622D02*
X924154Y-10645098D01*
X924154Y-10645098D02*
X943202Y-10635574D01*
X1095583Y-10835574D02*
X1095583Y-10702241D01*
X1095583Y-10721289D02*
X1105107Y-10711765D01*
X1105107Y-10711765D02*
X1124154Y-10702241D01*
X1124154Y-10702241D02*
X1152726Y-10702241D01*
X1152726Y-10702241D02*
X1171773Y-10711765D01*
X1171773Y-10711765D02*
X1181297Y-10730812D01*
X1181297Y-10730812D02*
X1181297Y-10835574D01*
X1181297Y-10730812D02*
X1190821Y-10711765D01*
X1190821Y-10711765D02*
X1209869Y-10702241D01*
X1209869Y-10702241D02*
X1238440Y-10702241D01*
X1238440Y-10702241D02*
X1257488Y-10711765D01*
X1257488Y-10711765D02*
X1267011Y-10730812D01*
X1267011Y-10730812D02*
X1267011Y-10835574D01*
X1362250Y-10835574D02*
X1362250Y-10702241D01*
X1362250Y-10721289D02*
X1371773Y-10711765D01*
X1371773Y-10711765D02*
X1390821Y-10702241D01*
X1390821Y-10702241D02*
X1419392Y-10702241D01*
X1419392Y-10702241D02*
X1438440Y-10711765D01*
X1438440Y-10711765D02*
X1447964Y-10730812D01*
X1447964Y-10730812D02*
X1447964Y-10835574D01*
X1447964Y-10730812D02*
X1457488Y-10711765D01*
X1457488Y-10711765D02*
X1476535Y-10702241D01*
X1476535Y-10702241D02*
X1505107Y-10702241D01*
X1505107Y-10702241D02*
X1524154Y-10711765D01*
X1524154Y-10711765D02*
X1533678Y-10730812D01*
X1533678Y-10730812D02*
X1533678Y-10835574D01*
X1891773Y-10626051D02*
X1720345Y-10883193D01*
X2116535Y-10635574D02*
X2135583Y-10635574D01*
X2135583Y-10635574D02*
X2154631Y-10645098D01*
X2154631Y-10645098D02*
X2164154Y-10654622D01*
X2164154Y-10654622D02*
X2173678Y-10673670D01*
X2173678Y-10673670D02*
X2183202Y-10711765D01*
X2183202Y-10711765D02*
X2183202Y-10759384D01*
X2183202Y-10759384D02*
X2173678Y-10797479D01*
X2173678Y-10797479D02*
X2164154Y-10816527D01*
X2164154Y-10816527D02*
X2154631Y-10826051D01*
X2154631Y-10826051D02*
X2135583Y-10835574D01*
X2135583Y-10835574D02*
X2116535Y-10835574D01*
X2116535Y-10835574D02*
X2097488Y-10826051D01*
X2097488Y-10826051D02*
X2087964Y-10816527D01*
X2087964Y-10816527D02*
X2078440Y-10797479D01*
X2078440Y-10797479D02*
X2068916Y-10759384D01*
X2068916Y-10759384D02*
X2068916Y-10711765D01*
X2068916Y-10711765D02*
X2078440Y-10673670D01*
X2078440Y-10673670D02*
X2087964Y-10654622D01*
X2087964Y-10654622D02*
X2097488Y-10645098D01*
X2097488Y-10645098D02*
X2116535Y-10635574D01*
X2268916Y-10816527D02*
X2278440Y-10826051D01*
X2278440Y-10826051D02*
X2268916Y-10835574D01*
X2268916Y-10835574D02*
X2259392Y-10826051D01*
X2259392Y-10826051D02*
X2268916Y-10816527D01*
X2268916Y-10816527D02*
X2268916Y-10835574D01*
X2402250Y-10635574D02*
X2421297Y-10635574D01*
X2421297Y-10635574D02*
X2440345Y-10645098D01*
X2440345Y-10645098D02*
X2449869Y-10654622D01*
X2449869Y-10654622D02*
X2459392Y-10673670D01*
X2459392Y-10673670D02*
X2468916Y-10711765D01*
X2468916Y-10711765D02*
X2468916Y-10759384D01*
X2468916Y-10759384D02*
X2459392Y-10797479D01*
X2459392Y-10797479D02*
X2449869Y-10816527D01*
X2449869Y-10816527D02*
X2440345Y-10826051D01*
X2440345Y-10826051D02*
X2421297Y-10835574D01*
X2421297Y-10835574D02*
X2402250Y-10835574D01*
X2402250Y-10835574D02*
X2383202Y-10826051D01*
X2383202Y-10826051D02*
X2373678Y-10816527D01*
X2373678Y-10816527D02*
X2364154Y-10797479D01*
X2364154Y-10797479D02*
X2354631Y-10759384D01*
X2354631Y-10759384D02*
X2354631Y-10711765D01*
X2354631Y-10711765D02*
X2364154Y-10673670D01*
X2364154Y-10673670D02*
X2373678Y-10654622D01*
X2373678Y-10654622D02*
X2383202Y-10645098D01*
X2383202Y-10645098D02*
X2402250Y-10635574D01*
X2535583Y-10635574D02*
X2659392Y-10635574D01*
X2659392Y-10635574D02*
X2592726Y-10711765D01*
X2592726Y-10711765D02*
X2621297Y-10711765D01*
X2621297Y-10711765D02*
X2640345Y-10721289D01*
X2640345Y-10721289D02*
X2649869Y-10730812D01*
X2649869Y-10730812D02*
X2659392Y-10749860D01*
X2659392Y-10749860D02*
X2659392Y-10797479D01*
X2659392Y-10797479D02*
X2649869Y-10816527D01*
X2649869Y-10816527D02*
X2640345Y-10826051D01*
X2640345Y-10826051D02*
X2621297Y-10835574D01*
X2621297Y-10835574D02*
X2564154Y-10835574D01*
X2564154Y-10835574D02*
X2545107Y-10826051D01*
X2545107Y-10826051D02*
X2535583Y-10816527D01*
X2754631Y-10835574D02*
X2792726Y-10835574D01*
X2792726Y-10835574D02*
X2811773Y-10826051D01*
X2811773Y-10826051D02*
X2821297Y-10816527D01*
X2821297Y-10816527D02*
X2840345Y-10787955D01*
X2840345Y-10787955D02*
X2849869Y-10749860D01*
X2849869Y-10749860D02*
X2849869Y-10673670D01*
X2849869Y-10673670D02*
X2840345Y-10654622D01*
X2840345Y-10654622D02*
X2830821Y-10645098D01*
X2830821Y-10645098D02*
X2811773Y-10635574D01*
X2811773Y-10635574D02*
X2773678Y-10635574D01*
X2773678Y-10635574D02*
X2754631Y-10645098D01*
X2754631Y-10645098D02*
X2745107Y-10654622D01*
X2745107Y-10654622D02*
X2735583Y-10673670D01*
X2735583Y-10673670D02*
X2735583Y-10721289D01*
X2735583Y-10721289D02*
X2745107Y-10740336D01*
X2745107Y-10740336D02*
X2754631Y-10749860D01*
X2754631Y-10749860D02*
X2773678Y-10759384D01*
X2773678Y-10759384D02*
X2811773Y-10759384D01*
X2811773Y-10759384D02*
X2830821Y-10749860D01*
X2830821Y-10749860D02*
X2840345Y-10740336D01*
X2840345Y-10740336D02*
X2849869Y-10721289D01*
X3021297Y-10702241D02*
X3021297Y-10835574D01*
X2973678Y-10626051D02*
X2926059Y-10768908D01*
X2926059Y-10768908D02*
X3049869Y-10768908D01*
X3116535Y-10635574D02*
X3116535Y-10673670D01*
X3192726Y-10635574D02*
X3192726Y-10673670D01*
X3455583Y-10911765D02*
X3446059Y-10902241D01*
X3446059Y-10902241D02*
X3427011Y-10873670D01*
X3427011Y-10873670D02*
X3417488Y-10854622D01*
X3417488Y-10854622D02*
X3407964Y-10826051D01*
X3407964Y-10826051D02*
X3398440Y-10778432D01*
X3398440Y-10778432D02*
X3398440Y-10740336D01*
X3398440Y-10740336D02*
X3407964Y-10692717D01*
X3407964Y-10692717D02*
X3417488Y-10664146D01*
X3417488Y-10664146D02*
X3427011Y-10645098D01*
X3427011Y-10645098D02*
X3446059Y-10616527D01*
X3446059Y-10616527D02*
X3455583Y-10607003D01*
X3617488Y-10702241D02*
X3617488Y-10835574D01*
X3569869Y-10626051D02*
X3522250Y-10768908D01*
X3522250Y-10768908D02*
X3646059Y-10768908D01*
X3817488Y-10635574D02*
X3722250Y-10635574D01*
X3722250Y-10635574D02*
X3712726Y-10730812D01*
X3712726Y-10730812D02*
X3722250Y-10721289D01*
X3722250Y-10721289D02*
X3741297Y-10711765D01*
X3741297Y-10711765D02*
X3788916Y-10711765D01*
X3788916Y-10711765D02*
X3807964Y-10721289D01*
X3807964Y-10721289D02*
X3817488Y-10730812D01*
X3817488Y-10730812D02*
X3827011Y-10749860D01*
X3827011Y-10749860D02*
X3827011Y-10797479D01*
X3827011Y-10797479D02*
X3817488Y-10816527D01*
X3817488Y-10816527D02*
X3807964Y-10826051D01*
X3807964Y-10826051D02*
X3788916Y-10835574D01*
X3788916Y-10835574D02*
X3741297Y-10835574D01*
X3741297Y-10835574D02*
X3722250Y-10826051D01*
X3722250Y-10826051D02*
X3712726Y-10816527D01*
X4032726Y-10835574D02*
X4032726Y-10635574D01*
X4118440Y-10835574D02*
X4118440Y-10730812D01*
X4118440Y-10730812D02*
X4108916Y-10711765D01*
X4108916Y-10711765D02*
X4089869Y-10702241D01*
X4089869Y-10702241D02*
X4061297Y-10702241D01*
X4061297Y-10702241D02*
X4042250Y-10711765D01*
X4042250Y-10711765D02*
X4032726Y-10721289D01*
X4242250Y-10835574D02*
X4223202Y-10826051D01*
X4223202Y-10826051D02*
X4213678Y-10816527D01*
X4213678Y-10816527D02*
X4204154Y-10797479D01*
X4204154Y-10797479D02*
X4204154Y-10740336D01*
X4204154Y-10740336D02*
X4213678Y-10721289D01*
X4213678Y-10721289D02*
X4223202Y-10711765D01*
X4223202Y-10711765D02*
X4242250Y-10702241D01*
X4242250Y-10702241D02*
X4270821Y-10702241D01*
X4270821Y-10702241D02*
X4289869Y-10711765D01*
X4289869Y-10711765D02*
X4299393Y-10721289D01*
X4299393Y-10721289D02*
X4308916Y-10740336D01*
X4308916Y-10740336D02*
X4308916Y-10797479D01*
X4308916Y-10797479D02*
X4299393Y-10816527D01*
X4299393Y-10816527D02*
X4289869Y-10826051D01*
X4289869Y-10826051D02*
X4270821Y-10835574D01*
X4270821Y-10835574D02*
X4242250Y-10835574D01*
X4423202Y-10835574D02*
X4404154Y-10826051D01*
X4404154Y-10826051D02*
X4394631Y-10807003D01*
X4394631Y-10807003D02*
X4394631Y-10635574D01*
X4575583Y-10826051D02*
X4556535Y-10835574D01*
X4556535Y-10835574D02*
X4518440Y-10835574D01*
X4518440Y-10835574D02*
X4499393Y-10826051D01*
X4499393Y-10826051D02*
X4489869Y-10807003D01*
X4489869Y-10807003D02*
X4489869Y-10730812D01*
X4489869Y-10730812D02*
X4499393Y-10711765D01*
X4499393Y-10711765D02*
X4518440Y-10702241D01*
X4518440Y-10702241D02*
X4556535Y-10702241D01*
X4556535Y-10702241D02*
X4575583Y-10711765D01*
X4575583Y-10711765D02*
X4585107Y-10730812D01*
X4585107Y-10730812D02*
X4585107Y-10749860D01*
X4585107Y-10749860D02*
X4489869Y-10768908D01*
X4661297Y-10826051D02*
X4680345Y-10835574D01*
X4680345Y-10835574D02*
X4718440Y-10835574D01*
X4718440Y-10835574D02*
X4737488Y-10826051D01*
X4737488Y-10826051D02*
X4747012Y-10807003D01*
X4747012Y-10807003D02*
X4747012Y-10797479D01*
X4747012Y-10797479D02*
X4737488Y-10778432D01*
X4737488Y-10778432D02*
X4718440Y-10768908D01*
X4718440Y-10768908D02*
X4689869Y-10768908D01*
X4689869Y-10768908D02*
X4670821Y-10759384D01*
X4670821Y-10759384D02*
X4661297Y-10740336D01*
X4661297Y-10740336D02*
X4661297Y-10730812D01*
X4661297Y-10730812D02*
X4670821Y-10711765D01*
X4670821Y-10711765D02*
X4689869Y-10702241D01*
X4689869Y-10702241D02*
X4718440Y-10702241D01*
X4718440Y-10702241D02*
X4737488Y-10711765D01*
X4813678Y-10911765D02*
X4823202Y-10902241D01*
X4823202Y-10902241D02*
X4842250Y-10873670D01*
X4842250Y-10873670D02*
X4851774Y-10854622D01*
X4851774Y-10854622D02*
X4861297Y-10826051D01*
X4861297Y-10826051D02*
X4870821Y-10778432D01*
X4870821Y-10778432D02*
X4870821Y-10740336D01*
X4870821Y-10740336D02*
X4861297Y-10692717D01*
X4861297Y-10692717D02*
X4851774Y-10664146D01*
X4851774Y-10664146D02*
X4842250Y-10645098D01*
X4842250Y-10645098D02*
X4823202Y-10616527D01*
X4823202Y-10616527D02*
X4813678Y-10607003D01*
X-38468Y-11096810D02*
X-38468Y-10955387D01*
X-179890Y-10955387D01*
X-179890Y-11096810D01*
X-38468Y-11096810D01*
X228916Y-10918622D02*
X238440Y-10909098D01*
X238440Y-10909098D02*
X257487Y-10899574D01*
X257487Y-10899574D02*
X305107Y-10899574D01*
X305107Y-10899574D02*
X324154Y-10909098D01*
X324154Y-10909098D02*
X333678Y-10918622D01*
X333678Y-10918622D02*
X343202Y-10937670D01*
X343202Y-10937670D02*
X343202Y-10956717D01*
X343202Y-10956717D02*
X333678Y-10985289D01*
X333678Y-10985289D02*
X219392Y-11099574D01*
X219392Y-11099574D02*
X343202Y-11099574D01*
X428916Y-11080527D02*
X438440Y-11090051D01*
X438440Y-11090051D02*
X428916Y-11099574D01*
X428916Y-11099574D02*
X419392Y-11090051D01*
X419392Y-11090051D02*
X428916Y-11080527D01*
X428916Y-11080527D02*
X428916Y-11099574D01*
X619392Y-10899574D02*
X524154Y-10899574D01*
X524154Y-10899574D02*
X514630Y-10994812D01*
X514630Y-10994812D02*
X524154Y-10985289D01*
X524154Y-10985289D02*
X543202Y-10975765D01*
X543202Y-10975765D02*
X590821Y-10975765D01*
X590821Y-10975765D02*
X609869Y-10985289D01*
X609869Y-10985289D02*
X619392Y-10994812D01*
X619392Y-10994812D02*
X628916Y-11013860D01*
X628916Y-11013860D02*
X628916Y-11061479D01*
X628916Y-11061479D02*
X619392Y-11080527D01*
X619392Y-11080527D02*
X609869Y-11090051D01*
X609869Y-11090051D02*
X590821Y-11099574D01*
X590821Y-11099574D02*
X543202Y-11099574D01*
X543202Y-11099574D02*
X524154Y-11090051D01*
X524154Y-11090051D02*
X514630Y-11080527D01*
X752726Y-10899574D02*
X771773Y-10899574D01*
X771773Y-10899574D02*
X790821Y-10909098D01*
X790821Y-10909098D02*
X800345Y-10918622D01*
X800345Y-10918622D02*
X809868Y-10937670D01*
X809868Y-10937670D02*
X819392Y-10975765D01*
X819392Y-10975765D02*
X819392Y-11023384D01*
X819392Y-11023384D02*
X809868Y-11061479D01*
X809868Y-11061479D02*
X800345Y-11080527D01*
X800345Y-11080527D02*
X790821Y-11090051D01*
X790821Y-11090051D02*
X771773Y-11099574D01*
X771773Y-11099574D02*
X752726Y-11099574D01*
X752726Y-11099574D02*
X733678Y-11090051D01*
X733678Y-11090051D02*
X724154Y-11080527D01*
X724154Y-11080527D02*
X714630Y-11061479D01*
X714630Y-11061479D02*
X705107Y-11023384D01*
X705107Y-11023384D02*
X705107Y-10975765D01*
X705107Y-10975765D02*
X714630Y-10937670D01*
X714630Y-10937670D02*
X724154Y-10918622D01*
X724154Y-10918622D02*
X733678Y-10909098D01*
X733678Y-10909098D02*
X752726Y-10899574D01*
X943202Y-10899574D02*
X962249Y-10899574D01*
X962249Y-10899574D02*
X981297Y-10909098D01*
X981297Y-10909098D02*
X990821Y-10918622D01*
X990821Y-10918622D02*
X1000345Y-10937670D01*
X1000345Y-10937670D02*
X1009868Y-10975765D01*
X1009868Y-10975765D02*
X1009868Y-11023384D01*
X1009868Y-11023384D02*
X1000345Y-11061479D01*
X1000345Y-11061479D02*
X990821Y-11080527D01*
X990821Y-11080527D02*
X981297Y-11090051D01*
X981297Y-11090051D02*
X962249Y-11099574D01*
X962249Y-11099574D02*
X943202Y-11099574D01*
X943202Y-11099574D02*
X924154Y-11090051D01*
X924154Y-11090051D02*
X914630Y-11080527D01*
X914630Y-11080527D02*
X905107Y-11061479D01*
X905107Y-11061479D02*
X895583Y-11023384D01*
X895583Y-11023384D02*
X895583Y-10975765D01*
X895583Y-10975765D02*
X905107Y-10937670D01*
X905107Y-10937670D02*
X914630Y-10918622D01*
X914630Y-10918622D02*
X924154Y-10909098D01*
X924154Y-10909098D02*
X943202Y-10899574D01*
X1095583Y-11099574D02*
X1095583Y-10966241D01*
X1095583Y-10985289D02*
X1105107Y-10975765D01*
X1105107Y-10975765D02*
X1124154Y-10966241D01*
X1124154Y-10966241D02*
X1152726Y-10966241D01*
X1152726Y-10966241D02*
X1171773Y-10975765D01*
X1171773Y-10975765D02*
X1181297Y-10994812D01*
X1181297Y-10994812D02*
X1181297Y-11099574D01*
X1181297Y-10994812D02*
X1190821Y-10975765D01*
X1190821Y-10975765D02*
X1209869Y-10966241D01*
X1209869Y-10966241D02*
X1238440Y-10966241D01*
X1238440Y-10966241D02*
X1257488Y-10975765D01*
X1257488Y-10975765D02*
X1267011Y-10994812D01*
X1267011Y-10994812D02*
X1267011Y-11099574D01*
X1362250Y-11099574D02*
X1362250Y-10966241D01*
X1362250Y-10985289D02*
X1371773Y-10975765D01*
X1371773Y-10975765D02*
X1390821Y-10966241D01*
X1390821Y-10966241D02*
X1419392Y-10966241D01*
X1419392Y-10966241D02*
X1438440Y-10975765D01*
X1438440Y-10975765D02*
X1447964Y-10994812D01*
X1447964Y-10994812D02*
X1447964Y-11099574D01*
X1447964Y-10994812D02*
X1457488Y-10975765D01*
X1457488Y-10975765D02*
X1476535Y-10966241D01*
X1476535Y-10966241D02*
X1505107Y-10966241D01*
X1505107Y-10966241D02*
X1524154Y-10975765D01*
X1524154Y-10975765D02*
X1533678Y-10994812D01*
X1533678Y-10994812D02*
X1533678Y-11099574D01*
X1891773Y-10890051D02*
X1720345Y-11147193D01*
X2116535Y-10899574D02*
X2135583Y-10899574D01*
X2135583Y-10899574D02*
X2154631Y-10909098D01*
X2154631Y-10909098D02*
X2164154Y-10918622D01*
X2164154Y-10918622D02*
X2173678Y-10937670D01*
X2173678Y-10937670D02*
X2183202Y-10975765D01*
X2183202Y-10975765D02*
X2183202Y-11023384D01*
X2183202Y-11023384D02*
X2173678Y-11061479D01*
X2173678Y-11061479D02*
X2164154Y-11080527D01*
X2164154Y-11080527D02*
X2154631Y-11090051D01*
X2154631Y-11090051D02*
X2135583Y-11099574D01*
X2135583Y-11099574D02*
X2116535Y-11099574D01*
X2116535Y-11099574D02*
X2097488Y-11090051D01*
X2097488Y-11090051D02*
X2087964Y-11080527D01*
X2087964Y-11080527D02*
X2078440Y-11061479D01*
X2078440Y-11061479D02*
X2068916Y-11023384D01*
X2068916Y-11023384D02*
X2068916Y-10975765D01*
X2068916Y-10975765D02*
X2078440Y-10937670D01*
X2078440Y-10937670D02*
X2087964Y-10918622D01*
X2087964Y-10918622D02*
X2097488Y-10909098D01*
X2097488Y-10909098D02*
X2116535Y-10899574D01*
X2268916Y-11080527D02*
X2278440Y-11090051D01*
X2278440Y-11090051D02*
X2268916Y-11099574D01*
X2268916Y-11099574D02*
X2259392Y-11090051D01*
X2259392Y-11090051D02*
X2268916Y-11080527D01*
X2268916Y-11080527D02*
X2268916Y-11099574D01*
X2402250Y-10899574D02*
X2421297Y-10899574D01*
X2421297Y-10899574D02*
X2440345Y-10909098D01*
X2440345Y-10909098D02*
X2449869Y-10918622D01*
X2449869Y-10918622D02*
X2459392Y-10937670D01*
X2459392Y-10937670D02*
X2468916Y-10975765D01*
X2468916Y-10975765D02*
X2468916Y-11023384D01*
X2468916Y-11023384D02*
X2459392Y-11061479D01*
X2459392Y-11061479D02*
X2449869Y-11080527D01*
X2449869Y-11080527D02*
X2440345Y-11090051D01*
X2440345Y-11090051D02*
X2421297Y-11099574D01*
X2421297Y-11099574D02*
X2402250Y-11099574D01*
X2402250Y-11099574D02*
X2383202Y-11090051D01*
X2383202Y-11090051D02*
X2373678Y-11080527D01*
X2373678Y-11080527D02*
X2364154Y-11061479D01*
X2364154Y-11061479D02*
X2354631Y-11023384D01*
X2354631Y-11023384D02*
X2354631Y-10975765D01*
X2354631Y-10975765D02*
X2364154Y-10937670D01*
X2364154Y-10937670D02*
X2373678Y-10918622D01*
X2373678Y-10918622D02*
X2383202Y-10909098D01*
X2383202Y-10909098D02*
X2402250Y-10899574D01*
X2564154Y-11099574D02*
X2602250Y-11099574D01*
X2602250Y-11099574D02*
X2621297Y-11090051D01*
X2621297Y-11090051D02*
X2630821Y-11080527D01*
X2630821Y-11080527D02*
X2649869Y-11051955D01*
X2649869Y-11051955D02*
X2659392Y-11013860D01*
X2659392Y-11013860D02*
X2659392Y-10937670D01*
X2659392Y-10937670D02*
X2649869Y-10918622D01*
X2649869Y-10918622D02*
X2640345Y-10909098D01*
X2640345Y-10909098D02*
X2621297Y-10899574D01*
X2621297Y-10899574D02*
X2583202Y-10899574D01*
X2583202Y-10899574D02*
X2564154Y-10909098D01*
X2564154Y-10909098D02*
X2554631Y-10918622D01*
X2554631Y-10918622D02*
X2545107Y-10937670D01*
X2545107Y-10937670D02*
X2545107Y-10985289D01*
X2545107Y-10985289D02*
X2554631Y-11004336D01*
X2554631Y-11004336D02*
X2564154Y-11013860D01*
X2564154Y-11013860D02*
X2583202Y-11023384D01*
X2583202Y-11023384D02*
X2621297Y-11023384D01*
X2621297Y-11023384D02*
X2640345Y-11013860D01*
X2640345Y-11013860D02*
X2649869Y-11004336D01*
X2649869Y-11004336D02*
X2659392Y-10985289D01*
X2773678Y-10985289D02*
X2754631Y-10975765D01*
X2754631Y-10975765D02*
X2745107Y-10966241D01*
X2745107Y-10966241D02*
X2735583Y-10947193D01*
X2735583Y-10947193D02*
X2735583Y-10937670D01*
X2735583Y-10937670D02*
X2745107Y-10918622D01*
X2745107Y-10918622D02*
X2754631Y-10909098D01*
X2754631Y-10909098D02*
X2773678Y-10899574D01*
X2773678Y-10899574D02*
X2811773Y-10899574D01*
X2811773Y-10899574D02*
X2830821Y-10909098D01*
X2830821Y-10909098D02*
X2840345Y-10918622D01*
X2840345Y-10918622D02*
X2849869Y-10937670D01*
X2849869Y-10937670D02*
X2849869Y-10947193D01*
X2849869Y-10947193D02*
X2840345Y-10966241D01*
X2840345Y-10966241D02*
X2830821Y-10975765D01*
X2830821Y-10975765D02*
X2811773Y-10985289D01*
X2811773Y-10985289D02*
X2773678Y-10985289D01*
X2773678Y-10985289D02*
X2754631Y-10994812D01*
X2754631Y-10994812D02*
X2745107Y-11004336D01*
X2745107Y-11004336D02*
X2735583Y-11023384D01*
X2735583Y-11023384D02*
X2735583Y-11061479D01*
X2735583Y-11061479D02*
X2745107Y-11080527D01*
X2745107Y-11080527D02*
X2754631Y-11090051D01*
X2754631Y-11090051D02*
X2773678Y-11099574D01*
X2773678Y-11099574D02*
X2811773Y-11099574D01*
X2811773Y-11099574D02*
X2830821Y-11090051D01*
X2830821Y-11090051D02*
X2840345Y-11080527D01*
X2840345Y-11080527D02*
X2849869Y-11061479D01*
X2849869Y-11061479D02*
X2849869Y-11023384D01*
X2849869Y-11023384D02*
X2840345Y-11004336D01*
X2840345Y-11004336D02*
X2830821Y-10994812D01*
X2830821Y-10994812D02*
X2811773Y-10985289D01*
X3021297Y-10966241D02*
X3021297Y-11099574D01*
X2973678Y-10890051D02*
X2926059Y-11032908D01*
X2926059Y-11032908D02*
X3049869Y-11032908D01*
X3116535Y-10899574D02*
X3116535Y-10937670D01*
X3192726Y-10899574D02*
X3192726Y-10937670D01*
X3455583Y-11175765D02*
X3446059Y-11166241D01*
X3446059Y-11166241D02*
X3427011Y-11137670D01*
X3427011Y-11137670D02*
X3417488Y-11118622D01*
X3417488Y-11118622D02*
X3407964Y-11090051D01*
X3407964Y-11090051D02*
X3398440Y-11042432D01*
X3398440Y-11042432D02*
X3398440Y-11004336D01*
X3398440Y-11004336D02*
X3407964Y-10956717D01*
X3407964Y-10956717D02*
X3417488Y-10928146D01*
X3417488Y-10928146D02*
X3427011Y-10909098D01*
X3427011Y-10909098D02*
X3446059Y-10880527D01*
X3446059Y-10880527D02*
X3455583Y-10871003D01*
X3569869Y-10899574D02*
X3588916Y-10899574D01*
X3588916Y-10899574D02*
X3607964Y-10909098D01*
X3607964Y-10909098D02*
X3617488Y-10918622D01*
X3617488Y-10918622D02*
X3627011Y-10937670D01*
X3627011Y-10937670D02*
X3636535Y-10975765D01*
X3636535Y-10975765D02*
X3636535Y-11023384D01*
X3636535Y-11023384D02*
X3627011Y-11061479D01*
X3627011Y-11061479D02*
X3617488Y-11080527D01*
X3617488Y-11080527D02*
X3607964Y-11090051D01*
X3607964Y-11090051D02*
X3588916Y-11099574D01*
X3588916Y-11099574D02*
X3569869Y-11099574D01*
X3569869Y-11099574D02*
X3550821Y-11090051D01*
X3550821Y-11090051D02*
X3541297Y-11080527D01*
X3541297Y-11080527D02*
X3531773Y-11061479D01*
X3531773Y-11061479D02*
X3522250Y-11023384D01*
X3522250Y-11023384D02*
X3522250Y-10975765D01*
X3522250Y-10975765D02*
X3531773Y-10937670D01*
X3531773Y-10937670D02*
X3541297Y-10918622D01*
X3541297Y-10918622D02*
X3550821Y-10909098D01*
X3550821Y-10909098D02*
X3569869Y-10899574D01*
X3842250Y-11099574D02*
X3842250Y-10899574D01*
X3927964Y-11099574D02*
X3927964Y-10994812D01*
X3927964Y-10994812D02*
X3918440Y-10975765D01*
X3918440Y-10975765D02*
X3899392Y-10966241D01*
X3899392Y-10966241D02*
X3870821Y-10966241D01*
X3870821Y-10966241D02*
X3851773Y-10975765D01*
X3851773Y-10975765D02*
X3842250Y-10985289D01*
X4051773Y-11099574D02*
X4032726Y-11090051D01*
X4032726Y-11090051D02*
X4023202Y-11080527D01*
X4023202Y-11080527D02*
X4013678Y-11061479D01*
X4013678Y-11061479D02*
X4013678Y-11004336D01*
X4013678Y-11004336D02*
X4023202Y-10985289D01*
X4023202Y-10985289D02*
X4032726Y-10975765D01*
X4032726Y-10975765D02*
X4051773Y-10966241D01*
X4051773Y-10966241D02*
X4080345Y-10966241D01*
X4080345Y-10966241D02*
X4099392Y-10975765D01*
X4099392Y-10975765D02*
X4108916Y-10985289D01*
X4108916Y-10985289D02*
X4118440Y-11004336D01*
X4118440Y-11004336D02*
X4118440Y-11061479D01*
X4118440Y-11061479D02*
X4108916Y-11080527D01*
X4108916Y-11080527D02*
X4099392Y-11090051D01*
X4099392Y-11090051D02*
X4080345Y-11099574D01*
X4080345Y-11099574D02*
X4051773Y-11099574D01*
X4232726Y-11099574D02*
X4213678Y-11090051D01*
X4213678Y-11090051D02*
X4204154Y-11071003D01*
X4204154Y-11071003D02*
X4204154Y-10899574D01*
X4385107Y-11090051D02*
X4366059Y-11099574D01*
X4366059Y-11099574D02*
X4327964Y-11099574D01*
X4327964Y-11099574D02*
X4308916Y-11090051D01*
X4308916Y-11090051D02*
X4299393Y-11071003D01*
X4299393Y-11071003D02*
X4299393Y-10994812D01*
X4299393Y-10994812D02*
X4308916Y-10975765D01*
X4308916Y-10975765D02*
X4327964Y-10966241D01*
X4327964Y-10966241D02*
X4366059Y-10966241D01*
X4366059Y-10966241D02*
X4385107Y-10975765D01*
X4385107Y-10975765D02*
X4394631Y-10994812D01*
X4394631Y-10994812D02*
X4394631Y-11013860D01*
X4394631Y-11013860D02*
X4299393Y-11032908D01*
X4470821Y-11090051D02*
X4489869Y-11099574D01*
X4489869Y-11099574D02*
X4527964Y-11099574D01*
X4527964Y-11099574D02*
X4547012Y-11090051D01*
X4547012Y-11090051D02*
X4556535Y-11071003D01*
X4556535Y-11071003D02*
X4556535Y-11061479D01*
X4556535Y-11061479D02*
X4547012Y-11042432D01*
X4547012Y-11042432D02*
X4527964Y-11032908D01*
X4527964Y-11032908D02*
X4499393Y-11032908D01*
X4499393Y-11032908D02*
X4480345Y-11023384D01*
X4480345Y-11023384D02*
X4470821Y-11004336D01*
X4470821Y-11004336D02*
X4470821Y-10994812D01*
X4470821Y-10994812D02*
X4480345Y-10975765D01*
X4480345Y-10975765D02*
X4499393Y-10966241D01*
X4499393Y-10966241D02*
X4527964Y-10966241D01*
X4527964Y-10966241D02*
X4547012Y-10975765D01*
X4762250Y-11023384D02*
X4914631Y-11023384D01*
X4838440Y-11099574D02*
X4838440Y-10947193D01*
X5215583Y-10899574D02*
X5177488Y-10899574D01*
X5177488Y-10899574D02*
X5158440Y-10909098D01*
X5158440Y-10909098D02*
X5148916Y-10918622D01*
X5148916Y-10918622D02*
X5129869Y-10947193D01*
X5129869Y-10947193D02*
X5120345Y-10985289D01*
X5120345Y-10985289D02*
X5120345Y-11061479D01*
X5120345Y-11061479D02*
X5129869Y-11080527D01*
X5129869Y-11080527D02*
X5139393Y-11090051D01*
X5139393Y-11090051D02*
X5158440Y-11099574D01*
X5158440Y-11099574D02*
X5196535Y-11099574D01*
X5196535Y-11099574D02*
X5215583Y-11090051D01*
X5215583Y-11090051D02*
X5225107Y-11080527D01*
X5225107Y-11080527D02*
X5234631Y-11061479D01*
X5234631Y-11061479D02*
X5234631Y-11013860D01*
X5234631Y-11013860D02*
X5225107Y-10994812D01*
X5225107Y-10994812D02*
X5215583Y-10985289D01*
X5215583Y-10985289D02*
X5196535Y-10975765D01*
X5196535Y-10975765D02*
X5158440Y-10975765D01*
X5158440Y-10975765D02*
X5139393Y-10985289D01*
X5139393Y-10985289D02*
X5129869Y-10994812D01*
X5129869Y-10994812D02*
X5120345Y-11013860D01*
X5430821Y-11090051D02*
X5449869Y-11099574D01*
X5449869Y-11099574D02*
X5487964Y-11099574D01*
X5487964Y-11099574D02*
X5507012Y-11090051D01*
X5507012Y-11090051D02*
X5516535Y-11071003D01*
X5516535Y-11071003D02*
X5516535Y-11061479D01*
X5516535Y-11061479D02*
X5507012Y-11042432D01*
X5507012Y-11042432D02*
X5487964Y-11032908D01*
X5487964Y-11032908D02*
X5459393Y-11032908D01*
X5459393Y-11032908D02*
X5440345Y-11023384D01*
X5440345Y-11023384D02*
X5430821Y-11004336D01*
X5430821Y-11004336D02*
X5430821Y-10994812D01*
X5430821Y-10994812D02*
X5440345Y-10975765D01*
X5440345Y-10975765D02*
X5459393Y-10966241D01*
X5459393Y-10966241D02*
X5487964Y-10966241D01*
X5487964Y-10966241D02*
X5507012Y-10975765D01*
X5630821Y-11099574D02*
X5611773Y-11090051D01*
X5611773Y-11090051D02*
X5602250Y-11071003D01*
X5602250Y-11071003D02*
X5602250Y-10899574D01*
X5735583Y-11099574D02*
X5716535Y-11090051D01*
X5716535Y-11090051D02*
X5707012Y-11080527D01*
X5707012Y-11080527D02*
X5697488Y-11061479D01*
X5697488Y-11061479D02*
X5697488Y-11004336D01*
X5697488Y-11004336D02*
X5707012Y-10985289D01*
X5707012Y-10985289D02*
X5716535Y-10975765D01*
X5716535Y-10975765D02*
X5735583Y-10966241D01*
X5735583Y-10966241D02*
X5764154Y-10966241D01*
X5764154Y-10966241D02*
X5783202Y-10975765D01*
X5783202Y-10975765D02*
X5792726Y-10985289D01*
X5792726Y-10985289D02*
X5802250Y-11004336D01*
X5802250Y-11004336D02*
X5802250Y-11061479D01*
X5802250Y-11061479D02*
X5792726Y-11080527D01*
X5792726Y-11080527D02*
X5783202Y-11090051D01*
X5783202Y-11090051D02*
X5764154Y-11099574D01*
X5764154Y-11099574D02*
X5735583Y-11099574D01*
X5859393Y-10966241D02*
X5935583Y-10966241D01*
X5887964Y-10899574D02*
X5887964Y-11071003D01*
X5887964Y-11071003D02*
X5897488Y-11090051D01*
X5897488Y-11090051D02*
X5916535Y-11099574D01*
X5916535Y-11099574D02*
X5935583Y-11099574D01*
X5992726Y-11090051D02*
X6011773Y-11099574D01*
X6011773Y-11099574D02*
X6049869Y-11099574D01*
X6049869Y-11099574D02*
X6068916Y-11090051D01*
X6068916Y-11090051D02*
X6078440Y-11071003D01*
X6078440Y-11071003D02*
X6078440Y-11061479D01*
X6078440Y-11061479D02*
X6068916Y-11042432D01*
X6068916Y-11042432D02*
X6049869Y-11032908D01*
X6049869Y-11032908D02*
X6021297Y-11032908D01*
X6021297Y-11032908D02*
X6002250Y-11023384D01*
X6002250Y-11023384D02*
X5992726Y-11004336D01*
X5992726Y-11004336D02*
X5992726Y-10994812D01*
X5992726Y-10994812D02*
X6002250Y-10975765D01*
X6002250Y-10975765D02*
X6021297Y-10966241D01*
X6021297Y-10966241D02*
X6049869Y-10966241D01*
X6049869Y-10966241D02*
X6068916Y-10975765D01*
X6145107Y-11175765D02*
X6154631Y-11166241D01*
X6154631Y-11166241D02*
X6173678Y-11137670D01*
X6173678Y-11137670D02*
X6183202Y-11118622D01*
X6183202Y-11118622D02*
X6192726Y-11090051D01*
X6192726Y-11090051D02*
X6202250Y-11042432D01*
X6202250Y-11042432D02*
X6202250Y-11004336D01*
X6202250Y-11004336D02*
X6192726Y-10956717D01*
X6192726Y-10956717D02*
X6183202Y-10928146D01*
X6183202Y-10928146D02*
X6173678Y-10909098D01*
X6173678Y-10909098D02*
X6154631Y-10880527D01*
X6154631Y-10880527D02*
X6145107Y-10871003D01*
X-109179Y-11446098D02*
X-9179Y-11346098D01*
X-109179Y-11246098D01*
X-209179Y-11346098D01*
X-109179Y-11446098D01*
X219392Y-11219574D02*
X343202Y-11219574D01*
X343202Y-11219574D02*
X276535Y-11295765D01*
X276535Y-11295765D02*
X305107Y-11295765D01*
X305107Y-11295765D02*
X324154Y-11305289D01*
X324154Y-11305289D02*
X333678Y-11314812D01*
X333678Y-11314812D02*
X343202Y-11333860D01*
X343202Y-11333860D02*
X343202Y-11381479D01*
X343202Y-11381479D02*
X333678Y-11400527D01*
X333678Y-11400527D02*
X324154Y-11410050D01*
X324154Y-11410050D02*
X305107Y-11419574D01*
X305107Y-11419574D02*
X247964Y-11419574D01*
X247964Y-11419574D02*
X228916Y-11410050D01*
X228916Y-11410050D02*
X219392Y-11400527D01*
X428916Y-11400527D02*
X438440Y-11410050D01*
X438440Y-11410050D02*
X428916Y-11419574D01*
X428916Y-11419574D02*
X419392Y-11410050D01*
X419392Y-11410050D02*
X428916Y-11400527D01*
X428916Y-11400527D02*
X428916Y-11419574D01*
X562249Y-11219574D02*
X581297Y-11219574D01*
X581297Y-11219574D02*
X600345Y-11229098D01*
X600345Y-11229098D02*
X609869Y-11238622D01*
X609869Y-11238622D02*
X619392Y-11257670D01*
X619392Y-11257670D02*
X628916Y-11295765D01*
X628916Y-11295765D02*
X628916Y-11343384D01*
X628916Y-11343384D02*
X619392Y-11381479D01*
X619392Y-11381479D02*
X609869Y-11400527D01*
X609869Y-11400527D02*
X600345Y-11410050D01*
X600345Y-11410050D02*
X581297Y-11419574D01*
X581297Y-11419574D02*
X562249Y-11419574D01*
X562249Y-11419574D02*
X543202Y-11410050D01*
X543202Y-11410050D02*
X533678Y-11400527D01*
X533678Y-11400527D02*
X524154Y-11381479D01*
X524154Y-11381479D02*
X514630Y-11343384D01*
X514630Y-11343384D02*
X514630Y-11295765D01*
X514630Y-11295765D02*
X524154Y-11257670D01*
X524154Y-11257670D02*
X533678Y-11238622D01*
X533678Y-11238622D02*
X543202Y-11229098D01*
X543202Y-11229098D02*
X562249Y-11219574D01*
X752726Y-11219574D02*
X771773Y-11219574D01*
X771773Y-11219574D02*
X790821Y-11229098D01*
X790821Y-11229098D02*
X800345Y-11238622D01*
X800345Y-11238622D02*
X809868Y-11257670D01*
X809868Y-11257670D02*
X819392Y-11295765D01*
X819392Y-11295765D02*
X819392Y-11343384D01*
X819392Y-11343384D02*
X809868Y-11381479D01*
X809868Y-11381479D02*
X800345Y-11400527D01*
X800345Y-11400527D02*
X790821Y-11410050D01*
X790821Y-11410050D02*
X771773Y-11419574D01*
X771773Y-11419574D02*
X752726Y-11419574D01*
X752726Y-11419574D02*
X733678Y-11410050D01*
X733678Y-11410050D02*
X724154Y-11400527D01*
X724154Y-11400527D02*
X714630Y-11381479D01*
X714630Y-11381479D02*
X705107Y-11343384D01*
X705107Y-11343384D02*
X705107Y-11295765D01*
X705107Y-11295765D02*
X714630Y-11257670D01*
X714630Y-11257670D02*
X724154Y-11238622D01*
X724154Y-11238622D02*
X733678Y-11229098D01*
X733678Y-11229098D02*
X752726Y-11219574D01*
X943202Y-11219574D02*
X962249Y-11219574D01*
X962249Y-11219574D02*
X981297Y-11229098D01*
X981297Y-11229098D02*
X990821Y-11238622D01*
X990821Y-11238622D02*
X1000345Y-11257670D01*
X1000345Y-11257670D02*
X1009868Y-11295765D01*
X1009868Y-11295765D02*
X1009868Y-11343384D01*
X1009868Y-11343384D02*
X1000345Y-11381479D01*
X1000345Y-11381479D02*
X990821Y-11400527D01*
X990821Y-11400527D02*
X981297Y-11410050D01*
X981297Y-11410050D02*
X962249Y-11419574D01*
X962249Y-11419574D02*
X943202Y-11419574D01*
X943202Y-11419574D02*
X924154Y-11410050D01*
X924154Y-11410050D02*
X914630Y-11400527D01*
X914630Y-11400527D02*
X905107Y-11381479D01*
X905107Y-11381479D02*
X895583Y-11343384D01*
X895583Y-11343384D02*
X895583Y-11295765D01*
X895583Y-11295765D02*
X905107Y-11257670D01*
X905107Y-11257670D02*
X914630Y-11238622D01*
X914630Y-11238622D02*
X924154Y-11229098D01*
X924154Y-11229098D02*
X943202Y-11219574D01*
X1095583Y-11419574D02*
X1095583Y-11286241D01*
X1095583Y-11305289D02*
X1105107Y-11295765D01*
X1105107Y-11295765D02*
X1124154Y-11286241D01*
X1124154Y-11286241D02*
X1152726Y-11286241D01*
X1152726Y-11286241D02*
X1171773Y-11295765D01*
X1171773Y-11295765D02*
X1181297Y-11314812D01*
X1181297Y-11314812D02*
X1181297Y-11419574D01*
X1181297Y-11314812D02*
X1190821Y-11295765D01*
X1190821Y-11295765D02*
X1209869Y-11286241D01*
X1209869Y-11286241D02*
X1238440Y-11286241D01*
X1238440Y-11286241D02*
X1257488Y-11295765D01*
X1257488Y-11295765D02*
X1267011Y-11314812D01*
X1267011Y-11314812D02*
X1267011Y-11419574D01*
X1362250Y-11419574D02*
X1362250Y-11286241D01*
X1362250Y-11305289D02*
X1371773Y-11295765D01*
X1371773Y-11295765D02*
X1390821Y-11286241D01*
X1390821Y-11286241D02*
X1419392Y-11286241D01*
X1419392Y-11286241D02*
X1438440Y-11295765D01*
X1438440Y-11295765D02*
X1447964Y-11314812D01*
X1447964Y-11314812D02*
X1447964Y-11419574D01*
X1447964Y-11314812D02*
X1457488Y-11295765D01*
X1457488Y-11295765D02*
X1476535Y-11286241D01*
X1476535Y-11286241D02*
X1505107Y-11286241D01*
X1505107Y-11286241D02*
X1524154Y-11295765D01*
X1524154Y-11295765D02*
X1533678Y-11314812D01*
X1533678Y-11314812D02*
X1533678Y-11419574D01*
X1891773Y-11210050D02*
X1720345Y-11467193D01*
X2116535Y-11219574D02*
X2135583Y-11219574D01*
X2135583Y-11219574D02*
X2154631Y-11229098D01*
X2154631Y-11229098D02*
X2164154Y-11238622D01*
X2164154Y-11238622D02*
X2173678Y-11257670D01*
X2173678Y-11257670D02*
X2183202Y-11295765D01*
X2183202Y-11295765D02*
X2183202Y-11343384D01*
X2183202Y-11343384D02*
X2173678Y-11381479D01*
X2173678Y-11381479D02*
X2164154Y-11400527D01*
X2164154Y-11400527D02*
X2154631Y-11410050D01*
X2154631Y-11410050D02*
X2135583Y-11419574D01*
X2135583Y-11419574D02*
X2116535Y-11419574D01*
X2116535Y-11419574D02*
X2097488Y-11410050D01*
X2097488Y-11410050D02*
X2087964Y-11400527D01*
X2087964Y-11400527D02*
X2078440Y-11381479D01*
X2078440Y-11381479D02*
X2068916Y-11343384D01*
X2068916Y-11343384D02*
X2068916Y-11295765D01*
X2068916Y-11295765D02*
X2078440Y-11257670D01*
X2078440Y-11257670D02*
X2087964Y-11238622D01*
X2087964Y-11238622D02*
X2097488Y-11229098D01*
X2097488Y-11229098D02*
X2116535Y-11219574D01*
X2268916Y-11400527D02*
X2278440Y-11410050D01*
X2278440Y-11410050D02*
X2268916Y-11419574D01*
X2268916Y-11419574D02*
X2259392Y-11410050D01*
X2259392Y-11410050D02*
X2268916Y-11400527D01*
X2268916Y-11400527D02*
X2268916Y-11419574D01*
X2468916Y-11419574D02*
X2354631Y-11419574D01*
X2411773Y-11419574D02*
X2411773Y-11219574D01*
X2411773Y-11219574D02*
X2392726Y-11248146D01*
X2392726Y-11248146D02*
X2373678Y-11267193D01*
X2373678Y-11267193D02*
X2354631Y-11276717D01*
X2659392Y-11419574D02*
X2545107Y-11419574D01*
X2602250Y-11419574D02*
X2602250Y-11219574D01*
X2602250Y-11219574D02*
X2583202Y-11248146D01*
X2583202Y-11248146D02*
X2564154Y-11267193D01*
X2564154Y-11267193D02*
X2545107Y-11276717D01*
X2773678Y-11305289D02*
X2754631Y-11295765D01*
X2754631Y-11295765D02*
X2745107Y-11286241D01*
X2745107Y-11286241D02*
X2735583Y-11267193D01*
X2735583Y-11267193D02*
X2735583Y-11257670D01*
X2735583Y-11257670D02*
X2745107Y-11238622D01*
X2745107Y-11238622D02*
X2754631Y-11229098D01*
X2754631Y-11229098D02*
X2773678Y-11219574D01*
X2773678Y-11219574D02*
X2811773Y-11219574D01*
X2811773Y-11219574D02*
X2830821Y-11229098D01*
X2830821Y-11229098D02*
X2840345Y-11238622D01*
X2840345Y-11238622D02*
X2849869Y-11257670D01*
X2849869Y-11257670D02*
X2849869Y-11267193D01*
X2849869Y-11267193D02*
X2840345Y-11286241D01*
X2840345Y-11286241D02*
X2830821Y-11295765D01*
X2830821Y-11295765D02*
X2811773Y-11305289D01*
X2811773Y-11305289D02*
X2773678Y-11305289D01*
X2773678Y-11305289D02*
X2754631Y-11314812D01*
X2754631Y-11314812D02*
X2745107Y-11324336D01*
X2745107Y-11324336D02*
X2735583Y-11343384D01*
X2735583Y-11343384D02*
X2735583Y-11381479D01*
X2735583Y-11381479D02*
X2745107Y-11400527D01*
X2745107Y-11400527D02*
X2754631Y-11410050D01*
X2754631Y-11410050D02*
X2773678Y-11419574D01*
X2773678Y-11419574D02*
X2811773Y-11419574D01*
X2811773Y-11419574D02*
X2830821Y-11410050D01*
X2830821Y-11410050D02*
X2840345Y-11400527D01*
X2840345Y-11400527D02*
X2849869Y-11381479D01*
X2849869Y-11381479D02*
X2849869Y-11343384D01*
X2849869Y-11343384D02*
X2840345Y-11324336D01*
X2840345Y-11324336D02*
X2830821Y-11314812D01*
X2830821Y-11314812D02*
X2811773Y-11305289D01*
X3040345Y-11419574D02*
X2926059Y-11419574D01*
X2983202Y-11419574D02*
X2983202Y-11219574D01*
X2983202Y-11219574D02*
X2964154Y-11248146D01*
X2964154Y-11248146D02*
X2945107Y-11267193D01*
X2945107Y-11267193D02*
X2926059Y-11276717D01*
X3116535Y-11219574D02*
X3116535Y-11257670D01*
X3192726Y-11219574D02*
X3192726Y-11257670D01*
X3455583Y-11495765D02*
X3446059Y-11486241D01*
X3446059Y-11486241D02*
X3427011Y-11457670D01*
X3427011Y-11457670D02*
X3417488Y-11438622D01*
X3417488Y-11438622D02*
X3407964Y-11410050D01*
X3407964Y-11410050D02*
X3398440Y-11362431D01*
X3398440Y-11362431D02*
X3398440Y-11324336D01*
X3398440Y-11324336D02*
X3407964Y-11276717D01*
X3407964Y-11276717D02*
X3417488Y-11248146D01*
X3417488Y-11248146D02*
X3427011Y-11229098D01*
X3427011Y-11229098D02*
X3446059Y-11200527D01*
X3446059Y-11200527D02*
X3455583Y-11191003D01*
X3636535Y-11419574D02*
X3522250Y-11419574D01*
X3579392Y-11419574D02*
X3579392Y-11219574D01*
X3579392Y-11219574D02*
X3560345Y-11248146D01*
X3560345Y-11248146D02*
X3541297Y-11267193D01*
X3541297Y-11267193D02*
X3522250Y-11276717D01*
X3760345Y-11219574D02*
X3779392Y-11219574D01*
X3779392Y-11219574D02*
X3798440Y-11229098D01*
X3798440Y-11229098D02*
X3807964Y-11238622D01*
X3807964Y-11238622D02*
X3817488Y-11257670D01*
X3817488Y-11257670D02*
X3827011Y-11295765D01*
X3827011Y-11295765D02*
X3827011Y-11343384D01*
X3827011Y-11343384D02*
X3817488Y-11381479D01*
X3817488Y-11381479D02*
X3807964Y-11400527D01*
X3807964Y-11400527D02*
X3798440Y-11410050D01*
X3798440Y-11410050D02*
X3779392Y-11419574D01*
X3779392Y-11419574D02*
X3760345Y-11419574D01*
X3760345Y-11419574D02*
X3741297Y-11410050D01*
X3741297Y-11410050D02*
X3731773Y-11400527D01*
X3731773Y-11400527D02*
X3722250Y-11381479D01*
X3722250Y-11381479D02*
X3712726Y-11343384D01*
X3712726Y-11343384D02*
X3712726Y-11295765D01*
X3712726Y-11295765D02*
X3722250Y-11257670D01*
X3722250Y-11257670D02*
X3731773Y-11238622D01*
X3731773Y-11238622D02*
X3741297Y-11229098D01*
X3741297Y-11229098D02*
X3760345Y-11219574D01*
X3998440Y-11286241D02*
X3998440Y-11419574D01*
X3950821Y-11210050D02*
X3903202Y-11352908D01*
X3903202Y-11352908D02*
X4027011Y-11352908D01*
X4223202Y-11419574D02*
X4223202Y-11219574D01*
X4308916Y-11419574D02*
X4308916Y-11314812D01*
X4308916Y-11314812D02*
X4299393Y-11295765D01*
X4299393Y-11295765D02*
X4280345Y-11286241D01*
X4280345Y-11286241D02*
X4251773Y-11286241D01*
X4251773Y-11286241D02*
X4232726Y-11295765D01*
X4232726Y-11295765D02*
X4223202Y-11305289D01*
X4432726Y-11419574D02*
X4413678Y-11410050D01*
X4413678Y-11410050D02*
X4404154Y-11400527D01*
X4404154Y-11400527D02*
X4394631Y-11381479D01*
X4394631Y-11381479D02*
X4394631Y-11324336D01*
X4394631Y-11324336D02*
X4404154Y-11305289D01*
X4404154Y-11305289D02*
X4413678Y-11295765D01*
X4413678Y-11295765D02*
X4432726Y-11286241D01*
X4432726Y-11286241D02*
X4461297Y-11286241D01*
X4461297Y-11286241D02*
X4480345Y-11295765D01*
X4480345Y-11295765D02*
X4489869Y-11305289D01*
X4489869Y-11305289D02*
X4499393Y-11324336D01*
X4499393Y-11324336D02*
X4499393Y-11381479D01*
X4499393Y-11381479D02*
X4489869Y-11400527D01*
X4489869Y-11400527D02*
X4480345Y-11410050D01*
X4480345Y-11410050D02*
X4461297Y-11419574D01*
X4461297Y-11419574D02*
X4432726Y-11419574D01*
X4613678Y-11419574D02*
X4594631Y-11410050D01*
X4594631Y-11410050D02*
X4585107Y-11391003D01*
X4585107Y-11391003D02*
X4585107Y-11219574D01*
X4766059Y-11410050D02*
X4747012Y-11419574D01*
X4747012Y-11419574D02*
X4708916Y-11419574D01*
X4708916Y-11419574D02*
X4689869Y-11410050D01*
X4689869Y-11410050D02*
X4680345Y-11391003D01*
X4680345Y-11391003D02*
X4680345Y-11314812D01*
X4680345Y-11314812D02*
X4689869Y-11295765D01*
X4689869Y-11295765D02*
X4708916Y-11286241D01*
X4708916Y-11286241D02*
X4747012Y-11286241D01*
X4747012Y-11286241D02*
X4766059Y-11295765D01*
X4766059Y-11295765D02*
X4775583Y-11314812D01*
X4775583Y-11314812D02*
X4775583Y-11333860D01*
X4775583Y-11333860D02*
X4680345Y-11352908D01*
X4851774Y-11410050D02*
X4870821Y-11419574D01*
X4870821Y-11419574D02*
X4908916Y-11419574D01*
X4908916Y-11419574D02*
X4927964Y-11410050D01*
X4927964Y-11410050D02*
X4937488Y-11391003D01*
X4937488Y-11391003D02*
X4937488Y-11381479D01*
X4937488Y-11381479D02*
X4927964Y-11362431D01*
X4927964Y-11362431D02*
X4908916Y-11352908D01*
X4908916Y-11352908D02*
X4880345Y-11352908D01*
X4880345Y-11352908D02*
X4861297Y-11343384D01*
X4861297Y-11343384D02*
X4851774Y-11324336D01*
X4851774Y-11324336D02*
X4851774Y-11314812D01*
X4851774Y-11314812D02*
X4861297Y-11295765D01*
X4861297Y-11295765D02*
X4880345Y-11286241D01*
X4880345Y-11286241D02*
X4908916Y-11286241D01*
X4908916Y-11286241D02*
X4927964Y-11295765D01*
X5004155Y-11495765D02*
X5013678Y-11486241D01*
X5013678Y-11486241D02*
X5032726Y-11457670D01*
X5032726Y-11457670D02*
X5042250Y-11438622D01*
X5042250Y-11438622D02*
X5051774Y-11410050D01*
X5051774Y-11410050D02*
X5061297Y-11362431D01*
X5061297Y-11362431D02*
X5061297Y-11324336D01*
X5061297Y-11324336D02*
X5051774Y-11276717D01*
X5051774Y-11276717D02*
X5042250Y-11248146D01*
X5042250Y-11248146D02*
X5032726Y-11229098D01*
X5032726Y-11229098D02*
X5013678Y-11200527D01*
X5013678Y-11200527D02*
X5004155Y-11191003D01*
D17*
X-74179Y-11633598D02*
X-9179Y-11698598D01*
X-9179Y-11633598D02*
X-74179Y-11698598D01*
X-9179Y-11666098D02*
G75*
G03*
X-9179Y-11666098I-32500J0D01*
G01*
D11*
X276535Y-11539574D02*
X295583Y-11539574D01*
X295583Y-11539574D02*
X314630Y-11549098D01*
X314630Y-11549098D02*
X324154Y-11558622D01*
X324154Y-11558622D02*
X333678Y-11577670D01*
X333678Y-11577670D02*
X343202Y-11615765D01*
X343202Y-11615765D02*
X343202Y-11663384D01*
X343202Y-11663384D02*
X333678Y-11701479D01*
X333678Y-11701479D02*
X324154Y-11720527D01*
X324154Y-11720527D02*
X314630Y-11730050D01*
X314630Y-11730050D02*
X295583Y-11739574D01*
X295583Y-11739574D02*
X276535Y-11739574D01*
X276535Y-11739574D02*
X257487Y-11730050D01*
X257487Y-11730050D02*
X247964Y-11720527D01*
X247964Y-11720527D02*
X238440Y-11701479D01*
X238440Y-11701479D02*
X228916Y-11663384D01*
X228916Y-11663384D02*
X228916Y-11615765D01*
X228916Y-11615765D02*
X238440Y-11577670D01*
X238440Y-11577670D02*
X247964Y-11558622D01*
X247964Y-11558622D02*
X257487Y-11549098D01*
X257487Y-11549098D02*
X276535Y-11539574D01*
X428916Y-11720527D02*
X438440Y-11730050D01*
X438440Y-11730050D02*
X428916Y-11739574D01*
X428916Y-11739574D02*
X419392Y-11730050D01*
X419392Y-11730050D02*
X428916Y-11720527D01*
X428916Y-11720527D02*
X428916Y-11739574D01*
X609869Y-11539574D02*
X571773Y-11539574D01*
X571773Y-11539574D02*
X552726Y-11549098D01*
X552726Y-11549098D02*
X543202Y-11558622D01*
X543202Y-11558622D02*
X524154Y-11587193D01*
X524154Y-11587193D02*
X514630Y-11625289D01*
X514630Y-11625289D02*
X514630Y-11701479D01*
X514630Y-11701479D02*
X524154Y-11720527D01*
X524154Y-11720527D02*
X533678Y-11730050D01*
X533678Y-11730050D02*
X552726Y-11739574D01*
X552726Y-11739574D02*
X590821Y-11739574D01*
X590821Y-11739574D02*
X609869Y-11730050D01*
X609869Y-11730050D02*
X619392Y-11720527D01*
X619392Y-11720527D02*
X628916Y-11701479D01*
X628916Y-11701479D02*
X628916Y-11653860D01*
X628916Y-11653860D02*
X619392Y-11634812D01*
X619392Y-11634812D02*
X609869Y-11625289D01*
X609869Y-11625289D02*
X590821Y-11615765D01*
X590821Y-11615765D02*
X552726Y-11615765D01*
X552726Y-11615765D02*
X533678Y-11625289D01*
X533678Y-11625289D02*
X524154Y-11634812D01*
X524154Y-11634812D02*
X514630Y-11653860D01*
X809868Y-11539574D02*
X714630Y-11539574D01*
X714630Y-11539574D02*
X705107Y-11634812D01*
X705107Y-11634812D02*
X714630Y-11625289D01*
X714630Y-11625289D02*
X733678Y-11615765D01*
X733678Y-11615765D02*
X781297Y-11615765D01*
X781297Y-11615765D02*
X800345Y-11625289D01*
X800345Y-11625289D02*
X809868Y-11634812D01*
X809868Y-11634812D02*
X819392Y-11653860D01*
X819392Y-11653860D02*
X819392Y-11701479D01*
X819392Y-11701479D02*
X809868Y-11720527D01*
X809868Y-11720527D02*
X800345Y-11730050D01*
X800345Y-11730050D02*
X781297Y-11739574D01*
X781297Y-11739574D02*
X733678Y-11739574D01*
X733678Y-11739574D02*
X714630Y-11730050D01*
X714630Y-11730050D02*
X705107Y-11720527D01*
X943202Y-11539574D02*
X962249Y-11539574D01*
X962249Y-11539574D02*
X981297Y-11549098D01*
X981297Y-11549098D02*
X990821Y-11558622D01*
X990821Y-11558622D02*
X1000345Y-11577670D01*
X1000345Y-11577670D02*
X1009868Y-11615765D01*
X1009868Y-11615765D02*
X1009868Y-11663384D01*
X1009868Y-11663384D02*
X1000345Y-11701479D01*
X1000345Y-11701479D02*
X990821Y-11720527D01*
X990821Y-11720527D02*
X981297Y-11730050D01*
X981297Y-11730050D02*
X962249Y-11739574D01*
X962249Y-11739574D02*
X943202Y-11739574D01*
X943202Y-11739574D02*
X924154Y-11730050D01*
X924154Y-11730050D02*
X914630Y-11720527D01*
X914630Y-11720527D02*
X905107Y-11701479D01*
X905107Y-11701479D02*
X895583Y-11663384D01*
X895583Y-11663384D02*
X895583Y-11615765D01*
X895583Y-11615765D02*
X905107Y-11577670D01*
X905107Y-11577670D02*
X914630Y-11558622D01*
X914630Y-11558622D02*
X924154Y-11549098D01*
X924154Y-11549098D02*
X943202Y-11539574D01*
X1095583Y-11739574D02*
X1095583Y-11606241D01*
X1095583Y-11625289D02*
X1105107Y-11615765D01*
X1105107Y-11615765D02*
X1124154Y-11606241D01*
X1124154Y-11606241D02*
X1152726Y-11606241D01*
X1152726Y-11606241D02*
X1171773Y-11615765D01*
X1171773Y-11615765D02*
X1181297Y-11634812D01*
X1181297Y-11634812D02*
X1181297Y-11739574D01*
X1181297Y-11634812D02*
X1190821Y-11615765D01*
X1190821Y-11615765D02*
X1209869Y-11606241D01*
X1209869Y-11606241D02*
X1238440Y-11606241D01*
X1238440Y-11606241D02*
X1257488Y-11615765D01*
X1257488Y-11615765D02*
X1267011Y-11634812D01*
X1267011Y-11634812D02*
X1267011Y-11739574D01*
X1362250Y-11739574D02*
X1362250Y-11606241D01*
X1362250Y-11625289D02*
X1371773Y-11615765D01*
X1371773Y-11615765D02*
X1390821Y-11606241D01*
X1390821Y-11606241D02*
X1419392Y-11606241D01*
X1419392Y-11606241D02*
X1438440Y-11615765D01*
X1438440Y-11615765D02*
X1447964Y-11634812D01*
X1447964Y-11634812D02*
X1447964Y-11739574D01*
X1447964Y-11634812D02*
X1457488Y-11615765D01*
X1457488Y-11615765D02*
X1476535Y-11606241D01*
X1476535Y-11606241D02*
X1505107Y-11606241D01*
X1505107Y-11606241D02*
X1524154Y-11615765D01*
X1524154Y-11615765D02*
X1533678Y-11634812D01*
X1533678Y-11634812D02*
X1533678Y-11739574D01*
X1891773Y-11530050D02*
X1720345Y-11787193D01*
X2116535Y-11539574D02*
X2135583Y-11539574D01*
X2135583Y-11539574D02*
X2154631Y-11549098D01*
X2154631Y-11549098D02*
X2164154Y-11558622D01*
X2164154Y-11558622D02*
X2173678Y-11577670D01*
X2173678Y-11577670D02*
X2183202Y-11615765D01*
X2183202Y-11615765D02*
X2183202Y-11663384D01*
X2183202Y-11663384D02*
X2173678Y-11701479D01*
X2173678Y-11701479D02*
X2164154Y-11720527D01*
X2164154Y-11720527D02*
X2154631Y-11730050D01*
X2154631Y-11730050D02*
X2135583Y-11739574D01*
X2135583Y-11739574D02*
X2116535Y-11739574D01*
X2116535Y-11739574D02*
X2097488Y-11730050D01*
X2097488Y-11730050D02*
X2087964Y-11720527D01*
X2087964Y-11720527D02*
X2078440Y-11701479D01*
X2078440Y-11701479D02*
X2068916Y-11663384D01*
X2068916Y-11663384D02*
X2068916Y-11615765D01*
X2068916Y-11615765D02*
X2078440Y-11577670D01*
X2078440Y-11577670D02*
X2087964Y-11558622D01*
X2087964Y-11558622D02*
X2097488Y-11549098D01*
X2097488Y-11549098D02*
X2116535Y-11539574D01*
X2268916Y-11720527D02*
X2278440Y-11730050D01*
X2278440Y-11730050D02*
X2268916Y-11739574D01*
X2268916Y-11739574D02*
X2259392Y-11730050D01*
X2259392Y-11730050D02*
X2268916Y-11720527D01*
X2268916Y-11720527D02*
X2268916Y-11739574D01*
X2402250Y-11539574D02*
X2421297Y-11539574D01*
X2421297Y-11539574D02*
X2440345Y-11549098D01*
X2440345Y-11549098D02*
X2449869Y-11558622D01*
X2449869Y-11558622D02*
X2459392Y-11577670D01*
X2459392Y-11577670D02*
X2468916Y-11615765D01*
X2468916Y-11615765D02*
X2468916Y-11663384D01*
X2468916Y-11663384D02*
X2459392Y-11701479D01*
X2459392Y-11701479D02*
X2449869Y-11720527D01*
X2449869Y-11720527D02*
X2440345Y-11730050D01*
X2440345Y-11730050D02*
X2421297Y-11739574D01*
X2421297Y-11739574D02*
X2402250Y-11739574D01*
X2402250Y-11739574D02*
X2383202Y-11730050D01*
X2383202Y-11730050D02*
X2373678Y-11720527D01*
X2373678Y-11720527D02*
X2364154Y-11701479D01*
X2364154Y-11701479D02*
X2354631Y-11663384D01*
X2354631Y-11663384D02*
X2354631Y-11615765D01*
X2354631Y-11615765D02*
X2364154Y-11577670D01*
X2364154Y-11577670D02*
X2373678Y-11558622D01*
X2373678Y-11558622D02*
X2383202Y-11549098D01*
X2383202Y-11549098D02*
X2402250Y-11539574D01*
X2545107Y-11558622D02*
X2554631Y-11549098D01*
X2554631Y-11549098D02*
X2573678Y-11539574D01*
X2573678Y-11539574D02*
X2621297Y-11539574D01*
X2621297Y-11539574D02*
X2640345Y-11549098D01*
X2640345Y-11549098D02*
X2649869Y-11558622D01*
X2649869Y-11558622D02*
X2659392Y-11577670D01*
X2659392Y-11577670D02*
X2659392Y-11596717D01*
X2659392Y-11596717D02*
X2649869Y-11625289D01*
X2649869Y-11625289D02*
X2535583Y-11739574D01*
X2535583Y-11739574D02*
X2659392Y-11739574D01*
X2840345Y-11539574D02*
X2745107Y-11539574D01*
X2745107Y-11539574D02*
X2735583Y-11634812D01*
X2735583Y-11634812D02*
X2745107Y-11625289D01*
X2745107Y-11625289D02*
X2764154Y-11615765D01*
X2764154Y-11615765D02*
X2811773Y-11615765D01*
X2811773Y-11615765D02*
X2830821Y-11625289D01*
X2830821Y-11625289D02*
X2840345Y-11634812D01*
X2840345Y-11634812D02*
X2849869Y-11653860D01*
X2849869Y-11653860D02*
X2849869Y-11701479D01*
X2849869Y-11701479D02*
X2840345Y-11720527D01*
X2840345Y-11720527D02*
X2830821Y-11730050D01*
X2830821Y-11730050D02*
X2811773Y-11739574D01*
X2811773Y-11739574D02*
X2764154Y-11739574D01*
X2764154Y-11739574D02*
X2745107Y-11730050D01*
X2745107Y-11730050D02*
X2735583Y-11720527D01*
X3021297Y-11539574D02*
X2983202Y-11539574D01*
X2983202Y-11539574D02*
X2964154Y-11549098D01*
X2964154Y-11549098D02*
X2954630Y-11558622D01*
X2954630Y-11558622D02*
X2935583Y-11587193D01*
X2935583Y-11587193D02*
X2926059Y-11625289D01*
X2926059Y-11625289D02*
X2926059Y-11701479D01*
X2926059Y-11701479D02*
X2935583Y-11720527D01*
X2935583Y-11720527D02*
X2945107Y-11730050D01*
X2945107Y-11730050D02*
X2964154Y-11739574D01*
X2964154Y-11739574D02*
X3002250Y-11739574D01*
X3002250Y-11739574D02*
X3021297Y-11730050D01*
X3021297Y-11730050D02*
X3030821Y-11720527D01*
X3030821Y-11720527D02*
X3040345Y-11701479D01*
X3040345Y-11701479D02*
X3040345Y-11653860D01*
X3040345Y-11653860D02*
X3030821Y-11634812D01*
X3030821Y-11634812D02*
X3021297Y-11625289D01*
X3021297Y-11625289D02*
X3002250Y-11615765D01*
X3002250Y-11615765D02*
X2964154Y-11615765D01*
X2964154Y-11615765D02*
X2945107Y-11625289D01*
X2945107Y-11625289D02*
X2935583Y-11634812D01*
X2935583Y-11634812D02*
X2926059Y-11653860D01*
X3116535Y-11539574D02*
X3116535Y-11577670D01*
X3192726Y-11539574D02*
X3192726Y-11577670D01*
X3455583Y-11815765D02*
X3446059Y-11806241D01*
X3446059Y-11806241D02*
X3427011Y-11777670D01*
X3427011Y-11777670D02*
X3417488Y-11758622D01*
X3417488Y-11758622D02*
X3407964Y-11730050D01*
X3407964Y-11730050D02*
X3398440Y-11682431D01*
X3398440Y-11682431D02*
X3398440Y-11644336D01*
X3398440Y-11644336D02*
X3407964Y-11596717D01*
X3407964Y-11596717D02*
X3417488Y-11568146D01*
X3417488Y-11568146D02*
X3427011Y-11549098D01*
X3427011Y-11549098D02*
X3446059Y-11520527D01*
X3446059Y-11520527D02*
X3455583Y-11511003D01*
X3522250Y-11558622D02*
X3531773Y-11549098D01*
X3531773Y-11549098D02*
X3550821Y-11539574D01*
X3550821Y-11539574D02*
X3598440Y-11539574D01*
X3598440Y-11539574D02*
X3617488Y-11549098D01*
X3617488Y-11549098D02*
X3627011Y-11558622D01*
X3627011Y-11558622D02*
X3636535Y-11577670D01*
X3636535Y-11577670D02*
X3636535Y-11596717D01*
X3636535Y-11596717D02*
X3627011Y-11625289D01*
X3627011Y-11625289D02*
X3512726Y-11739574D01*
X3512726Y-11739574D02*
X3636535Y-11739574D01*
X3842250Y-11739574D02*
X3842250Y-11539574D01*
X3927964Y-11739574D02*
X3927964Y-11634812D01*
X3927964Y-11634812D02*
X3918440Y-11615765D01*
X3918440Y-11615765D02*
X3899392Y-11606241D01*
X3899392Y-11606241D02*
X3870821Y-11606241D01*
X3870821Y-11606241D02*
X3851773Y-11615765D01*
X3851773Y-11615765D02*
X3842250Y-11625289D01*
X4051773Y-11739574D02*
X4032726Y-11730050D01*
X4032726Y-11730050D02*
X4023202Y-11720527D01*
X4023202Y-11720527D02*
X4013678Y-11701479D01*
X4013678Y-11701479D02*
X4013678Y-11644336D01*
X4013678Y-11644336D02*
X4023202Y-11625289D01*
X4023202Y-11625289D02*
X4032726Y-11615765D01*
X4032726Y-11615765D02*
X4051773Y-11606241D01*
X4051773Y-11606241D02*
X4080345Y-11606241D01*
X4080345Y-11606241D02*
X4099392Y-11615765D01*
X4099392Y-11615765D02*
X4108916Y-11625289D01*
X4108916Y-11625289D02*
X4118440Y-11644336D01*
X4118440Y-11644336D02*
X4118440Y-11701479D01*
X4118440Y-11701479D02*
X4108916Y-11720527D01*
X4108916Y-11720527D02*
X4099392Y-11730050D01*
X4099392Y-11730050D02*
X4080345Y-11739574D01*
X4080345Y-11739574D02*
X4051773Y-11739574D01*
X4232726Y-11739574D02*
X4213678Y-11730050D01*
X4213678Y-11730050D02*
X4204154Y-11711003D01*
X4204154Y-11711003D02*
X4204154Y-11539574D01*
X4385107Y-11730050D02*
X4366059Y-11739574D01*
X4366059Y-11739574D02*
X4327964Y-11739574D01*
X4327964Y-11739574D02*
X4308916Y-11730050D01*
X4308916Y-11730050D02*
X4299393Y-11711003D01*
X4299393Y-11711003D02*
X4299393Y-11634812D01*
X4299393Y-11634812D02*
X4308916Y-11615765D01*
X4308916Y-11615765D02*
X4327964Y-11606241D01*
X4327964Y-11606241D02*
X4366059Y-11606241D01*
X4366059Y-11606241D02*
X4385107Y-11615765D01*
X4385107Y-11615765D02*
X4394631Y-11634812D01*
X4394631Y-11634812D02*
X4394631Y-11653860D01*
X4394631Y-11653860D02*
X4299393Y-11672908D01*
X4470821Y-11730050D02*
X4489869Y-11739574D01*
X4489869Y-11739574D02*
X4527964Y-11739574D01*
X4527964Y-11739574D02*
X4547012Y-11730050D01*
X4547012Y-11730050D02*
X4556535Y-11711003D01*
X4556535Y-11711003D02*
X4556535Y-11701479D01*
X4556535Y-11701479D02*
X4547012Y-11682431D01*
X4547012Y-11682431D02*
X4527964Y-11672908D01*
X4527964Y-11672908D02*
X4499393Y-11672908D01*
X4499393Y-11672908D02*
X4480345Y-11663384D01*
X4480345Y-11663384D02*
X4470821Y-11644336D01*
X4470821Y-11644336D02*
X4470821Y-11634812D01*
X4470821Y-11634812D02*
X4480345Y-11615765D01*
X4480345Y-11615765D02*
X4499393Y-11606241D01*
X4499393Y-11606241D02*
X4527964Y-11606241D01*
X4527964Y-11606241D02*
X4547012Y-11615765D01*
X4623202Y-11815765D02*
X4632726Y-11806241D01*
X4632726Y-11806241D02*
X4651774Y-11777670D01*
X4651774Y-11777670D02*
X4661297Y-11758622D01*
X4661297Y-11758622D02*
X4670821Y-11730050D01*
X4670821Y-11730050D02*
X4680345Y-11682431D01*
X4680345Y-11682431D02*
X4680345Y-11644336D01*
X4680345Y-11644336D02*
X4670821Y-11596717D01*
X4670821Y-11596717D02*
X4661297Y-11568146D01*
X4661297Y-11568146D02*
X4651774Y-11549098D01*
X4651774Y-11549098D02*
X4632726Y-11520527D01*
X4632726Y-11520527D02*
X4623202Y-11511003D01*
X4952726Y-11815765D02*
X4943202Y-11806241D01*
X4943202Y-11806241D02*
X4924154Y-11777670D01*
X4924154Y-11777670D02*
X4914631Y-11758622D01*
X4914631Y-11758622D02*
X4905107Y-11730050D01*
X4905107Y-11730050D02*
X4895583Y-11682431D01*
X4895583Y-11682431D02*
X4895583Y-11644336D01*
X4895583Y-11644336D02*
X4905107Y-11596717D01*
X4905107Y-11596717D02*
X4914631Y-11568146D01*
X4914631Y-11568146D02*
X4924154Y-11549098D01*
X4924154Y-11549098D02*
X4943202Y-11520527D01*
X4943202Y-11520527D02*
X4952726Y-11511003D01*
X5028916Y-11606241D02*
X5028916Y-11739574D01*
X5028916Y-11625289D02*
X5038440Y-11615765D01*
X5038440Y-11615765D02*
X5057488Y-11606241D01*
X5057488Y-11606241D02*
X5086059Y-11606241D01*
X5086059Y-11606241D02*
X5105107Y-11615765D01*
X5105107Y-11615765D02*
X5114631Y-11634812D01*
X5114631Y-11634812D02*
X5114631Y-11739574D01*
X5238440Y-11739574D02*
X5219393Y-11730050D01*
X5219393Y-11730050D02*
X5209869Y-11720527D01*
X5209869Y-11720527D02*
X5200345Y-11701479D01*
X5200345Y-11701479D02*
X5200345Y-11644336D01*
X5200345Y-11644336D02*
X5209869Y-11625289D01*
X5209869Y-11625289D02*
X5219393Y-11615765D01*
X5219393Y-11615765D02*
X5238440Y-11606241D01*
X5238440Y-11606241D02*
X5267012Y-11606241D01*
X5267012Y-11606241D02*
X5286059Y-11615765D01*
X5286059Y-11615765D02*
X5295583Y-11625289D01*
X5295583Y-11625289D02*
X5305107Y-11644336D01*
X5305107Y-11644336D02*
X5305107Y-11701479D01*
X5305107Y-11701479D02*
X5295583Y-11720527D01*
X5295583Y-11720527D02*
X5286059Y-11730050D01*
X5286059Y-11730050D02*
X5267012Y-11739574D01*
X5267012Y-11739574D02*
X5238440Y-11739574D01*
X5362250Y-11606241D02*
X5438440Y-11606241D01*
X5390821Y-11539574D02*
X5390821Y-11711003D01*
X5390821Y-11711003D02*
X5400345Y-11730050D01*
X5400345Y-11730050D02*
X5419393Y-11739574D01*
X5419393Y-11739574D02*
X5438440Y-11739574D01*
X5625107Y-11606241D02*
X5625107Y-11806241D01*
X5625107Y-11615765D02*
X5644154Y-11606241D01*
X5644154Y-11606241D02*
X5682250Y-11606241D01*
X5682250Y-11606241D02*
X5701297Y-11615765D01*
X5701297Y-11615765D02*
X5710821Y-11625289D01*
X5710821Y-11625289D02*
X5720345Y-11644336D01*
X5720345Y-11644336D02*
X5720345Y-11701479D01*
X5720345Y-11701479D02*
X5710821Y-11720527D01*
X5710821Y-11720527D02*
X5701297Y-11730050D01*
X5701297Y-11730050D02*
X5682250Y-11739574D01*
X5682250Y-11739574D02*
X5644154Y-11739574D01*
X5644154Y-11739574D02*
X5625107Y-11730050D01*
X5834631Y-11739574D02*
X5815583Y-11730050D01*
X5815583Y-11730050D02*
X5806059Y-11711003D01*
X5806059Y-11711003D02*
X5806059Y-11539574D01*
X5996535Y-11739574D02*
X5996535Y-11634812D01*
X5996535Y-11634812D02*
X5987012Y-11615765D01*
X5987012Y-11615765D02*
X5967964Y-11606241D01*
X5967964Y-11606241D02*
X5929869Y-11606241D01*
X5929869Y-11606241D02*
X5910821Y-11615765D01*
X5996535Y-11730050D02*
X5977488Y-11739574D01*
X5977488Y-11739574D02*
X5929869Y-11739574D01*
X5929869Y-11739574D02*
X5910821Y-11730050D01*
X5910821Y-11730050D02*
X5901297Y-11711003D01*
X5901297Y-11711003D02*
X5901297Y-11691955D01*
X5901297Y-11691955D02*
X5910821Y-11672908D01*
X5910821Y-11672908D02*
X5929869Y-11663384D01*
X5929869Y-11663384D02*
X5977488Y-11663384D01*
X5977488Y-11663384D02*
X5996535Y-11653860D01*
X6063202Y-11606241D02*
X6139392Y-11606241D01*
X6091773Y-11539574D02*
X6091773Y-11711003D01*
X6091773Y-11711003D02*
X6101297Y-11730050D01*
X6101297Y-11730050D02*
X6120345Y-11739574D01*
X6120345Y-11739574D02*
X6139392Y-11739574D01*
X6282250Y-11730050D02*
X6263202Y-11739574D01*
X6263202Y-11739574D02*
X6225107Y-11739574D01*
X6225107Y-11739574D02*
X6206059Y-11730050D01*
X6206059Y-11730050D02*
X6196535Y-11711003D01*
X6196535Y-11711003D02*
X6196535Y-11634812D01*
X6196535Y-11634812D02*
X6206059Y-11615765D01*
X6206059Y-11615765D02*
X6225107Y-11606241D01*
X6225107Y-11606241D02*
X6263202Y-11606241D01*
X6263202Y-11606241D02*
X6282250Y-11615765D01*
X6282250Y-11615765D02*
X6291773Y-11634812D01*
X6291773Y-11634812D02*
X6291773Y-11653860D01*
X6291773Y-11653860D02*
X6196535Y-11672908D01*
X6463202Y-11739574D02*
X6463202Y-11539574D01*
X6463202Y-11730050D02*
X6444154Y-11739574D01*
X6444154Y-11739574D02*
X6406059Y-11739574D01*
X6406059Y-11739574D02*
X6387012Y-11730050D01*
X6387012Y-11730050D02*
X6377488Y-11720527D01*
X6377488Y-11720527D02*
X6367964Y-11701479D01*
X6367964Y-11701479D02*
X6367964Y-11644336D01*
X6367964Y-11644336D02*
X6377488Y-11625289D01*
X6377488Y-11625289D02*
X6387012Y-11615765D01*
X6387012Y-11615765D02*
X6406059Y-11606241D01*
X6406059Y-11606241D02*
X6444154Y-11606241D01*
X6444154Y-11606241D02*
X6463202Y-11615765D01*
X6539393Y-11815765D02*
X6548916Y-11806241D01*
X6548916Y-11806241D02*
X6567964Y-11777670D01*
X6567964Y-11777670D02*
X6577488Y-11758622D01*
X6577488Y-11758622D02*
X6587012Y-11730050D01*
X6587012Y-11730050D02*
X6596535Y-11682431D01*
X6596535Y-11682431D02*
X6596535Y-11644336D01*
X6596535Y-11644336D02*
X6587012Y-11596717D01*
X6587012Y-11596717D02*
X6577488Y-11568146D01*
X6577488Y-11568146D02*
X6567964Y-11549098D01*
X6567964Y-11549098D02*
X6548916Y-11520527D01*
X6548916Y-11520527D02*
X6539393Y-11511003D01*
D18*
X-184179Y-11842598D02*
X-9179Y-12017598D01*
X-9179Y-11842598D02*
X-184179Y-12017598D01*
X-96679Y-11842598D02*
X-96679Y-12017598D01*
X-184179Y-11930098D02*
X-9179Y-11930098D01*
D11*
X343202Y-12003574D02*
X228916Y-12003574D01*
X286059Y-12003574D02*
X286059Y-11803574D01*
X286059Y-11803574D02*
X267011Y-11832146D01*
X267011Y-11832146D02*
X247964Y-11851193D01*
X247964Y-11851193D02*
X228916Y-11860717D01*
X428916Y-11984527D02*
X438440Y-11994050D01*
X438440Y-11994050D02*
X428916Y-12003574D01*
X428916Y-12003574D02*
X419392Y-11994050D01*
X419392Y-11994050D02*
X428916Y-11984527D01*
X428916Y-11984527D02*
X428916Y-12003574D01*
X505107Y-11803574D02*
X638440Y-11803574D01*
X638440Y-11803574D02*
X552726Y-12003574D01*
X809868Y-11803574D02*
X714630Y-11803574D01*
X714630Y-11803574D02*
X705107Y-11898812D01*
X705107Y-11898812D02*
X714630Y-11889289D01*
X714630Y-11889289D02*
X733678Y-11879765D01*
X733678Y-11879765D02*
X781297Y-11879765D01*
X781297Y-11879765D02*
X800345Y-11889289D01*
X800345Y-11889289D02*
X809868Y-11898812D01*
X809868Y-11898812D02*
X819392Y-11917860D01*
X819392Y-11917860D02*
X819392Y-11965479D01*
X819392Y-11965479D02*
X809868Y-11984527D01*
X809868Y-11984527D02*
X800345Y-11994050D01*
X800345Y-11994050D02*
X781297Y-12003574D01*
X781297Y-12003574D02*
X733678Y-12003574D01*
X733678Y-12003574D02*
X714630Y-11994050D01*
X714630Y-11994050D02*
X705107Y-11984527D01*
X943202Y-11803574D02*
X962249Y-11803574D01*
X962249Y-11803574D02*
X981297Y-11813098D01*
X981297Y-11813098D02*
X990821Y-11822622D01*
X990821Y-11822622D02*
X1000345Y-11841670D01*
X1000345Y-11841670D02*
X1009868Y-11879765D01*
X1009868Y-11879765D02*
X1009868Y-11927384D01*
X1009868Y-11927384D02*
X1000345Y-11965479D01*
X1000345Y-11965479D02*
X990821Y-11984527D01*
X990821Y-11984527D02*
X981297Y-11994050D01*
X981297Y-11994050D02*
X962249Y-12003574D01*
X962249Y-12003574D02*
X943202Y-12003574D01*
X943202Y-12003574D02*
X924154Y-11994050D01*
X924154Y-11994050D02*
X914630Y-11984527D01*
X914630Y-11984527D02*
X905107Y-11965479D01*
X905107Y-11965479D02*
X895583Y-11927384D01*
X895583Y-11927384D02*
X895583Y-11879765D01*
X895583Y-11879765D02*
X905107Y-11841670D01*
X905107Y-11841670D02*
X914630Y-11822622D01*
X914630Y-11822622D02*
X924154Y-11813098D01*
X924154Y-11813098D02*
X943202Y-11803574D01*
X1095583Y-12003574D02*
X1095583Y-11870241D01*
X1095583Y-11889289D02*
X1105107Y-11879765D01*
X1105107Y-11879765D02*
X1124154Y-11870241D01*
X1124154Y-11870241D02*
X1152726Y-11870241D01*
X1152726Y-11870241D02*
X1171773Y-11879765D01*
X1171773Y-11879765D02*
X1181297Y-11898812D01*
X1181297Y-11898812D02*
X1181297Y-12003574D01*
X1181297Y-11898812D02*
X1190821Y-11879765D01*
X1190821Y-11879765D02*
X1209869Y-11870241D01*
X1209869Y-11870241D02*
X1238440Y-11870241D01*
X1238440Y-11870241D02*
X1257488Y-11879765D01*
X1257488Y-11879765D02*
X1267011Y-11898812D01*
X1267011Y-11898812D02*
X1267011Y-12003574D01*
X1362250Y-12003574D02*
X1362250Y-11870241D01*
X1362250Y-11889289D02*
X1371773Y-11879765D01*
X1371773Y-11879765D02*
X1390821Y-11870241D01*
X1390821Y-11870241D02*
X1419392Y-11870241D01*
X1419392Y-11870241D02*
X1438440Y-11879765D01*
X1438440Y-11879765D02*
X1447964Y-11898812D01*
X1447964Y-11898812D02*
X1447964Y-12003574D01*
X1447964Y-11898812D02*
X1457488Y-11879765D01*
X1457488Y-11879765D02*
X1476535Y-11870241D01*
X1476535Y-11870241D02*
X1505107Y-11870241D01*
X1505107Y-11870241D02*
X1524154Y-11879765D01*
X1524154Y-11879765D02*
X1533678Y-11898812D01*
X1533678Y-11898812D02*
X1533678Y-12003574D01*
X1891773Y-11794050D02*
X1720345Y-12051193D01*
X2116535Y-11803574D02*
X2135583Y-11803574D01*
X2135583Y-11803574D02*
X2154631Y-11813098D01*
X2154631Y-11813098D02*
X2164154Y-11822622D01*
X2164154Y-11822622D02*
X2173678Y-11841670D01*
X2173678Y-11841670D02*
X2183202Y-11879765D01*
X2183202Y-11879765D02*
X2183202Y-11927384D01*
X2183202Y-11927384D02*
X2173678Y-11965479D01*
X2173678Y-11965479D02*
X2164154Y-11984527D01*
X2164154Y-11984527D02*
X2154631Y-11994050D01*
X2154631Y-11994050D02*
X2135583Y-12003574D01*
X2135583Y-12003574D02*
X2116535Y-12003574D01*
X2116535Y-12003574D02*
X2097488Y-11994050D01*
X2097488Y-11994050D02*
X2087964Y-11984527D01*
X2087964Y-11984527D02*
X2078440Y-11965479D01*
X2078440Y-11965479D02*
X2068916Y-11927384D01*
X2068916Y-11927384D02*
X2068916Y-11879765D01*
X2068916Y-11879765D02*
X2078440Y-11841670D01*
X2078440Y-11841670D02*
X2087964Y-11822622D01*
X2087964Y-11822622D02*
X2097488Y-11813098D01*
X2097488Y-11813098D02*
X2116535Y-11803574D01*
X2268916Y-11984527D02*
X2278440Y-11994050D01*
X2278440Y-11994050D02*
X2268916Y-12003574D01*
X2268916Y-12003574D02*
X2259392Y-11994050D01*
X2259392Y-11994050D02*
X2268916Y-11984527D01*
X2268916Y-11984527D02*
X2268916Y-12003574D01*
X2402250Y-11803574D02*
X2421297Y-11803574D01*
X2421297Y-11803574D02*
X2440345Y-11813098D01*
X2440345Y-11813098D02*
X2449869Y-11822622D01*
X2449869Y-11822622D02*
X2459392Y-11841670D01*
X2459392Y-11841670D02*
X2468916Y-11879765D01*
X2468916Y-11879765D02*
X2468916Y-11927384D01*
X2468916Y-11927384D02*
X2459392Y-11965479D01*
X2459392Y-11965479D02*
X2449869Y-11984527D01*
X2449869Y-11984527D02*
X2440345Y-11994050D01*
X2440345Y-11994050D02*
X2421297Y-12003574D01*
X2421297Y-12003574D02*
X2402250Y-12003574D01*
X2402250Y-12003574D02*
X2383202Y-11994050D01*
X2383202Y-11994050D02*
X2373678Y-11984527D01*
X2373678Y-11984527D02*
X2364154Y-11965479D01*
X2364154Y-11965479D02*
X2354631Y-11927384D01*
X2354631Y-11927384D02*
X2354631Y-11879765D01*
X2354631Y-11879765D02*
X2364154Y-11841670D01*
X2364154Y-11841670D02*
X2373678Y-11822622D01*
X2373678Y-11822622D02*
X2383202Y-11813098D01*
X2383202Y-11813098D02*
X2402250Y-11803574D01*
X2640345Y-11803574D02*
X2602250Y-11803574D01*
X2602250Y-11803574D02*
X2583202Y-11813098D01*
X2583202Y-11813098D02*
X2573678Y-11822622D01*
X2573678Y-11822622D02*
X2554631Y-11851193D01*
X2554631Y-11851193D02*
X2545107Y-11889289D01*
X2545107Y-11889289D02*
X2545107Y-11965479D01*
X2545107Y-11965479D02*
X2554631Y-11984527D01*
X2554631Y-11984527D02*
X2564154Y-11994050D01*
X2564154Y-11994050D02*
X2583202Y-12003574D01*
X2583202Y-12003574D02*
X2621297Y-12003574D01*
X2621297Y-12003574D02*
X2640345Y-11994050D01*
X2640345Y-11994050D02*
X2649869Y-11984527D01*
X2649869Y-11984527D02*
X2659392Y-11965479D01*
X2659392Y-11965479D02*
X2659392Y-11917860D01*
X2659392Y-11917860D02*
X2649869Y-11898812D01*
X2649869Y-11898812D02*
X2640345Y-11889289D01*
X2640345Y-11889289D02*
X2621297Y-11879765D01*
X2621297Y-11879765D02*
X2583202Y-11879765D01*
X2583202Y-11879765D02*
X2564154Y-11889289D01*
X2564154Y-11889289D02*
X2554631Y-11898812D01*
X2554631Y-11898812D02*
X2545107Y-11917860D01*
X2773678Y-11889289D02*
X2754631Y-11879765D01*
X2754631Y-11879765D02*
X2745107Y-11870241D01*
X2745107Y-11870241D02*
X2735583Y-11851193D01*
X2735583Y-11851193D02*
X2735583Y-11841670D01*
X2735583Y-11841670D02*
X2745107Y-11822622D01*
X2745107Y-11822622D02*
X2754631Y-11813098D01*
X2754631Y-11813098D02*
X2773678Y-11803574D01*
X2773678Y-11803574D02*
X2811773Y-11803574D01*
X2811773Y-11803574D02*
X2830821Y-11813098D01*
X2830821Y-11813098D02*
X2840345Y-11822622D01*
X2840345Y-11822622D02*
X2849869Y-11841670D01*
X2849869Y-11841670D02*
X2849869Y-11851193D01*
X2849869Y-11851193D02*
X2840345Y-11870241D01*
X2840345Y-11870241D02*
X2830821Y-11879765D01*
X2830821Y-11879765D02*
X2811773Y-11889289D01*
X2811773Y-11889289D02*
X2773678Y-11889289D01*
X2773678Y-11889289D02*
X2754631Y-11898812D01*
X2754631Y-11898812D02*
X2745107Y-11908336D01*
X2745107Y-11908336D02*
X2735583Y-11927384D01*
X2735583Y-11927384D02*
X2735583Y-11965479D01*
X2735583Y-11965479D02*
X2745107Y-11984527D01*
X2745107Y-11984527D02*
X2754631Y-11994050D01*
X2754631Y-11994050D02*
X2773678Y-12003574D01*
X2773678Y-12003574D02*
X2811773Y-12003574D01*
X2811773Y-12003574D02*
X2830821Y-11994050D01*
X2830821Y-11994050D02*
X2840345Y-11984527D01*
X2840345Y-11984527D02*
X2849869Y-11965479D01*
X2849869Y-11965479D02*
X2849869Y-11927384D01*
X2849869Y-11927384D02*
X2840345Y-11908336D01*
X2840345Y-11908336D02*
X2830821Y-11898812D01*
X2830821Y-11898812D02*
X2811773Y-11889289D01*
X2945107Y-12003574D02*
X2983202Y-12003574D01*
X2983202Y-12003574D02*
X3002250Y-11994050D01*
X3002250Y-11994050D02*
X3011773Y-11984527D01*
X3011773Y-11984527D02*
X3030821Y-11955955D01*
X3030821Y-11955955D02*
X3040345Y-11917860D01*
X3040345Y-11917860D02*
X3040345Y-11841670D01*
X3040345Y-11841670D02*
X3030821Y-11822622D01*
X3030821Y-11822622D02*
X3021297Y-11813098D01*
X3021297Y-11813098D02*
X3002250Y-11803574D01*
X3002250Y-11803574D02*
X2964154Y-11803574D01*
X2964154Y-11803574D02*
X2945107Y-11813098D01*
X2945107Y-11813098D02*
X2935583Y-11822622D01*
X2935583Y-11822622D02*
X2926059Y-11841670D01*
X2926059Y-11841670D02*
X2926059Y-11889289D01*
X2926059Y-11889289D02*
X2935583Y-11908336D01*
X2935583Y-11908336D02*
X2945107Y-11917860D01*
X2945107Y-11917860D02*
X2964154Y-11927384D01*
X2964154Y-11927384D02*
X3002250Y-11927384D01*
X3002250Y-11927384D02*
X3021297Y-11917860D01*
X3021297Y-11917860D02*
X3030821Y-11908336D01*
X3030821Y-11908336D02*
X3040345Y-11889289D01*
X3116535Y-11803574D02*
X3116535Y-11841670D01*
X3192726Y-11803574D02*
X3192726Y-11841670D01*
X3455583Y-12079765D02*
X3446059Y-12070241D01*
X3446059Y-12070241D02*
X3427011Y-12041670D01*
X3427011Y-12041670D02*
X3417488Y-12022622D01*
X3417488Y-12022622D02*
X3407964Y-11994050D01*
X3407964Y-11994050D02*
X3398440Y-11946431D01*
X3398440Y-11946431D02*
X3398440Y-11908336D01*
X3398440Y-11908336D02*
X3407964Y-11860717D01*
X3407964Y-11860717D02*
X3417488Y-11832146D01*
X3417488Y-11832146D02*
X3427011Y-11813098D01*
X3427011Y-11813098D02*
X3446059Y-11784527D01*
X3446059Y-11784527D02*
X3455583Y-11775003D01*
X3636535Y-12003574D02*
X3522250Y-12003574D01*
X3579392Y-12003574D02*
X3579392Y-11803574D01*
X3579392Y-11803574D02*
X3560345Y-11832146D01*
X3560345Y-11832146D02*
X3541297Y-11851193D01*
X3541297Y-11851193D02*
X3522250Y-11860717D01*
X3760345Y-11803574D02*
X3779392Y-11803574D01*
X3779392Y-11803574D02*
X3798440Y-11813098D01*
X3798440Y-11813098D02*
X3807964Y-11822622D01*
X3807964Y-11822622D02*
X3817488Y-11841670D01*
X3817488Y-11841670D02*
X3827011Y-11879765D01*
X3827011Y-11879765D02*
X3827011Y-11927384D01*
X3827011Y-11927384D02*
X3817488Y-11965479D01*
X3817488Y-11965479D02*
X3807964Y-11984527D01*
X3807964Y-11984527D02*
X3798440Y-11994050D01*
X3798440Y-11994050D02*
X3779392Y-12003574D01*
X3779392Y-12003574D02*
X3760345Y-12003574D01*
X3760345Y-12003574D02*
X3741297Y-11994050D01*
X3741297Y-11994050D02*
X3731773Y-11984527D01*
X3731773Y-11984527D02*
X3722250Y-11965479D01*
X3722250Y-11965479D02*
X3712726Y-11927384D01*
X3712726Y-11927384D02*
X3712726Y-11879765D01*
X3712726Y-11879765D02*
X3722250Y-11841670D01*
X3722250Y-11841670D02*
X3731773Y-11822622D01*
X3731773Y-11822622D02*
X3741297Y-11813098D01*
X3741297Y-11813098D02*
X3760345Y-11803574D01*
X3998440Y-11870241D02*
X3998440Y-12003574D01*
X3950821Y-11794050D02*
X3903202Y-11936908D01*
X3903202Y-11936908D02*
X4027011Y-11936908D01*
X4223202Y-12003574D02*
X4223202Y-11803574D01*
X4308916Y-12003574D02*
X4308916Y-11898812D01*
X4308916Y-11898812D02*
X4299393Y-11879765D01*
X4299393Y-11879765D02*
X4280345Y-11870241D01*
X4280345Y-11870241D02*
X4251773Y-11870241D01*
X4251773Y-11870241D02*
X4232726Y-11879765D01*
X4232726Y-11879765D02*
X4223202Y-11889289D01*
X4432726Y-12003574D02*
X4413678Y-11994050D01*
X4413678Y-11994050D02*
X4404154Y-11984527D01*
X4404154Y-11984527D02*
X4394631Y-11965479D01*
X4394631Y-11965479D02*
X4394631Y-11908336D01*
X4394631Y-11908336D02*
X4404154Y-11889289D01*
X4404154Y-11889289D02*
X4413678Y-11879765D01*
X4413678Y-11879765D02*
X4432726Y-11870241D01*
X4432726Y-11870241D02*
X4461297Y-11870241D01*
X4461297Y-11870241D02*
X4480345Y-11879765D01*
X4480345Y-11879765D02*
X4489869Y-11889289D01*
X4489869Y-11889289D02*
X4499393Y-11908336D01*
X4499393Y-11908336D02*
X4499393Y-11965479D01*
X4499393Y-11965479D02*
X4489869Y-11984527D01*
X4489869Y-11984527D02*
X4480345Y-11994050D01*
X4480345Y-11994050D02*
X4461297Y-12003574D01*
X4461297Y-12003574D02*
X4432726Y-12003574D01*
X4613678Y-12003574D02*
X4594631Y-11994050D01*
X4594631Y-11994050D02*
X4585107Y-11975003D01*
X4585107Y-11975003D02*
X4585107Y-11803574D01*
X4766059Y-11994050D02*
X4747012Y-12003574D01*
X4747012Y-12003574D02*
X4708916Y-12003574D01*
X4708916Y-12003574D02*
X4689869Y-11994050D01*
X4689869Y-11994050D02*
X4680345Y-11975003D01*
X4680345Y-11975003D02*
X4680345Y-11898812D01*
X4680345Y-11898812D02*
X4689869Y-11879765D01*
X4689869Y-11879765D02*
X4708916Y-11870241D01*
X4708916Y-11870241D02*
X4747012Y-11870241D01*
X4747012Y-11870241D02*
X4766059Y-11879765D01*
X4766059Y-11879765D02*
X4775583Y-11898812D01*
X4775583Y-11898812D02*
X4775583Y-11917860D01*
X4775583Y-11917860D02*
X4680345Y-11936908D01*
X4851774Y-11994050D02*
X4870821Y-12003574D01*
X4870821Y-12003574D02*
X4908916Y-12003574D01*
X4908916Y-12003574D02*
X4927964Y-11994050D01*
X4927964Y-11994050D02*
X4937488Y-11975003D01*
X4937488Y-11975003D02*
X4937488Y-11965479D01*
X4937488Y-11965479D02*
X4927964Y-11946431D01*
X4927964Y-11946431D02*
X4908916Y-11936908D01*
X4908916Y-11936908D02*
X4880345Y-11936908D01*
X4880345Y-11936908D02*
X4861297Y-11927384D01*
X4861297Y-11927384D02*
X4851774Y-11908336D01*
X4851774Y-11908336D02*
X4851774Y-11898812D01*
X4851774Y-11898812D02*
X4861297Y-11879765D01*
X4861297Y-11879765D02*
X4880345Y-11870241D01*
X4880345Y-11870241D02*
X4908916Y-11870241D01*
X4908916Y-11870241D02*
X4927964Y-11879765D01*
X5004155Y-12079765D02*
X5013678Y-12070241D01*
X5013678Y-12070241D02*
X5032726Y-12041670D01*
X5032726Y-12041670D02*
X5042250Y-12022622D01*
X5042250Y-12022622D02*
X5051774Y-11994050D01*
X5051774Y-11994050D02*
X5061297Y-11946431D01*
X5061297Y-11946431D02*
X5061297Y-11908336D01*
X5061297Y-11908336D02*
X5051774Y-11860717D01*
X5051774Y-11860717D02*
X5042250Y-11832146D01*
X5042250Y-11832146D02*
X5032726Y-11813098D01*
X5032726Y-11813098D02*
X5013678Y-11784527D01*
X5013678Y-11784527D02*
X5004155Y-11775003D01*
X5333678Y-12079765D02*
X5324154Y-12070241D01*
X5324154Y-12070241D02*
X5305107Y-12041670D01*
X5305107Y-12041670D02*
X5295583Y-12022622D01*
X5295583Y-12022622D02*
X5286059Y-11994050D01*
X5286059Y-11994050D02*
X5276535Y-11946431D01*
X5276535Y-11946431D02*
X5276535Y-11908336D01*
X5276535Y-11908336D02*
X5286059Y-11860717D01*
X5286059Y-11860717D02*
X5295583Y-11832146D01*
X5295583Y-11832146D02*
X5305107Y-11813098D01*
X5305107Y-11813098D02*
X5324154Y-11784527D01*
X5324154Y-11784527D02*
X5333678Y-11775003D01*
X5409869Y-11870241D02*
X5409869Y-12003574D01*
X5409869Y-11889289D02*
X5419393Y-11879765D01*
X5419393Y-11879765D02*
X5438440Y-11870241D01*
X5438440Y-11870241D02*
X5467012Y-11870241D01*
X5467012Y-11870241D02*
X5486059Y-11879765D01*
X5486059Y-11879765D02*
X5495583Y-11898812D01*
X5495583Y-11898812D02*
X5495583Y-12003574D01*
X5619392Y-12003574D02*
X5600345Y-11994050D01*
X5600345Y-11994050D02*
X5590821Y-11984527D01*
X5590821Y-11984527D02*
X5581297Y-11965479D01*
X5581297Y-11965479D02*
X5581297Y-11908336D01*
X5581297Y-11908336D02*
X5590821Y-11889289D01*
X5590821Y-11889289D02*
X5600345Y-11879765D01*
X5600345Y-11879765D02*
X5619392Y-11870241D01*
X5619392Y-11870241D02*
X5647964Y-11870241D01*
X5647964Y-11870241D02*
X5667012Y-11879765D01*
X5667012Y-11879765D02*
X5676535Y-11889289D01*
X5676535Y-11889289D02*
X5686059Y-11908336D01*
X5686059Y-11908336D02*
X5686059Y-11965479D01*
X5686059Y-11965479D02*
X5676535Y-11984527D01*
X5676535Y-11984527D02*
X5667012Y-11994050D01*
X5667012Y-11994050D02*
X5647964Y-12003574D01*
X5647964Y-12003574D02*
X5619392Y-12003574D01*
X5743202Y-11870241D02*
X5819392Y-11870241D01*
X5771773Y-11803574D02*
X5771773Y-11975003D01*
X5771773Y-11975003D02*
X5781297Y-11994050D01*
X5781297Y-11994050D02*
X5800345Y-12003574D01*
X5800345Y-12003574D02*
X5819392Y-12003574D01*
X6006059Y-11870241D02*
X6006059Y-12070241D01*
X6006059Y-11879765D02*
X6025107Y-11870241D01*
X6025107Y-11870241D02*
X6063202Y-11870241D01*
X6063202Y-11870241D02*
X6082250Y-11879765D01*
X6082250Y-11879765D02*
X6091773Y-11889289D01*
X6091773Y-11889289D02*
X6101297Y-11908336D01*
X6101297Y-11908336D02*
X6101297Y-11965479D01*
X6101297Y-11965479D02*
X6091773Y-11984527D01*
X6091773Y-11984527D02*
X6082250Y-11994050D01*
X6082250Y-11994050D02*
X6063202Y-12003574D01*
X6063202Y-12003574D02*
X6025107Y-12003574D01*
X6025107Y-12003574D02*
X6006059Y-11994050D01*
X6215583Y-12003574D02*
X6196535Y-11994050D01*
X6196535Y-11994050D02*
X6187012Y-11975003D01*
X6187012Y-11975003D02*
X6187012Y-11803574D01*
X6377488Y-12003574D02*
X6377488Y-11898812D01*
X6377488Y-11898812D02*
X6367964Y-11879765D01*
X6367964Y-11879765D02*
X6348916Y-11870241D01*
X6348916Y-11870241D02*
X6310821Y-11870241D01*
X6310821Y-11870241D02*
X6291773Y-11879765D01*
X6377488Y-11994050D02*
X6358440Y-12003574D01*
X6358440Y-12003574D02*
X6310821Y-12003574D01*
X6310821Y-12003574D02*
X6291773Y-11994050D01*
X6291773Y-11994050D02*
X6282250Y-11975003D01*
X6282250Y-11975003D02*
X6282250Y-11955955D01*
X6282250Y-11955955D02*
X6291773Y-11936908D01*
X6291773Y-11936908D02*
X6310821Y-11927384D01*
X6310821Y-11927384D02*
X6358440Y-11927384D01*
X6358440Y-11927384D02*
X6377488Y-11917860D01*
X6444154Y-11870241D02*
X6520345Y-11870241D01*
X6472726Y-11803574D02*
X6472726Y-11975003D01*
X6472726Y-11975003D02*
X6482250Y-11994050D01*
X6482250Y-11994050D02*
X6501297Y-12003574D01*
X6501297Y-12003574D02*
X6520345Y-12003574D01*
X6663202Y-11994050D02*
X6644154Y-12003574D01*
X6644154Y-12003574D02*
X6606059Y-12003574D01*
X6606059Y-12003574D02*
X6587012Y-11994050D01*
X6587012Y-11994050D02*
X6577488Y-11975003D01*
X6577488Y-11975003D02*
X6577488Y-11898812D01*
X6577488Y-11898812D02*
X6587012Y-11879765D01*
X6587012Y-11879765D02*
X6606059Y-11870241D01*
X6606059Y-11870241D02*
X6644154Y-11870241D01*
X6644154Y-11870241D02*
X6663202Y-11879765D01*
X6663202Y-11879765D02*
X6672726Y-11898812D01*
X6672726Y-11898812D02*
X6672726Y-11917860D01*
X6672726Y-11917860D02*
X6577488Y-11936908D01*
X6844154Y-12003574D02*
X6844154Y-11803574D01*
X6844154Y-11994050D02*
X6825107Y-12003574D01*
X6825107Y-12003574D02*
X6787012Y-12003574D01*
X6787012Y-12003574D02*
X6767964Y-11994050D01*
X6767964Y-11994050D02*
X6758440Y-11984527D01*
X6758440Y-11984527D02*
X6748916Y-11965479D01*
X6748916Y-11965479D02*
X6748916Y-11908336D01*
X6748916Y-11908336D02*
X6758440Y-11889289D01*
X6758440Y-11889289D02*
X6767964Y-11879765D01*
X6767964Y-11879765D02*
X6787012Y-11870241D01*
X6787012Y-11870241D02*
X6825107Y-11870241D01*
X6825107Y-11870241D02*
X6844154Y-11879765D01*
X6920345Y-12079765D02*
X6929869Y-12070241D01*
X6929869Y-12070241D02*
X6948916Y-12041670D01*
X6948916Y-12041670D02*
X6958440Y-12022622D01*
X6958440Y-12022622D02*
X6967964Y-11994050D01*
X6967964Y-11994050D02*
X6977488Y-11946431D01*
X6977488Y-11946431D02*
X6977488Y-11908336D01*
X6977488Y-11908336D02*
X6967964Y-11860717D01*
X6967964Y-11860717D02*
X6958440Y-11832146D01*
X6958440Y-11832146D02*
X6948916Y-11813098D01*
X6948916Y-11813098D02*
X6929869Y-11784527D01*
X6929869Y-11784527D02*
X6920345Y-11775003D01*
X-209179Y-12125098D02*
X-9179Y-12325098D01*
X-9179Y-12125098D02*
X-209179Y-12325098D01*
X-38468Y-12295810D02*
X-38468Y-12154387D01*
X-179890Y-12154387D01*
X-179890Y-12295810D01*
X-38468Y-12295810D01*
X219392Y-12098574D02*
X343202Y-12098574D01*
X343202Y-12098574D02*
X276535Y-12174765D01*
X276535Y-12174765D02*
X305107Y-12174765D01*
X305107Y-12174765D02*
X324154Y-12184289D01*
X324154Y-12184289D02*
X333678Y-12193812D01*
X333678Y-12193812D02*
X343202Y-12212860D01*
X343202Y-12212860D02*
X343202Y-12260479D01*
X343202Y-12260479D02*
X333678Y-12279527D01*
X333678Y-12279527D02*
X324154Y-12289050D01*
X324154Y-12289050D02*
X305107Y-12298574D01*
X305107Y-12298574D02*
X247964Y-12298574D01*
X247964Y-12298574D02*
X228916Y-12289050D01*
X228916Y-12289050D02*
X219392Y-12279527D01*
X428916Y-12279527D02*
X438440Y-12289050D01*
X438440Y-12289050D02*
X428916Y-12298574D01*
X428916Y-12298574D02*
X419392Y-12289050D01*
X419392Y-12289050D02*
X428916Y-12279527D01*
X428916Y-12279527D02*
X428916Y-12298574D01*
X533678Y-12298574D02*
X571773Y-12298574D01*
X571773Y-12298574D02*
X590821Y-12289050D01*
X590821Y-12289050D02*
X600345Y-12279527D01*
X600345Y-12279527D02*
X619392Y-12250955D01*
X619392Y-12250955D02*
X628916Y-12212860D01*
X628916Y-12212860D02*
X628916Y-12136670D01*
X628916Y-12136670D02*
X619392Y-12117622D01*
X619392Y-12117622D02*
X609869Y-12108098D01*
X609869Y-12108098D02*
X590821Y-12098574D01*
X590821Y-12098574D02*
X552726Y-12098574D01*
X552726Y-12098574D02*
X533678Y-12108098D01*
X533678Y-12108098D02*
X524154Y-12117622D01*
X524154Y-12117622D02*
X514630Y-12136670D01*
X514630Y-12136670D02*
X514630Y-12184289D01*
X514630Y-12184289D02*
X524154Y-12203336D01*
X524154Y-12203336D02*
X533678Y-12212860D01*
X533678Y-12212860D02*
X552726Y-12222384D01*
X552726Y-12222384D02*
X590821Y-12222384D01*
X590821Y-12222384D02*
X609869Y-12212860D01*
X609869Y-12212860D02*
X619392Y-12203336D01*
X619392Y-12203336D02*
X628916Y-12184289D01*
X743202Y-12184289D02*
X724154Y-12174765D01*
X724154Y-12174765D02*
X714630Y-12165241D01*
X714630Y-12165241D02*
X705107Y-12146193D01*
X705107Y-12146193D02*
X705107Y-12136670D01*
X705107Y-12136670D02*
X714630Y-12117622D01*
X714630Y-12117622D02*
X724154Y-12108098D01*
X724154Y-12108098D02*
X743202Y-12098574D01*
X743202Y-12098574D02*
X781297Y-12098574D01*
X781297Y-12098574D02*
X800345Y-12108098D01*
X800345Y-12108098D02*
X809868Y-12117622D01*
X809868Y-12117622D02*
X819392Y-12136670D01*
X819392Y-12136670D02*
X819392Y-12146193D01*
X819392Y-12146193D02*
X809868Y-12165241D01*
X809868Y-12165241D02*
X800345Y-12174765D01*
X800345Y-12174765D02*
X781297Y-12184289D01*
X781297Y-12184289D02*
X743202Y-12184289D01*
X743202Y-12184289D02*
X724154Y-12193812D01*
X724154Y-12193812D02*
X714630Y-12203336D01*
X714630Y-12203336D02*
X705107Y-12222384D01*
X705107Y-12222384D02*
X705107Y-12260479D01*
X705107Y-12260479D02*
X714630Y-12279527D01*
X714630Y-12279527D02*
X724154Y-12289050D01*
X724154Y-12289050D02*
X743202Y-12298574D01*
X743202Y-12298574D02*
X781297Y-12298574D01*
X781297Y-12298574D02*
X800345Y-12289050D01*
X800345Y-12289050D02*
X809868Y-12279527D01*
X809868Y-12279527D02*
X819392Y-12260479D01*
X819392Y-12260479D02*
X819392Y-12222384D01*
X819392Y-12222384D02*
X809868Y-12203336D01*
X809868Y-12203336D02*
X800345Y-12193812D01*
X800345Y-12193812D02*
X781297Y-12184289D01*
X933678Y-12184289D02*
X914630Y-12174765D01*
X914630Y-12174765D02*
X905107Y-12165241D01*
X905107Y-12165241D02*
X895583Y-12146193D01*
X895583Y-12146193D02*
X895583Y-12136670D01*
X895583Y-12136670D02*
X905107Y-12117622D01*
X905107Y-12117622D02*
X914630Y-12108098D01*
X914630Y-12108098D02*
X933678Y-12098574D01*
X933678Y-12098574D02*
X971773Y-12098574D01*
X971773Y-12098574D02*
X990821Y-12108098D01*
X990821Y-12108098D02*
X1000345Y-12117622D01*
X1000345Y-12117622D02*
X1009868Y-12136670D01*
X1009868Y-12136670D02*
X1009868Y-12146193D01*
X1009868Y-12146193D02*
X1000345Y-12165241D01*
X1000345Y-12165241D02*
X990821Y-12174765D01*
X990821Y-12174765D02*
X971773Y-12184289D01*
X971773Y-12184289D02*
X933678Y-12184289D01*
X933678Y-12184289D02*
X914630Y-12193812D01*
X914630Y-12193812D02*
X905107Y-12203336D01*
X905107Y-12203336D02*
X895583Y-12222384D01*
X895583Y-12222384D02*
X895583Y-12260479D01*
X895583Y-12260479D02*
X905107Y-12279527D01*
X905107Y-12279527D02*
X914630Y-12289050D01*
X914630Y-12289050D02*
X933678Y-12298574D01*
X933678Y-12298574D02*
X971773Y-12298574D01*
X971773Y-12298574D02*
X990821Y-12289050D01*
X990821Y-12289050D02*
X1000345Y-12279527D01*
X1000345Y-12279527D02*
X1009868Y-12260479D01*
X1009868Y-12260479D02*
X1009868Y-12222384D01*
X1009868Y-12222384D02*
X1000345Y-12203336D01*
X1000345Y-12203336D02*
X990821Y-12193812D01*
X990821Y-12193812D02*
X971773Y-12184289D01*
X1095583Y-12298574D02*
X1095583Y-12165241D01*
X1095583Y-12184289D02*
X1105107Y-12174765D01*
X1105107Y-12174765D02*
X1124154Y-12165241D01*
X1124154Y-12165241D02*
X1152726Y-12165241D01*
X1152726Y-12165241D02*
X1171773Y-12174765D01*
X1171773Y-12174765D02*
X1181297Y-12193812D01*
X1181297Y-12193812D02*
X1181297Y-12298574D01*
X1181297Y-12193812D02*
X1190821Y-12174765D01*
X1190821Y-12174765D02*
X1209869Y-12165241D01*
X1209869Y-12165241D02*
X1238440Y-12165241D01*
X1238440Y-12165241D02*
X1257488Y-12174765D01*
X1257488Y-12174765D02*
X1267011Y-12193812D01*
X1267011Y-12193812D02*
X1267011Y-12298574D01*
X1362250Y-12298574D02*
X1362250Y-12165241D01*
X1362250Y-12184289D02*
X1371773Y-12174765D01*
X1371773Y-12174765D02*
X1390821Y-12165241D01*
X1390821Y-12165241D02*
X1419392Y-12165241D01*
X1419392Y-12165241D02*
X1438440Y-12174765D01*
X1438440Y-12174765D02*
X1447964Y-12193812D01*
X1447964Y-12193812D02*
X1447964Y-12298574D01*
X1447964Y-12193812D02*
X1457488Y-12174765D01*
X1457488Y-12174765D02*
X1476535Y-12165241D01*
X1476535Y-12165241D02*
X1505107Y-12165241D01*
X1505107Y-12165241D02*
X1524154Y-12174765D01*
X1524154Y-12174765D02*
X1533678Y-12193812D01*
X1533678Y-12193812D02*
X1533678Y-12298574D01*
X1891773Y-12089050D02*
X1720345Y-12346193D01*
X2116535Y-12098574D02*
X2135583Y-12098574D01*
X2135583Y-12098574D02*
X2154631Y-12108098D01*
X2154631Y-12108098D02*
X2164154Y-12117622D01*
X2164154Y-12117622D02*
X2173678Y-12136670D01*
X2173678Y-12136670D02*
X2183202Y-12174765D01*
X2183202Y-12174765D02*
X2183202Y-12222384D01*
X2183202Y-12222384D02*
X2173678Y-12260479D01*
X2173678Y-12260479D02*
X2164154Y-12279527D01*
X2164154Y-12279527D02*
X2154631Y-12289050D01*
X2154631Y-12289050D02*
X2135583Y-12298574D01*
X2135583Y-12298574D02*
X2116535Y-12298574D01*
X2116535Y-12298574D02*
X2097488Y-12289050D01*
X2097488Y-12289050D02*
X2087964Y-12279527D01*
X2087964Y-12279527D02*
X2078440Y-12260479D01*
X2078440Y-12260479D02*
X2068916Y-12222384D01*
X2068916Y-12222384D02*
X2068916Y-12174765D01*
X2068916Y-12174765D02*
X2078440Y-12136670D01*
X2078440Y-12136670D02*
X2087964Y-12117622D01*
X2087964Y-12117622D02*
X2097488Y-12108098D01*
X2097488Y-12108098D02*
X2116535Y-12098574D01*
X2268916Y-12279527D02*
X2278440Y-12289050D01*
X2278440Y-12289050D02*
X2268916Y-12298574D01*
X2268916Y-12298574D02*
X2259392Y-12289050D01*
X2259392Y-12289050D02*
X2268916Y-12279527D01*
X2268916Y-12279527D02*
X2268916Y-12298574D01*
X2468916Y-12298574D02*
X2354631Y-12298574D01*
X2411773Y-12298574D02*
X2411773Y-12098574D01*
X2411773Y-12098574D02*
X2392726Y-12127146D01*
X2392726Y-12127146D02*
X2373678Y-12146193D01*
X2373678Y-12146193D02*
X2354631Y-12155717D01*
X2649869Y-12098574D02*
X2554631Y-12098574D01*
X2554631Y-12098574D02*
X2545107Y-12193812D01*
X2545107Y-12193812D02*
X2554631Y-12184289D01*
X2554631Y-12184289D02*
X2573678Y-12174765D01*
X2573678Y-12174765D02*
X2621297Y-12174765D01*
X2621297Y-12174765D02*
X2640345Y-12184289D01*
X2640345Y-12184289D02*
X2649869Y-12193812D01*
X2649869Y-12193812D02*
X2659392Y-12212860D01*
X2659392Y-12212860D02*
X2659392Y-12260479D01*
X2659392Y-12260479D02*
X2649869Y-12279527D01*
X2649869Y-12279527D02*
X2640345Y-12289050D01*
X2640345Y-12289050D02*
X2621297Y-12298574D01*
X2621297Y-12298574D02*
X2573678Y-12298574D01*
X2573678Y-12298574D02*
X2554631Y-12289050D01*
X2554631Y-12289050D02*
X2545107Y-12279527D01*
X2726059Y-12098574D02*
X2859392Y-12098574D01*
X2859392Y-12098574D02*
X2773678Y-12298574D01*
X2973678Y-12098574D02*
X2992726Y-12098574D01*
X2992726Y-12098574D02*
X3011773Y-12108098D01*
X3011773Y-12108098D02*
X3021297Y-12117622D01*
X3021297Y-12117622D02*
X3030821Y-12136670D01*
X3030821Y-12136670D02*
X3040345Y-12174765D01*
X3040345Y-12174765D02*
X3040345Y-12222384D01*
X3040345Y-12222384D02*
X3030821Y-12260479D01*
X3030821Y-12260479D02*
X3021297Y-12279527D01*
X3021297Y-12279527D02*
X3011773Y-12289050D01*
X3011773Y-12289050D02*
X2992726Y-12298574D01*
X2992726Y-12298574D02*
X2973678Y-12298574D01*
X2973678Y-12298574D02*
X2954630Y-12289050D01*
X2954630Y-12289050D02*
X2945107Y-12279527D01*
X2945107Y-12279527D02*
X2935583Y-12260479D01*
X2935583Y-12260479D02*
X2926059Y-12222384D01*
X2926059Y-12222384D02*
X2926059Y-12174765D01*
X2926059Y-12174765D02*
X2935583Y-12136670D01*
X2935583Y-12136670D02*
X2945107Y-12117622D01*
X2945107Y-12117622D02*
X2954630Y-12108098D01*
X2954630Y-12108098D02*
X2973678Y-12098574D01*
X3116535Y-12098574D02*
X3116535Y-12136670D01*
X3192726Y-12098574D02*
X3192726Y-12136670D01*
X3455583Y-12374765D02*
X3446059Y-12365241D01*
X3446059Y-12365241D02*
X3427011Y-12336670D01*
X3427011Y-12336670D02*
X3417488Y-12317622D01*
X3417488Y-12317622D02*
X3407964Y-12289050D01*
X3407964Y-12289050D02*
X3398440Y-12241431D01*
X3398440Y-12241431D02*
X3398440Y-12203336D01*
X3398440Y-12203336D02*
X3407964Y-12155717D01*
X3407964Y-12155717D02*
X3417488Y-12127146D01*
X3417488Y-12127146D02*
X3427011Y-12108098D01*
X3427011Y-12108098D02*
X3446059Y-12079527D01*
X3446059Y-12079527D02*
X3455583Y-12070003D01*
X3627011Y-12098574D02*
X3531773Y-12098574D01*
X3531773Y-12098574D02*
X3522250Y-12193812D01*
X3522250Y-12193812D02*
X3531773Y-12184289D01*
X3531773Y-12184289D02*
X3550821Y-12174765D01*
X3550821Y-12174765D02*
X3598440Y-12174765D01*
X3598440Y-12174765D02*
X3617488Y-12184289D01*
X3617488Y-12184289D02*
X3627011Y-12193812D01*
X3627011Y-12193812D02*
X3636535Y-12212860D01*
X3636535Y-12212860D02*
X3636535Y-12260479D01*
X3636535Y-12260479D02*
X3627011Y-12279527D01*
X3627011Y-12279527D02*
X3617488Y-12289050D01*
X3617488Y-12289050D02*
X3598440Y-12298574D01*
X3598440Y-12298574D02*
X3550821Y-12298574D01*
X3550821Y-12298574D02*
X3531773Y-12289050D01*
X3531773Y-12289050D02*
X3522250Y-12279527D01*
X3712726Y-12117622D02*
X3722250Y-12108098D01*
X3722250Y-12108098D02*
X3741297Y-12098574D01*
X3741297Y-12098574D02*
X3788916Y-12098574D01*
X3788916Y-12098574D02*
X3807964Y-12108098D01*
X3807964Y-12108098D02*
X3817488Y-12117622D01*
X3817488Y-12117622D02*
X3827011Y-12136670D01*
X3827011Y-12136670D02*
X3827011Y-12155717D01*
X3827011Y-12155717D02*
X3817488Y-12184289D01*
X3817488Y-12184289D02*
X3703202Y-12298574D01*
X3703202Y-12298574D02*
X3827011Y-12298574D01*
X4032726Y-12298574D02*
X4032726Y-12098574D01*
X4118440Y-12298574D02*
X4118440Y-12193812D01*
X4118440Y-12193812D02*
X4108916Y-12174765D01*
X4108916Y-12174765D02*
X4089869Y-12165241D01*
X4089869Y-12165241D02*
X4061297Y-12165241D01*
X4061297Y-12165241D02*
X4042250Y-12174765D01*
X4042250Y-12174765D02*
X4032726Y-12184289D01*
X4242250Y-12298574D02*
X4223202Y-12289050D01*
X4223202Y-12289050D02*
X4213678Y-12279527D01*
X4213678Y-12279527D02*
X4204154Y-12260479D01*
X4204154Y-12260479D02*
X4204154Y-12203336D01*
X4204154Y-12203336D02*
X4213678Y-12184289D01*
X4213678Y-12184289D02*
X4223202Y-12174765D01*
X4223202Y-12174765D02*
X4242250Y-12165241D01*
X4242250Y-12165241D02*
X4270821Y-12165241D01*
X4270821Y-12165241D02*
X4289869Y-12174765D01*
X4289869Y-12174765D02*
X4299393Y-12184289D01*
X4299393Y-12184289D02*
X4308916Y-12203336D01*
X4308916Y-12203336D02*
X4308916Y-12260479D01*
X4308916Y-12260479D02*
X4299393Y-12279527D01*
X4299393Y-12279527D02*
X4289869Y-12289050D01*
X4289869Y-12289050D02*
X4270821Y-12298574D01*
X4270821Y-12298574D02*
X4242250Y-12298574D01*
X4423202Y-12298574D02*
X4404154Y-12289050D01*
X4404154Y-12289050D02*
X4394631Y-12270003D01*
X4394631Y-12270003D02*
X4394631Y-12098574D01*
X4575583Y-12289050D02*
X4556535Y-12298574D01*
X4556535Y-12298574D02*
X4518440Y-12298574D01*
X4518440Y-12298574D02*
X4499393Y-12289050D01*
X4499393Y-12289050D02*
X4489869Y-12270003D01*
X4489869Y-12270003D02*
X4489869Y-12193812D01*
X4489869Y-12193812D02*
X4499393Y-12174765D01*
X4499393Y-12174765D02*
X4518440Y-12165241D01*
X4518440Y-12165241D02*
X4556535Y-12165241D01*
X4556535Y-12165241D02*
X4575583Y-12174765D01*
X4575583Y-12174765D02*
X4585107Y-12193812D01*
X4585107Y-12193812D02*
X4585107Y-12212860D01*
X4585107Y-12212860D02*
X4489869Y-12231908D01*
X4661297Y-12289050D02*
X4680345Y-12298574D01*
X4680345Y-12298574D02*
X4718440Y-12298574D01*
X4718440Y-12298574D02*
X4737488Y-12289050D01*
X4737488Y-12289050D02*
X4747012Y-12270003D01*
X4747012Y-12270003D02*
X4747012Y-12260479D01*
X4747012Y-12260479D02*
X4737488Y-12241431D01*
X4737488Y-12241431D02*
X4718440Y-12231908D01*
X4718440Y-12231908D02*
X4689869Y-12231908D01*
X4689869Y-12231908D02*
X4670821Y-12222384D01*
X4670821Y-12222384D02*
X4661297Y-12203336D01*
X4661297Y-12203336D02*
X4661297Y-12193812D01*
X4661297Y-12193812D02*
X4670821Y-12174765D01*
X4670821Y-12174765D02*
X4689869Y-12165241D01*
X4689869Y-12165241D02*
X4718440Y-12165241D01*
X4718440Y-12165241D02*
X4737488Y-12174765D01*
X4813678Y-12374765D02*
X4823202Y-12365241D01*
X4823202Y-12365241D02*
X4842250Y-12336670D01*
X4842250Y-12336670D02*
X4851774Y-12317622D01*
X4851774Y-12317622D02*
X4861297Y-12289050D01*
X4861297Y-12289050D02*
X4870821Y-12241431D01*
X4870821Y-12241431D02*
X4870821Y-12203336D01*
X4870821Y-12203336D02*
X4861297Y-12155717D01*
X4861297Y-12155717D02*
X4851774Y-12127146D01*
X4851774Y-12127146D02*
X4842250Y-12108098D01*
X4842250Y-12108098D02*
X4823202Y-12079527D01*
X4823202Y-12079527D02*
X4813678Y-12070003D01*
X5143202Y-12374765D02*
X5133678Y-12365241D01*
X5133678Y-12365241D02*
X5114631Y-12336670D01*
X5114631Y-12336670D02*
X5105107Y-12317622D01*
X5105107Y-12317622D02*
X5095583Y-12289050D01*
X5095583Y-12289050D02*
X5086059Y-12241431D01*
X5086059Y-12241431D02*
X5086059Y-12203336D01*
X5086059Y-12203336D02*
X5095583Y-12155717D01*
X5095583Y-12155717D02*
X5105107Y-12127146D01*
X5105107Y-12127146D02*
X5114631Y-12108098D01*
X5114631Y-12108098D02*
X5133678Y-12079527D01*
X5133678Y-12079527D02*
X5143202Y-12070003D01*
X5219393Y-12165241D02*
X5219393Y-12298574D01*
X5219393Y-12184289D02*
X5228916Y-12174765D01*
X5228916Y-12174765D02*
X5247964Y-12165241D01*
X5247964Y-12165241D02*
X5276535Y-12165241D01*
X5276535Y-12165241D02*
X5295583Y-12174765D01*
X5295583Y-12174765D02*
X5305107Y-12193812D01*
X5305107Y-12193812D02*
X5305107Y-12298574D01*
X5428916Y-12298574D02*
X5409869Y-12289050D01*
X5409869Y-12289050D02*
X5400345Y-12279527D01*
X5400345Y-12279527D02*
X5390821Y-12260479D01*
X5390821Y-12260479D02*
X5390821Y-12203336D01*
X5390821Y-12203336D02*
X5400345Y-12184289D01*
X5400345Y-12184289D02*
X5409869Y-12174765D01*
X5409869Y-12174765D02*
X5428916Y-12165241D01*
X5428916Y-12165241D02*
X5457488Y-12165241D01*
X5457488Y-12165241D02*
X5476535Y-12174765D01*
X5476535Y-12174765D02*
X5486059Y-12184289D01*
X5486059Y-12184289D02*
X5495583Y-12203336D01*
X5495583Y-12203336D02*
X5495583Y-12260479D01*
X5495583Y-12260479D02*
X5486059Y-12279527D01*
X5486059Y-12279527D02*
X5476535Y-12289050D01*
X5476535Y-12289050D02*
X5457488Y-12298574D01*
X5457488Y-12298574D02*
X5428916Y-12298574D01*
X5552726Y-12165241D02*
X5628916Y-12165241D01*
X5581297Y-12098574D02*
X5581297Y-12270003D01*
X5581297Y-12270003D02*
X5590821Y-12289050D01*
X5590821Y-12289050D02*
X5609869Y-12298574D01*
X5609869Y-12298574D02*
X5628916Y-12298574D01*
X5815583Y-12165241D02*
X5815583Y-12365241D01*
X5815583Y-12174765D02*
X5834631Y-12165241D01*
X5834631Y-12165241D02*
X5872726Y-12165241D01*
X5872726Y-12165241D02*
X5891773Y-12174765D01*
X5891773Y-12174765D02*
X5901297Y-12184289D01*
X5901297Y-12184289D02*
X5910821Y-12203336D01*
X5910821Y-12203336D02*
X5910821Y-12260479D01*
X5910821Y-12260479D02*
X5901297Y-12279527D01*
X5901297Y-12279527D02*
X5891773Y-12289050D01*
X5891773Y-12289050D02*
X5872726Y-12298574D01*
X5872726Y-12298574D02*
X5834631Y-12298574D01*
X5834631Y-12298574D02*
X5815583Y-12289050D01*
X6025107Y-12298574D02*
X6006059Y-12289050D01*
X6006059Y-12289050D02*
X5996535Y-12270003D01*
X5996535Y-12270003D02*
X5996535Y-12098574D01*
X6187012Y-12298574D02*
X6187012Y-12193812D01*
X6187012Y-12193812D02*
X6177488Y-12174765D01*
X6177488Y-12174765D02*
X6158440Y-12165241D01*
X6158440Y-12165241D02*
X6120345Y-12165241D01*
X6120345Y-12165241D02*
X6101297Y-12174765D01*
X6187012Y-12289050D02*
X6167964Y-12298574D01*
X6167964Y-12298574D02*
X6120345Y-12298574D01*
X6120345Y-12298574D02*
X6101297Y-12289050D01*
X6101297Y-12289050D02*
X6091773Y-12270003D01*
X6091773Y-12270003D02*
X6091773Y-12250955D01*
X6091773Y-12250955D02*
X6101297Y-12231908D01*
X6101297Y-12231908D02*
X6120345Y-12222384D01*
X6120345Y-12222384D02*
X6167964Y-12222384D01*
X6167964Y-12222384D02*
X6187012Y-12212860D01*
X6253678Y-12165241D02*
X6329869Y-12165241D01*
X6282250Y-12098574D02*
X6282250Y-12270003D01*
X6282250Y-12270003D02*
X6291773Y-12289050D01*
X6291773Y-12289050D02*
X6310821Y-12298574D01*
X6310821Y-12298574D02*
X6329869Y-12298574D01*
X6472726Y-12289050D02*
X6453678Y-12298574D01*
X6453678Y-12298574D02*
X6415583Y-12298574D01*
X6415583Y-12298574D02*
X6396535Y-12289050D01*
X6396535Y-12289050D02*
X6387012Y-12270003D01*
X6387012Y-12270003D02*
X6387012Y-12193812D01*
X6387012Y-12193812D02*
X6396535Y-12174765D01*
X6396535Y-12174765D02*
X6415583Y-12165241D01*
X6415583Y-12165241D02*
X6453678Y-12165241D01*
X6453678Y-12165241D02*
X6472726Y-12174765D01*
X6472726Y-12174765D02*
X6482250Y-12193812D01*
X6482250Y-12193812D02*
X6482250Y-12212860D01*
X6482250Y-12212860D02*
X6387012Y-12231908D01*
X6653678Y-12298574D02*
X6653678Y-12098574D01*
X6653678Y-12289050D02*
X6634631Y-12298574D01*
X6634631Y-12298574D02*
X6596535Y-12298574D01*
X6596535Y-12298574D02*
X6577488Y-12289050D01*
X6577488Y-12289050D02*
X6567964Y-12279527D01*
X6567964Y-12279527D02*
X6558440Y-12260479D01*
X6558440Y-12260479D02*
X6558440Y-12203336D01*
X6558440Y-12203336D02*
X6567964Y-12184289D01*
X6567964Y-12184289D02*
X6577488Y-12174765D01*
X6577488Y-12174765D02*
X6596535Y-12165241D01*
X6596535Y-12165241D02*
X6634631Y-12165241D01*
X6634631Y-12165241D02*
X6653678Y-12174765D01*
X6729869Y-12374765D02*
X6739393Y-12365241D01*
X6739393Y-12365241D02*
X6758440Y-12336670D01*
X6758440Y-12336670D02*
X6767964Y-12317622D01*
X6767964Y-12317622D02*
X6777488Y-12289050D01*
X6777488Y-12289050D02*
X6787012Y-12241431D01*
X6787012Y-12241431D02*
X6787012Y-12203336D01*
X6787012Y-12203336D02*
X6777488Y-12155717D01*
X6777488Y-12155717D02*
X6767964Y-12127146D01*
X6767964Y-12127146D02*
X6758440Y-12108098D01*
X6758440Y-12108098D02*
X6739393Y-12079527D01*
X6739393Y-12079527D02*
X6729869Y-12070003D01*
M02*
