G04 #@! TF.GenerationSoftware,KiCad,Pcbnew,(6.99.0-1912-g359c99991b)*
G04 #@! TF.CreationDate,2022-08-15T14:05:59+07:00*
G04 #@! TF.ProjectId,atreus52,61747265-7573-4353-922e-6b696361645f,1*
G04 #@! TF.SameCoordinates,Original*
G04 #@! TF.FileFunction,Soldermask,Bot*
G04 #@! TF.FilePolarity,Negative*
%FSLAX46Y46*%
G04 Gerber Fmt 4.6, Leading zero omitted, Abs format (unit mm)*
G04 Created by KiCad (PCBNEW (6.99.0-1912-g359c99991b)) date 2022-08-15 14:05:59*
%MOMM*%
%LPD*%
G01*
G04 APERTURE LIST*
G04 Aperture macros list*
%AMRoundRect*
0 Rectangle with rounded corners*
0 $1 Rounding radius*
0 $2 $3 $4 $5 $6 $7 $8 $9 X,Y pos of 4 corners*
0 Add a 4 corners polygon primitive as box body*
4,1,4,$2,$3,$4,$5,$6,$7,$8,$9,$2,$3,0*
0 Add four circle primitives for the rounded corners*
1,1,$1+$1,$2,$3*
1,1,$1+$1,$4,$5*
1,1,$1+$1,$6,$7*
1,1,$1+$1,$8,$9*
0 Add four rect primitives between the rounded corners*
20,1,$1+$1,$2,$3,$4,$5,0*
20,1,$1+$1,$4,$5,$6,$7,0*
20,1,$1+$1,$6,$7,$8,$9,0*
20,1,$1+$1,$8,$9,$2,$3,0*%
%AMRotRect*
0 Rectangle, with rotation*
0 The origin of the aperture is its center*
0 $1 length*
0 $2 width*
0 $3 Rotation angle, in degrees counterclockwise*
0 Add horizontal line*
21,1,$1,$2,0,0,$3*%
G04 Aperture macros list end*
%ADD10RoundRect,0.150000X0.512500X0.150000X-0.512500X0.150000X-0.512500X-0.150000X0.512500X-0.150000X0*%
%ADD11O,10.000000X5.000000*%
%ADD12R,1.700000X1.000000*%
%ADD13C,5.500000*%
%ADD14C,1.750000*%
%ADD15C,3.987800*%
%ADD16C,3.300000*%
%ADD17RoundRect,0.250000X0.835780X1.162797X-1.183076X0.806818X-0.835780X-1.162797X1.183076X-0.806818X0*%
%ADD18RotRect,0.900000X1.200000X80.000000*%
%ADD19RoundRect,0.250000X0.450000X-0.262500X0.450000X0.262500X-0.450000X0.262500X-0.450000X-0.262500X0*%
%ADD20RoundRect,0.250000X1.183076X0.806818X-0.835780X1.162797X-1.183076X-0.806818X0.835780X-1.162797X0*%
%ADD21RotRect,0.900000X1.200000X100.000000*%
%ADD22C,0.650000*%
%ADD23R,0.600000X1.450000*%
%ADD24R,0.300000X1.450000*%
%ADD25RoundRect,0.250000X-0.450000X0.262500X-0.450000X-0.262500X0.450000X-0.262500X0.450000X0.262500X0*%
%ADD26O,1.700000X1.700000*%
%ADD27R,1.700000X1.700000*%
%ADD28RoundRect,0.243750X-0.456250X0.243750X-0.456250X-0.243750X0.456250X-0.243750X0.456250X0.243750X0*%
%ADD29C,1.500000*%
%ADD30O,2.800000X1.500000*%
%ADD31O,1.500000X2.800000*%
G04 #@! TA.AperFunction,Profile*
%ADD32C,0.100000*%
G04 #@! TD*
G04 APERTURE END LIST*
D10*
X137762500Y-3450000D03*
X137762500Y-4400000D03*
X137762500Y-5350000D03*
X140037500Y-5350000D03*
X140037500Y-4400000D03*
X140037500Y-3450000D03*
D11*
X271999999Y-54599999D03*
X5699999Y-54599999D03*
D12*
X147549999Y-13599999D03*
X141249999Y-13599999D03*
X147549999Y-17399999D03*
X141249999Y-17399999D03*
D13*
X252400000Y-35200000D03*
X190500160Y-85525000D03*
X154200000Y-54800000D03*
X65800000Y-19400000D03*
D14*
X186426632Y-20502424D03*
D15*
X181423809Y-21384557D03*
D14*
X176420986Y-22266690D03*
D16*
X177230625Y-19544745D03*
D17*
X173734558Y-20161196D03*
X186539155Y-15324216D03*
D16*
X183043088Y-15940667D03*
D18*
X96813480Y-46999865D03*
X97386518Y-43749999D03*
D19*
X146600000Y-8112500D03*
X146600000Y-6287500D03*
D14*
X19498776Y-48467839D03*
D15*
X14495953Y-47585706D03*
D14*
X9493130Y-46703573D03*
D16*
X11184902Y-44422695D03*
D20*
X7688834Y-43806244D03*
X21375565Y-43640400D03*
D16*
X17879497Y-43023949D03*
D21*
X214286518Y-73624932D03*
X213713480Y-70375066D03*
D14*
X233573624Y-69053028D03*
D15*
X228570801Y-69935161D03*
D14*
X223567978Y-70817294D03*
D16*
X224377617Y-68095349D03*
D17*
X220881550Y-68711800D03*
X233686147Y-63874820D03*
D16*
X230190080Y-64491271D03*
D18*
X75813480Y-57024932D03*
X76386518Y-53775066D03*
X108013480Y-92424932D03*
X108586518Y-89175066D03*
D14*
X242907970Y-12574094D03*
D15*
X237905147Y-13456227D03*
D14*
X232902324Y-14338360D03*
D16*
X233711963Y-11616415D03*
D17*
X230215896Y-12232866D03*
X243020493Y-7395886D03*
D16*
X239524426Y-8012337D03*
D21*
X182186518Y-87824932D03*
X181613480Y-84575066D03*
X175586518Y-50324932D03*
X175013480Y-47075066D03*
D14*
X189725947Y-39213771D03*
D15*
X184723124Y-40095904D03*
D14*
X179720301Y-40978037D03*
D16*
X180529940Y-38256092D03*
D17*
X177033873Y-38872543D03*
X189838470Y-34035563D03*
D16*
X186342403Y-34652014D03*
D21*
X224086518Y-19124932D03*
X223513480Y-15875066D03*
D14*
X101290092Y-22272790D03*
D15*
X96287269Y-21390657D03*
D14*
X91284446Y-20508524D03*
D16*
X92976218Y-18227646D03*
D20*
X89480150Y-17611195D03*
X103166881Y-17445351D03*
D16*
X99670813Y-16828900D03*
D21*
X204486518Y-17524932D03*
X203913480Y-14275066D03*
X193486518Y-42424932D03*
X192913480Y-39175066D03*
X200086518Y-79824932D03*
X199513480Y-76575066D03*
D18*
X114613480Y-55474932D03*
X115186518Y-52225066D03*
D14*
X80321319Y-31775975D03*
D15*
X75318496Y-30893842D03*
D14*
X70315673Y-30011709D03*
D16*
X72007445Y-27730831D03*
D20*
X68511377Y-27114380D03*
X82198108Y-26948536D03*
D16*
X78702040Y-26332085D03*
D14*
X34910808Y-70478501D03*
D15*
X29907985Y-69596368D03*
D14*
X24905162Y-68714235D03*
D16*
X26596934Y-66433357D03*
D20*
X23100866Y-65816906D03*
X36787597Y-65651062D03*
D16*
X33291529Y-65034611D03*
D18*
X82413480Y-18924932D03*
X82986518Y-15675066D03*
D22*
X136010000Y2835000D03*
X141790000Y2835000D03*
D23*
X135674999Y1389999D03*
X136449999Y1389999D03*
D24*
X137149999Y1389999D03*
X137649999Y1389999D03*
X138149999Y1389999D03*
X138649999Y1389999D03*
X139149999Y1389999D03*
X139649999Y1389999D03*
X140149999Y1389999D03*
X140649999Y1389999D03*
D23*
X141349999Y1389999D03*
X142124999Y1389999D03*
D21*
X178886518Y-69024932D03*
X178313480Y-65775066D03*
D14*
X178481472Y-84859820D03*
D15*
X173478649Y-85741953D03*
D14*
X168475826Y-86624086D03*
D16*
X169285465Y-83902141D03*
D17*
X165789398Y-84518592D03*
X178593995Y-79681612D03*
D16*
X175097928Y-80298063D03*
D14*
X83620634Y-13064628D03*
D15*
X78617811Y-12182495D03*
D14*
X73614988Y-11300362D03*
D16*
X75306760Y-9019484D03*
D20*
X71810692Y-8403033D03*
X85497423Y-8237189D03*
D16*
X82001355Y-7620738D03*
D14*
X26097407Y-11045144D03*
D15*
X21094584Y-10163011D03*
D14*
X16091761Y-9280878D03*
D16*
X17783533Y-7000000D03*
D20*
X14287465Y-6383549D03*
X27974196Y-6217705D03*
D16*
X24478128Y-5601254D03*
D18*
X79113480Y-37974932D03*
X79686518Y-34725066D03*
X93513480Y-66049865D03*
X94086518Y-62799999D03*
D14*
X226974994Y-31630333D03*
D15*
X221972171Y-32512466D03*
D14*
X216969348Y-33394599D03*
D16*
X217778987Y-30672654D03*
D17*
X214282920Y-31289105D03*
X227087517Y-26452125D03*
D16*
X223591450Y-27068576D03*
D14*
X22798091Y-29756491D03*
D15*
X17795268Y-28874358D03*
D14*
X12792445Y-27992225D03*
D16*
X14484217Y-25711347D03*
D20*
X10988149Y-25094896D03*
X24674880Y-24929052D03*
D16*
X21178812Y-24312601D03*
D21*
X243186518Y-18824932D03*
X242613480Y-15575066D03*
D25*
X142200000Y-6287500D03*
X142200000Y-8112500D03*
D19*
X135600000Y-6287500D03*
X135600000Y-8112500D03*
D26*
X165959999Y-10999999D03*
X163419999Y-10999999D03*
X160879999Y-10999999D03*
X158339999Y-10999999D03*
D27*
X155799999Y-10999999D03*
D21*
X172286518Y-31624932D03*
X171713480Y-28375066D03*
D28*
X133400000Y-8137500D03*
X133400000Y-6262500D03*
D18*
X59793480Y-56824932D03*
X60366518Y-53575066D03*
D21*
X190186518Y-23724932D03*
X189613480Y-20475066D03*
D14*
X128467139Y-86958139D03*
D15*
X123464316Y-86076006D03*
D14*
X118461493Y-85193873D03*
D16*
X120153265Y-82912995D03*
D20*
X116657197Y-82296544D03*
X130343928Y-82130700D03*
D16*
X126847860Y-81514249D03*
D14*
X91392146Y-78406832D03*
D15*
X86389323Y-77524699D03*
D14*
X81386500Y-76642566D03*
D16*
X83078272Y-74361688D03*
D20*
X79582204Y-73745237D03*
X93268935Y-73579393D03*
D16*
X89772867Y-72962942D03*
D25*
X144400000Y-6287500D03*
X144400000Y-8112500D03*
D21*
X230586518Y-56524932D03*
X230013480Y-53275066D03*
D14*
X193025263Y-57925119D03*
D15*
X188022440Y-58807252D03*
D14*
X183019617Y-59689385D03*
D16*
X183829256Y-56967440D03*
D17*
X180333189Y-57583891D03*
X193137786Y-52746911D03*
D16*
X189641719Y-53363362D03*
D14*
X204096090Y-11294262D03*
D15*
X199093267Y-12176395D03*
D14*
X194090444Y-13058528D03*
D16*
X194900083Y-10336583D03*
D17*
X191404016Y-10953034D03*
X204208613Y-6116054D03*
D16*
X200712546Y-6732505D03*
D14*
X94691461Y-59695485D03*
D15*
X89688638Y-58813352D03*
D14*
X84685815Y-57931219D03*
D16*
X86377587Y-55650341D03*
D20*
X82881519Y-55033890D03*
X96568250Y-54868046D03*
D16*
X93072182Y-54251595D03*
D14*
X159254933Y-85193873D03*
D15*
X154252110Y-86076006D03*
D14*
X149249287Y-86958139D03*
D16*
X150058926Y-84236194D03*
D17*
X146562859Y-84852645D03*
X159367456Y-80015665D03*
D16*
X155871389Y-80632116D03*
D21*
X159586518Y-91324932D03*
X159013480Y-88075066D03*
D14*
X54143100Y-70823393D03*
D15*
X49140277Y-69941260D03*
D14*
X44137454Y-69059127D03*
D16*
X45829226Y-66778249D03*
D20*
X42333158Y-66161798D03*
X56019889Y-65995954D03*
D16*
X52523821Y-65379503D03*
D14*
X38210123Y-51767154D03*
D15*
X33207300Y-50885021D03*
D14*
X28204477Y-50002888D03*
D16*
X29896249Y-47722010D03*
D20*
X26400181Y-47105559D03*
X40086912Y-46939715D03*
D16*
X36590844Y-46323264D03*
D14*
X77022003Y-50487323D03*
D15*
X72019180Y-49605190D03*
D14*
X67016357Y-48723057D03*
D16*
X68708129Y-46442179D03*
D20*
X65212061Y-45825728D03*
X78898792Y-45659884D03*
D16*
X75402724Y-45043433D03*
D14*
X109235252Y-86630186D03*
D15*
X104232429Y-85748053D03*
D14*
X99229606Y-84865920D03*
D16*
X100921378Y-82585042D03*
D20*
X97425310Y-81968591D03*
X111112041Y-81802747D03*
D16*
X107615973Y-81186296D03*
D14*
X131764451Y-68258139D03*
D15*
X126761628Y-67376006D03*
D14*
X121758805Y-66493873D03*
D16*
X123450577Y-64212995D03*
D20*
X119954509Y-63596544D03*
X133641240Y-63430700D03*
D16*
X130145172Y-62814249D03*
D14*
X196324578Y-76636466D03*
D15*
X191321755Y-77518599D03*
D14*
X186318932Y-78400732D03*
D16*
X187128571Y-75678787D03*
D17*
X183632504Y-76295238D03*
X196437101Y-71458258D03*
D16*
X192941034Y-72074709D03*
D14*
X57442415Y-52112046D03*
D15*
X52439592Y-51229913D03*
D14*
X47436769Y-50347780D03*
D16*
X49128541Y-48066902D03*
D20*
X45632473Y-47450451D03*
X59319204Y-47284607D03*
D16*
X55823136Y-46668156D03*
D14*
X207395405Y-30005610D03*
D15*
X202392582Y-30887743D03*
D14*
X197389759Y-31769876D03*
D16*
X198199398Y-29047931D03*
D17*
X194703331Y-29664382D03*
X207507928Y-24827402D03*
D16*
X204011861Y-25443853D03*
D21*
X246486518Y-37424932D03*
X245913480Y-34175066D03*
X271786518Y-71524932D03*
X271213480Y-68275066D03*
D14*
X115833883Y-49207491D03*
D15*
X110831060Y-48325358D03*
D14*
X105828237Y-47443225D03*
D16*
X107520009Y-45162347D03*
D20*
X104023941Y-44545896D03*
X117710672Y-44380052D03*
D16*
X114214604Y-43763601D03*
D18*
X37238480Y-75374932D03*
X37811518Y-72125066D03*
D21*
X253086518Y-74824932D03*
X252513480Y-71575066D03*
D14*
X16199460Y-67179186D03*
D15*
X11196637Y-66297053D03*
D14*
X6193814Y-65414920D03*
D16*
X7885586Y-63134042D03*
D20*
X4389518Y-62517591D03*
X18076249Y-62351747D03*
D16*
X14580181Y-61735296D03*
D14*
X60741730Y-33400699D03*
D15*
X55738907Y-32518566D03*
D14*
X50736084Y-31636433D03*
D16*
X52427856Y-29355555D03*
D20*
X48931788Y-28739104D03*
X62618519Y-28573260D03*
D16*
X59122451Y-27956809D03*
D14*
X230274309Y-50341680D03*
D15*
X225271486Y-51223813D03*
D14*
X220268663Y-52105946D03*
D16*
X221078302Y-49384001D03*
D17*
X217582235Y-50000452D03*
X230386832Y-45163472D03*
D16*
X226890765Y-45779923D03*
D18*
X90213480Y-85099865D03*
X90786518Y-81849999D03*
D14*
X271517264Y-65408820D03*
D15*
X266514441Y-66290953D03*
D14*
X261511618Y-67173086D03*
D16*
X262321257Y-64451141D03*
D17*
X258825190Y-65067592D03*
X271629787Y-60230612D03*
D16*
X268133720Y-60847063D03*
D14*
X252805916Y-68708135D03*
D15*
X247803093Y-69590268D03*
D14*
X242800270Y-70472401D03*
D16*
X243609909Y-67750456D03*
D17*
X240113842Y-68366907D03*
X252918439Y-63529927D03*
D16*
X249422372Y-64146378D03*
D21*
X210986518Y-54924932D03*
X210413480Y-51675066D03*
D18*
X18513480Y-72199865D03*
X19086518Y-68949999D03*
D14*
X44808754Y-14344459D03*
D15*
X39805931Y-13462326D03*
D14*
X34803108Y-12580193D03*
D16*
X36494880Y-10299315D03*
D20*
X32998812Y-9682864D03*
X46685543Y-9517020D03*
D16*
X43189475Y-8900569D03*
D21*
X249786518Y-56124932D03*
X249213480Y-52875066D03*
D14*
X246207285Y-31285441D03*
D15*
X241204462Y-32167574D03*
D14*
X236201639Y-33049707D03*
D16*
X237011278Y-30327762D03*
D17*
X233515211Y-30944213D03*
X246319808Y-26107233D03*
D16*
X242823741Y-26723684D03*
D14*
X155957635Y-66493873D03*
D15*
X150954812Y-67376006D03*
D14*
X145951989Y-68258139D03*
D16*
X146761628Y-65536194D03*
D17*
X143265561Y-66152645D03*
X156070158Y-61315665D03*
D16*
X152574091Y-61932116D03*
D18*
X117926961Y-36424932D03*
X118499999Y-33175066D03*
D14*
X112534568Y-67918839D03*
D15*
X107531745Y-67036706D03*
D14*
X102528922Y-66154573D03*
D16*
X104220694Y-63873695D03*
D20*
X100724626Y-63257244D03*
X114411357Y-63091400D03*
D16*
X110915289Y-62474949D03*
D21*
X227286518Y-37824932D03*
X226713480Y-34575066D03*
X196786518Y-61124932D03*
X196213480Y-57875066D03*
X261986518Y-15524932D03*
X261413480Y-12275066D03*
X256186518Y-55024932D03*
X255613480Y-51775066D03*
D18*
X134213480Y-72524932D03*
X134786518Y-69275066D03*
X28576961Y-15049865D03*
X29149999Y-11799999D03*
D21*
X265186518Y-34124932D03*
X264613480Y-30875066D03*
D18*
X72513480Y-76074932D03*
X73086518Y-72825066D03*
D21*
X156286518Y-72624932D03*
X155713480Y-69375066D03*
D18*
X21863480Y-53149865D03*
X22436518Y-49899999D03*
D14*
X171882841Y-47437126D03*
D15*
X166880018Y-48319259D03*
D14*
X161877195Y-49201392D03*
D16*
X162686834Y-46479447D03*
D17*
X159190767Y-47095898D03*
X171995364Y-42258918D03*
D16*
X168499297Y-42875369D03*
D18*
X43963480Y-37274932D03*
X44536518Y-34025066D03*
X100113480Y-28124932D03*
X100686518Y-24875066D03*
D14*
X73722688Y-69198670D03*
D15*
X68719865Y-68316537D03*
D14*
X63717042Y-67434404D03*
D16*
X65408814Y-65153526D03*
D20*
X61912746Y-64537075D03*
X75599477Y-64371231D03*
D16*
X72103409Y-63754780D03*
D21*
X207686518Y-36224932D03*
X207113480Y-32975066D03*
D14*
X41509439Y-33055807D03*
D15*
X36506616Y-32173674D03*
D14*
X31503793Y-31291541D03*
D16*
X33195565Y-29010663D03*
D20*
X29699497Y-28394212D03*
X43386228Y-28228368D03*
D16*
X39890160Y-27611917D03*
D21*
X233886518Y-75224932D03*
X233313480Y-71975066D03*
D18*
X130913480Y-91324932D03*
X131486518Y-88075066D03*
X25213480Y-34099865D03*
X25786518Y-30849999D03*
D14*
X249506601Y-49996788D03*
D15*
X244503778Y-50878921D03*
D14*
X239500955Y-51761054D03*
D16*
X240310594Y-49039109D03*
D17*
X236814527Y-49655560D03*
X249619124Y-44818580D03*
D16*
X246123057Y-45435031D03*
D14*
X97990777Y-40984137D03*
D15*
X92987954Y-40102004D03*
D14*
X87985131Y-39219871D03*
D16*
X89676903Y-36938993D03*
D20*
X86180835Y-36322542D03*
X99867566Y-36156698D03*
D16*
X96371498Y-35540247D03*
D14*
X168583525Y-28725778D03*
D15*
X163580702Y-29607911D03*
D14*
X158577879Y-30490044D03*
D16*
X159387518Y-27768099D03*
D17*
X155891451Y-28384550D03*
X168696048Y-23547570D03*
D16*
X165199981Y-24164021D03*
D18*
X56438480Y-75874932D03*
X57011518Y-72625066D03*
X40588480Y-56324932D03*
X41161518Y-53075066D03*
D14*
X119133199Y-30496144D03*
D15*
X114130376Y-29614011D03*
D14*
X109127553Y-28731878D03*
D16*
X110819325Y-26451000D03*
D20*
X107323257Y-25834549D03*
X121009988Y-25668705D03*
D16*
X117513920Y-25052254D03*
D14*
X175182156Y-66148473D03*
D15*
X170179333Y-67030606D03*
D14*
X165176510Y-67912739D03*
D16*
X165986149Y-65190794D03*
D17*
X162490082Y-65807245D03*
X175294679Y-60970265D03*
D16*
X171798612Y-61586716D03*
D18*
X69613480Y-15924932D03*
X70186518Y-12675066D03*
D14*
X213994036Y-67428304D03*
D15*
X208991213Y-68310437D03*
D14*
X203988390Y-69192570D03*
D16*
X204798029Y-66470625D03*
D17*
X201301962Y-67087076D03*
X214106559Y-62250096D03*
D16*
X210610492Y-62866547D03*
D29*
X149894050Y-32000000D03*
D30*
X150594049Y-31999999D03*
D29*
X149894050Y-34000000D03*
D30*
X150594049Y-33999999D03*
D29*
X149894050Y-36000000D03*
D30*
X150594049Y-35999999D03*
D29*
X149894050Y-38000000D03*
D30*
X150594049Y-37999999D03*
D29*
X149894050Y-40000000D03*
D30*
X150594049Y-39999999D03*
D29*
X149894050Y-42000000D03*
D30*
X150594049Y-41999999D03*
D29*
X149894050Y-44000000D03*
D30*
X150594049Y-43999999D03*
D29*
X149894050Y-46000000D03*
D30*
X150594049Y-45999999D03*
D29*
X149894050Y-48000000D03*
D30*
X150594049Y-47999999D03*
D29*
X149894050Y-50000000D03*
D30*
X150594049Y-49999999D03*
D29*
X147894050Y-52000000D03*
D31*
X147894049Y-52699999D03*
D29*
X145894050Y-52000000D03*
D31*
X145894049Y-52699999D03*
D29*
X143894050Y-52000000D03*
D31*
X143894049Y-52699999D03*
D29*
X141894050Y-52000000D03*
D31*
X141894049Y-52699999D03*
D29*
X139894050Y-52000000D03*
D31*
X139894049Y-52699999D03*
D29*
X137894050Y-52000000D03*
D31*
X137894049Y-52699999D03*
D29*
X135894050Y-52000000D03*
D31*
X135894049Y-52699999D03*
D29*
X133894050Y-52000000D03*
D31*
X133894049Y-52699999D03*
D29*
X131894050Y-52000000D03*
D31*
X131894049Y-52699999D03*
D29*
X129894050Y-52000000D03*
D31*
X129894049Y-52699999D03*
D29*
X127894050Y-50000000D03*
D30*
X127194049Y-49999999D03*
D29*
X127894050Y-48000000D03*
D30*
X127194049Y-47999999D03*
D29*
X127894050Y-46000000D03*
D30*
X127194049Y-45999999D03*
D29*
X127894050Y-44000000D03*
D30*
X127194049Y-43999999D03*
D29*
X127894050Y-42000000D03*
D30*
X127194049Y-41999999D03*
D29*
X127894050Y-40000000D03*
D30*
X127194049Y-39999999D03*
D29*
X127894050Y-38000000D03*
D30*
X127194049Y-37999999D03*
D29*
X127894050Y-36000000D03*
D30*
X127194049Y-35999999D03*
D29*
X127894050Y-34000000D03*
D30*
X127194049Y-33999999D03*
D29*
X127894050Y-32000000D03*
D30*
X127194049Y-31999999D03*
D29*
X129894050Y-30000000D03*
D31*
X129894049Y-29299999D03*
D29*
X131894050Y-30000000D03*
D31*
X131894049Y-29299999D03*
D29*
X133894050Y-30000000D03*
D31*
X133894049Y-29299999D03*
D29*
X135894050Y-30000000D03*
D31*
X135894049Y-29299999D03*
D29*
X137894050Y-30000000D03*
D31*
X137894049Y-29299999D03*
D29*
X139894050Y-30000000D03*
D31*
X139894049Y-29299999D03*
D29*
X141894050Y-30000000D03*
D31*
X141894049Y-29299999D03*
D29*
X143894050Y-30000000D03*
D31*
X143894049Y-29299999D03*
D29*
X145894050Y-30000000D03*
D31*
X145894049Y-29299999D03*
D29*
X147894050Y-30000000D03*
D31*
X147894049Y-29299999D03*
D14*
X210694721Y-48716957D03*
D15*
X205691898Y-49599090D03*
D14*
X200689075Y-50481223D03*
D16*
X201498714Y-47759278D03*
D17*
X198002647Y-48375729D03*
X210807244Y-43538749D03*
D16*
X207311177Y-44155200D03*
D14*
X64041046Y-14689352D03*
D15*
X59038223Y-13807219D03*
D14*
X54035400Y-12925086D03*
D16*
X55727172Y-10644208D03*
D20*
X52231104Y-10027757D03*
X65917835Y-9861913D03*
D16*
X62421767Y-9245462D03*
D14*
X261619317Y-9274778D03*
D15*
X256616494Y-10156911D03*
D14*
X251613671Y-11039044D03*
D16*
X252423310Y-8317099D03*
D17*
X248927243Y-8933550D03*
X261731840Y-4096570D03*
D16*
X258235773Y-4713021D03*
D14*
X223675678Y-12918986D03*
D15*
X218672855Y-13801119D03*
D14*
X213670032Y-14683252D03*
D16*
X214479671Y-11961307D03*
D17*
X210983604Y-12577758D03*
X223788201Y-7740778D03*
D16*
X220292134Y-8357229D03*
D14*
X264918633Y-27986125D03*
D15*
X259915810Y-28868258D03*
D14*
X254912987Y-29750391D03*
D16*
X255722626Y-27028446D03*
D17*
X252226559Y-27644897D03*
X265031156Y-22807917D03*
D16*
X261535089Y-23424368D03*
D18*
X63163480Y-37774932D03*
X63736518Y-34525066D03*
X111313480Y-74524932D03*
X111886518Y-71275066D03*
D14*
X268217948Y-46697473D03*
D15*
X263215125Y-47579606D03*
D14*
X258212302Y-48461739D03*
D16*
X259021941Y-45739794D03*
D17*
X255525874Y-46356245D03*
X268330471Y-41519265D03*
D16*
X264834404Y-42135716D03*
D18*
X47313480Y-18224932D03*
X47886518Y-14975066D03*
D32*
X0Y-72501716D02*
X12430657Y-2001308D01*
X133800000Y1000000D02*
X133800000Y8100000D01*
X132800000Y0D02*
G75*
G03*
X133800000Y1000000I0J1000000D01*
G01*
X132800000Y0D02*
X14783533Y0D01*
X134800000Y9100000D02*
X143000000Y9100000D01*
X144000000Y8100000D02*
G75*
G03*
X143000000Y9100000I-1000000J0D01*
G01*
X265366904Y-2046589D02*
X277788105Y-72501716D01*
X113653555Y-95890982D02*
X92634552Y-94000000D01*
X164134552Y-95890982D02*
X113653555Y-95890982D01*
X265366831Y-2046599D02*
G75*
G03*
X263052313Y-1I-2359831J-336701D01*
G01*
X92634552Y-94000000D02*
X1648394Y-74923177D01*
X145000000Y0D02*
X263052313Y0D01*
X1Y-72501716D02*
G75*
G03*
X1648394Y-74923176I1999134J-410899D01*
G01*
X276139704Y-74923135D02*
G75*
G03*
X277788104Y-72501716I-350704J2010535D01*
G01*
X14783533Y-4D02*
G75*
G03*
X12430658Y-2001308I587J-2384446D01*
G01*
X144000000Y1000000D02*
G75*
G03*
X145000000Y0I1000000J0D01*
G01*
X276139711Y-74923177D02*
X185153553Y-94000000D01*
X144000000Y8100000D02*
X144000000Y1000000D01*
X185153553Y-94000000D02*
X164134552Y-95890982D01*
X134800000Y9100000D02*
G75*
G03*
X133800000Y8100000I0J-1000000D01*
G01*
M02*
