M48
; DRILL file {KiCad (6.99.0-1912-g359c99991b)} date Mon Aug 15 14:06:02 2022
; FORMAT={-:-/ absolute / metric / decimal}
; #@! TF.CreationDate,2022-08-15T14:06:02+07:00
; #@! TF.GenerationSoftware,Kicad,Pcbnew,(6.99.0-1912-g359c99991b)
; #@! TF.FileFunction,MixedPlating,1,2
FMAT,2
METRIC
; #@! TA.AperFunction,Plated,PTH,ViaDrill
T1C0.250
; #@! TA.AperFunction,Plated,PTH,ComponentDrill
T2C0.600
; #@! TA.AperFunction,Plated,PTH,ComponentDrill
T3C1.000
; #@! TA.AperFunction,Plated,PTH,ComponentDrill
T4C2.500
; #@! TA.AperFunction,Plated,PTH,ComponentDrill
T5C3.000
; #@! TA.AperFunction,NonPlated,NPTH,ComponentDrill
T6C0.650
; #@! TA.AperFunction,NonPlated,NPTH,ComponentDrill
T7C1.750
; #@! TA.AperFunction,NonPlated,NPTH,ComponentDrill
T8C3.988
%
G90
G05
T1
X117.6Y-55.5
X123.2Y-34.0
X134.5Y-15.5
X134.7Y-4.4
X136.3Y-4.4
X137.5Y-8.1
X137.6Y-1.339
X137.9Y-70.2
X139.7Y-1.339
X140.203Y-8.112
X141.5Y-4.4
X141.9Y-22.9
X142.867Y-72.626
X143.9Y-23.9
X145.9Y-24.7
X155.2Y-7.227
X155.4Y-32.0
X163.0Y-55.7
T3
X127.894Y-32.0
X127.894Y-34.0
X127.894Y-36.0
X127.894Y-38.0
X127.894Y-40.0
X127.894Y-42.0
X127.894Y-44.0
X127.894Y-46.0
X127.894Y-48.0
X127.894Y-50.0
X129.894Y-30.0
X129.894Y-52.0
X131.894Y-30.0
X131.894Y-52.0
X133.894Y-30.0
X133.894Y-52.0
X135.894Y-30.0
X135.894Y-52.0
X137.894Y-30.0
X137.894Y-52.0
X139.894Y-30.0
X139.894Y-52.0
X141.894Y-30.0
X141.894Y-52.0
X143.894Y-30.0
X143.894Y-52.0
X145.894Y-30.0
X145.894Y-52.0
X147.894Y-30.0
X147.894Y-52.0
X149.894Y-32.0
X149.894Y-34.0
X149.894Y-36.0
X149.894Y-38.0
X149.894Y-40.0
X149.894Y-42.0
X149.894Y-44.0
X149.894Y-46.0
X149.894Y-48.0
X149.894Y-50.0
X155.8Y-11.0
X158.34Y-11.0
X160.88Y-11.0
X163.42Y-11.0
X165.96Y-11.0
T5
X7.886Y-63.134
X11.185Y-44.423
X14.484Y-25.711
X14.58Y-61.735
X17.784Y-7.0
X17.879Y-43.024
X21.179Y-24.313
X24.478Y-5.601
X26.597Y-66.433
X29.896Y-47.722
X33.196Y-29.011
X33.292Y-65.035
X36.495Y-10.299
X36.591Y-46.323
X39.89Y-27.612
X43.189Y-8.901
X45.829Y-66.778
X49.129Y-48.067
X52.428Y-29.356
X52.524Y-65.38
X55.727Y-10.644
X55.823Y-46.668
X59.122Y-27.957
X62.422Y-9.245
X65.409Y-65.154
X68.708Y-46.442
X72.007Y-27.731
X72.103Y-63.755
X75.307Y-9.019
X75.403Y-45.043
X78.702Y-26.332
X82.001Y-7.621
X83.078Y-74.362
X86.378Y-55.65
X89.677Y-36.939
X89.773Y-72.963
X92.976Y-18.228
X93.072Y-54.252
X96.371Y-35.54
X99.671Y-16.829
X100.921Y-82.585
X104.221Y-63.874
X107.52Y-45.162
X107.616Y-81.186
X110.819Y-26.451
X110.915Y-62.475
X114.215Y-43.764
X117.514Y-25.052
X120.153Y-82.913
X123.451Y-64.213
X126.848Y-81.514
X130.145Y-62.814
X146.762Y-65.536
X150.059Y-84.236
X152.574Y-61.932
X155.871Y-80.632
X159.388Y-27.768
X162.687Y-46.479
X165.2Y-24.164
X165.986Y-65.191
X168.499Y-42.875
X169.285Y-83.902
X171.799Y-61.587
X175.098Y-80.298
X177.231Y-19.545
X180.53Y-38.256
X183.043Y-15.941
X183.829Y-56.967
X186.342Y-34.652
X187.129Y-75.679
X189.642Y-53.363
X192.941Y-72.075
X194.9Y-10.337
X198.199Y-29.048
X200.713Y-6.733
X201.499Y-47.759
X204.012Y-25.444
X204.798Y-66.471
X207.311Y-44.155
X210.61Y-62.867
X214.48Y-11.961
X217.779Y-30.673
X220.292Y-8.357
X221.078Y-49.384
X223.591Y-27.069
X224.378Y-68.095
X226.891Y-45.78
X230.19Y-64.491
X233.712Y-11.616
X237.011Y-30.328
X239.524Y-8.012
X240.311Y-49.039
X242.824Y-26.724
X243.61Y-67.75
X246.123Y-45.435
X249.422Y-64.146
X252.423Y-8.317
X255.723Y-27.028
X258.236Y-4.713
X259.022Y-45.74
X261.535Y-23.424
X262.321Y-64.451
X264.834Y-42.136
X268.134Y-60.847
T6
X136.01Y2.835
X141.79Y2.835
T7
X6.194Y-65.415
X9.493Y-46.704
X12.792Y-27.992
X16.092Y-9.281
X16.199Y-67.179
X19.499Y-48.468
X22.798Y-29.756
X24.905Y-68.714
X26.097Y-11.045
X28.204Y-50.003
X31.504Y-31.292
X34.803Y-12.58
X34.911Y-70.479
X38.21Y-51.767
X41.509Y-33.056
X44.137Y-69.059
X44.809Y-14.344
X47.437Y-50.348
X50.736Y-31.636
X54.035Y-12.925
X54.143Y-70.823
X57.442Y-52.112
X60.742Y-33.401
X63.717Y-67.434
X64.041Y-14.689
X67.016Y-48.723
X70.316Y-30.012
X73.615Y-11.3
X73.723Y-69.199
X77.022Y-50.487
X80.321Y-31.776
X81.386Y-76.643
X83.621Y-13.065
X84.686Y-57.931
X87.985Y-39.22
X91.284Y-20.509
X91.392Y-78.407
X94.691Y-59.695
X97.991Y-40.984
X99.23Y-84.866
X101.29Y-22.273
X102.529Y-66.155
X105.828Y-47.443
X109.128Y-28.732
X109.235Y-86.63
X112.535Y-67.919
X115.834Y-49.207
X118.461Y-85.194
X119.133Y-30.496
X121.759Y-66.494
X128.467Y-86.958
X131.764Y-68.258
X145.952Y-68.258
X149.249Y-86.958
X155.958Y-66.494
X158.578Y-30.49
X159.255Y-85.194
X161.877Y-49.201
X165.177Y-67.913
X168.476Y-86.624
X168.584Y-28.726
X171.883Y-47.437
X175.182Y-66.148
X176.421Y-22.267
X178.481Y-84.86
X179.72Y-40.978
X183.02Y-59.689
X186.319Y-78.401
X186.427Y-20.502
X189.726Y-39.214
X193.025Y-57.925
X194.09Y-13.059
X196.325Y-76.636
X197.39Y-31.77
X200.689Y-50.481
X203.988Y-69.193
X204.096Y-11.294
X207.395Y-30.006
X210.695Y-48.717
X213.67Y-14.683
X213.994Y-67.428
X216.969Y-33.395
X220.269Y-52.106
X223.568Y-70.817
X223.676Y-12.919
X226.975Y-31.63
X230.274Y-50.342
X232.902Y-14.338
X233.574Y-69.053
X236.202Y-33.05
X239.501Y-51.761
X242.8Y-70.472
X242.908Y-12.574
X246.207Y-31.285
X249.507Y-49.997
X251.614Y-11.039
X252.806Y-68.708
X254.913Y-29.75
X258.212Y-48.462
X261.512Y-67.173
X261.619Y-9.275
X264.919Y-27.986
X268.218Y-46.697
X271.517Y-65.409
T8
X11.197Y-66.297
X14.496Y-47.586
X17.795Y-28.874
X21.095Y-10.163
X29.908Y-69.596
X33.207Y-50.885
X36.507Y-32.174
X39.806Y-13.462
X49.14Y-69.941
X52.44Y-51.23
X55.739Y-32.519
X59.038Y-13.807
X68.72Y-68.317
X72.019Y-49.605
X75.318Y-30.894
X78.618Y-12.182
X86.389Y-77.525
X89.689Y-58.813
X92.988Y-40.102
X96.287Y-21.391
X104.232Y-85.748
X107.532Y-67.037
X110.831Y-48.325
X114.13Y-29.614
X123.464Y-86.076
X126.762Y-67.376
X150.955Y-67.376
X154.252Y-86.076
X163.581Y-29.608
X166.88Y-48.319
X170.179Y-67.031
X173.479Y-85.742
X181.424Y-21.385
X184.723Y-40.096
X188.022Y-58.807
X191.322Y-77.519
X199.093Y-12.176
X202.393Y-30.888
X205.692Y-49.599
X208.991Y-68.31
X218.673Y-13.801
X221.972Y-32.512
X225.271Y-51.224
X228.571Y-69.935
X237.905Y-13.456
X241.204Y-32.168
X244.504Y-50.879
X247.803Y-69.59
X256.616Y-10.157
X259.916Y-28.868
X263.215Y-47.58
X266.514Y-66.291
T2
X134.58Y6.785G85X134.58Y6.185
G05
X134.58Y2.855G85X134.58Y1.755
G05
X143.22Y6.785G85X143.22Y6.185
G05
X143.22Y2.855G85X143.22Y1.755
G05
T4
X3.45Y-54.6G85X7.95Y-54.6
G05
X64.55Y-19.4G85X67.05Y-19.4
G05
X152.95Y-54.8G85X155.45Y-54.8
G05
X189.25Y-85.525G85X191.75Y-85.525
G05
X251.15Y-35.2G85X253.65Y-35.2
G05
X269.75Y-54.6G85X274.25Y-54.6
G05
T0
M30
