G04 #@! TF.GenerationSoftware,KiCad,Pcbnew,(6.99.0-1912-g359c99991b)*
G04 #@! TF.CreationDate,2022-08-15T14:05:59+07:00*
G04 #@! TF.ProjectId,atreus52,61747265-7573-4353-922e-6b696361645f,1*
G04 #@! TF.SameCoordinates,Original*
G04 #@! TF.FileFunction,Paste,Bot*
G04 #@! TF.FilePolarity,Positive*
%FSLAX46Y46*%
G04 Gerber Fmt 4.6, Leading zero omitted, Abs format (unit mm)*
G04 Created by KiCad (PCBNEW (6.99.0-1912-g359c99991b)) date 2022-08-15 14:05:59*
%MOMM*%
%LPD*%
G01*
G04 APERTURE LIST*
G04 Aperture macros list*
%AMRoundRect*
0 Rectangle with rounded corners*
0 $1 Rounding radius*
0 $2 $3 $4 $5 $6 $7 $8 $9 X,Y pos of 4 corners*
0 Add a 4 corners polygon primitive as box body*
4,1,4,$2,$3,$4,$5,$6,$7,$8,$9,$2,$3,0*
0 Add four circle primitives for the rounded corners*
1,1,$1+$1,$2,$3*
1,1,$1+$1,$4,$5*
1,1,$1+$1,$6,$7*
1,1,$1+$1,$8,$9*
0 Add four rect primitives between the rounded corners*
20,1,$1+$1,$2,$3,$4,$5,0*
20,1,$1+$1,$4,$5,$6,$7,0*
20,1,$1+$1,$6,$7,$8,$9,0*
20,1,$1+$1,$8,$9,$2,$3,0*%
%AMRotRect*
0 Rectangle, with rotation*
0 The origin of the aperture is its center*
0 $1 length*
0 $2 width*
0 $3 Rotation angle, in degrees counterclockwise*
0 Add horizontal line*
21,1,$1,$2,0,0,$3*%
G04 Aperture macros list end*
%ADD10RoundRect,0.150000X0.512500X0.150000X-0.512500X0.150000X-0.512500X-0.150000X0.512500X-0.150000X0*%
%ADD11R,1.700000X1.000000*%
%ADD12RoundRect,0.250000X0.835780X1.162797X-1.183076X0.806818X-0.835780X-1.162797X1.183076X-0.806818X0*%
%ADD13RotRect,0.900000X1.200000X80.000000*%
%ADD14RoundRect,0.250000X0.450000X-0.262500X0.450000X0.262500X-0.450000X0.262500X-0.450000X-0.262500X0*%
%ADD15RoundRect,0.250000X1.183076X0.806818X-0.835780X1.162797X-1.183076X-0.806818X0.835780X-1.162797X0*%
%ADD16RotRect,0.900000X1.200000X100.000000*%
%ADD17R,0.600000X1.450000*%
%ADD18R,0.300000X1.450000*%
%ADD19RoundRect,0.250000X-0.450000X0.262500X-0.450000X-0.262500X0.450000X-0.262500X0.450000X0.262500X0*%
%ADD20RoundRect,0.243750X-0.456250X0.243750X-0.456250X-0.243750X0.456250X-0.243750X0.456250X0.243750X0*%
%ADD21O,2.800000X1.500000*%
%ADD22O,1.500000X2.800000*%
G04 #@! TA.AperFunction,Profile*
%ADD23C,0.100000*%
G04 #@! TD*
G04 APERTURE END LIST*
D10*
X137762500Y-3450000D03*
X137762500Y-4400000D03*
X137762500Y-5350000D03*
X140037500Y-5350000D03*
X140037500Y-4400000D03*
X140037500Y-3450000D03*
D11*
X147549999Y-13599999D03*
X141249999Y-13599999D03*
X147549999Y-17399999D03*
X141249999Y-17399999D03*
D12*
X173734558Y-20161196D03*
X186539155Y-15324216D03*
D13*
X96813480Y-46999865D03*
X97386518Y-43749999D03*
D14*
X146600000Y-8112500D03*
X146600000Y-6287500D03*
D15*
X7688834Y-43806244D03*
X21375565Y-43640400D03*
D16*
X214286518Y-73624932D03*
X213713480Y-70375066D03*
D12*
X220881550Y-68711800D03*
X233686147Y-63874820D03*
D13*
X75813480Y-57024932D03*
X76386518Y-53775066D03*
X108013480Y-92424932D03*
X108586518Y-89175066D03*
D12*
X230215896Y-12232866D03*
X243020493Y-7395886D03*
D16*
X182186518Y-87824932D03*
X181613480Y-84575066D03*
X175586518Y-50324932D03*
X175013480Y-47075066D03*
D12*
X177033873Y-38872543D03*
X189838470Y-34035563D03*
D16*
X224086518Y-19124932D03*
X223513480Y-15875066D03*
D15*
X89480150Y-17611195D03*
X103166881Y-17445351D03*
D16*
X204486518Y-17524932D03*
X203913480Y-14275066D03*
X193486518Y-42424932D03*
X192913480Y-39175066D03*
X200086518Y-79824932D03*
X199513480Y-76575066D03*
D13*
X114613480Y-55474932D03*
X115186518Y-52225066D03*
D15*
X68511377Y-27114380D03*
X82198108Y-26948536D03*
X23100866Y-65816906D03*
X36787597Y-65651062D03*
D13*
X82413480Y-18924932D03*
X82986518Y-15675066D03*
D17*
X135674999Y1389999D03*
X136449999Y1389999D03*
D18*
X137149999Y1389999D03*
X137649999Y1389999D03*
X138149999Y1389999D03*
X138649999Y1389999D03*
X139149999Y1389999D03*
X139649999Y1389999D03*
X140149999Y1389999D03*
X140649999Y1389999D03*
D17*
X141349999Y1389999D03*
X142124999Y1389999D03*
D16*
X178886518Y-69024932D03*
X178313480Y-65775066D03*
D12*
X165789398Y-84518592D03*
X178593995Y-79681612D03*
D15*
X71810692Y-8403033D03*
X85497423Y-8237189D03*
X14287465Y-6383549D03*
X27974196Y-6217705D03*
D13*
X79113480Y-37974932D03*
X79686518Y-34725066D03*
X93513480Y-66049865D03*
X94086518Y-62799999D03*
D12*
X214282920Y-31289105D03*
X227087517Y-26452125D03*
D15*
X10988149Y-25094896D03*
X24674880Y-24929052D03*
D16*
X243186518Y-18824932D03*
X242613480Y-15575066D03*
D19*
X142200000Y-6287500D03*
X142200000Y-8112500D03*
D14*
X135600000Y-6287500D03*
X135600000Y-8112500D03*
D16*
X172286518Y-31624932D03*
X171713480Y-28375066D03*
D20*
X133400000Y-8137500D03*
X133400000Y-6262500D03*
D13*
X59793480Y-56824932D03*
X60366518Y-53575066D03*
D16*
X190186518Y-23724932D03*
X189613480Y-20475066D03*
D15*
X116657197Y-82296544D03*
X130343928Y-82130700D03*
X79582204Y-73745237D03*
X93268935Y-73579393D03*
D19*
X144400000Y-6287500D03*
X144400000Y-8112500D03*
D16*
X230586518Y-56524932D03*
X230013480Y-53275066D03*
D12*
X180333189Y-57583891D03*
X193137786Y-52746911D03*
X191404016Y-10953034D03*
X204208613Y-6116054D03*
D15*
X82881519Y-55033890D03*
X96568250Y-54868046D03*
D12*
X146562859Y-84852645D03*
X159367456Y-80015665D03*
D16*
X159586518Y-91324932D03*
X159013480Y-88075066D03*
D15*
X42333158Y-66161798D03*
X56019889Y-65995954D03*
X26400181Y-47105559D03*
X40086912Y-46939715D03*
X65212061Y-45825728D03*
X78898792Y-45659884D03*
X97425310Y-81968591D03*
X111112041Y-81802747D03*
X119954509Y-63596544D03*
X133641240Y-63430700D03*
D12*
X183632504Y-76295238D03*
X196437101Y-71458258D03*
D15*
X45632473Y-47450451D03*
X59319204Y-47284607D03*
D12*
X194703331Y-29664382D03*
X207507928Y-24827402D03*
D16*
X246486518Y-37424932D03*
X245913480Y-34175066D03*
X271786518Y-71524932D03*
X271213480Y-68275066D03*
D15*
X104023941Y-44545896D03*
X117710672Y-44380052D03*
D13*
X37238480Y-75374932D03*
X37811518Y-72125066D03*
D16*
X253086518Y-74824932D03*
X252513480Y-71575066D03*
D15*
X4389518Y-62517591D03*
X18076249Y-62351747D03*
X48931788Y-28739104D03*
X62618519Y-28573260D03*
D12*
X217582235Y-50000452D03*
X230386832Y-45163472D03*
D13*
X90213480Y-85099865D03*
X90786518Y-81849999D03*
D12*
X258825190Y-65067592D03*
X271629787Y-60230612D03*
X240113842Y-68366907D03*
X252918439Y-63529927D03*
D16*
X210986518Y-54924932D03*
X210413480Y-51675066D03*
D13*
X18513480Y-72199865D03*
X19086518Y-68949999D03*
D15*
X32998812Y-9682864D03*
X46685543Y-9517020D03*
D16*
X249786518Y-56124932D03*
X249213480Y-52875066D03*
D12*
X233515211Y-30944213D03*
X246319808Y-26107233D03*
X143265561Y-66152645D03*
X156070158Y-61315665D03*
D13*
X117926961Y-36424932D03*
X118499999Y-33175066D03*
D15*
X100724626Y-63257244D03*
X114411357Y-63091400D03*
D16*
X227286518Y-37824932D03*
X226713480Y-34575066D03*
X196786518Y-61124932D03*
X196213480Y-57875066D03*
X261986518Y-15524932D03*
X261413480Y-12275066D03*
X256186518Y-55024932D03*
X255613480Y-51775066D03*
D13*
X134213480Y-72524932D03*
X134786518Y-69275066D03*
X28576961Y-15049865D03*
X29149999Y-11799999D03*
D16*
X265186518Y-34124932D03*
X264613480Y-30875066D03*
D13*
X72513480Y-76074932D03*
X73086518Y-72825066D03*
D16*
X156286518Y-72624932D03*
X155713480Y-69375066D03*
D13*
X21863480Y-53149865D03*
X22436518Y-49899999D03*
D12*
X159190767Y-47095898D03*
X171995364Y-42258918D03*
D13*
X43963480Y-37274932D03*
X44536518Y-34025066D03*
X100113480Y-28124932D03*
X100686518Y-24875066D03*
D15*
X61912746Y-64537075D03*
X75599477Y-64371231D03*
D16*
X207686518Y-36224932D03*
X207113480Y-32975066D03*
D15*
X29699497Y-28394212D03*
X43386228Y-28228368D03*
D16*
X233886518Y-75224932D03*
X233313480Y-71975066D03*
D13*
X130913480Y-91324932D03*
X131486518Y-88075066D03*
X25213480Y-34099865D03*
X25786518Y-30849999D03*
D12*
X236814527Y-49655560D03*
X249619124Y-44818580D03*
D15*
X86180835Y-36322542D03*
X99867566Y-36156698D03*
D12*
X155891451Y-28384550D03*
X168696048Y-23547570D03*
D13*
X56438480Y-75874932D03*
X57011518Y-72625066D03*
X40588480Y-56324932D03*
X41161518Y-53075066D03*
D15*
X107323257Y-25834549D03*
X121009988Y-25668705D03*
D12*
X162490082Y-65807245D03*
X175294679Y-60970265D03*
D13*
X69613480Y-15924932D03*
X70186518Y-12675066D03*
D12*
X201301962Y-67087076D03*
X214106559Y-62250096D03*
D21*
X150594049Y-31999999D03*
X150594049Y-33999999D03*
X150594049Y-35999999D03*
X150594049Y-37999999D03*
X150594049Y-39999999D03*
X150594049Y-41999999D03*
X150594049Y-43999999D03*
X150594049Y-45999999D03*
X150594049Y-47999999D03*
X150594049Y-49999999D03*
D22*
X147894049Y-52699999D03*
X145894049Y-52699999D03*
X143894049Y-52699999D03*
X141894049Y-52699999D03*
X139894049Y-52699999D03*
X137894049Y-52699999D03*
X135894049Y-52699999D03*
X133894049Y-52699999D03*
X131894049Y-52699999D03*
X129894049Y-52699999D03*
D21*
X127194049Y-49999999D03*
X127194049Y-47999999D03*
X127194049Y-45999999D03*
X127194049Y-43999999D03*
X127194049Y-41999999D03*
X127194049Y-39999999D03*
X127194049Y-37999999D03*
X127194049Y-35999999D03*
X127194049Y-33999999D03*
X127194049Y-31999999D03*
D22*
X129894049Y-29299999D03*
X131894049Y-29299999D03*
X133894049Y-29299999D03*
X135894049Y-29299999D03*
X137894049Y-29299999D03*
X139894049Y-29299999D03*
X141894049Y-29299999D03*
X143894049Y-29299999D03*
X145894049Y-29299999D03*
X147894049Y-29299999D03*
D12*
X198002647Y-48375729D03*
X210807244Y-43538749D03*
D15*
X52231104Y-10027757D03*
X65917835Y-9861913D03*
D12*
X248927243Y-8933550D03*
X261731840Y-4096570D03*
X210983604Y-12577758D03*
X223788201Y-7740778D03*
X252226559Y-27644897D03*
X265031156Y-22807917D03*
D13*
X63163480Y-37774932D03*
X63736518Y-34525066D03*
X111313480Y-74524932D03*
X111886518Y-71275066D03*
D12*
X255525874Y-46356245D03*
X268330471Y-41519265D03*
D13*
X47313480Y-18224932D03*
X47886518Y-14975066D03*
D23*
X0Y-72501716D02*
X12430657Y-2001308D01*
X133800000Y1000000D02*
X133800000Y8100000D01*
X132800000Y0D02*
G75*
G03*
X133800000Y1000000I0J1000000D01*
G01*
X132800000Y0D02*
X14783533Y0D01*
X134800000Y9100000D02*
X143000000Y9100000D01*
X144000000Y8100000D02*
G75*
G03*
X143000000Y9100000I-1000000J0D01*
G01*
X265366904Y-2046589D02*
X277788105Y-72501716D01*
X113653555Y-95890982D02*
X92634552Y-94000000D01*
X164134552Y-95890982D02*
X113653555Y-95890982D01*
X265366831Y-2046599D02*
G75*
G03*
X263052313Y-1I-2359831J-336701D01*
G01*
X92634552Y-94000000D02*
X1648394Y-74923177D01*
X145000000Y0D02*
X263052313Y0D01*
X1Y-72501716D02*
G75*
G03*
X1648394Y-74923176I1999134J-410899D01*
G01*
X276139704Y-74923135D02*
G75*
G03*
X277788104Y-72501716I-350704J2010535D01*
G01*
X14783533Y-4D02*
G75*
G03*
X12430658Y-2001308I587J-2384446D01*
G01*
X144000000Y1000000D02*
G75*
G03*
X145000000Y0I1000000J0D01*
G01*
X276139711Y-74923177D02*
X185153553Y-94000000D01*
X144000000Y8100000D02*
X144000000Y1000000D01*
X185153553Y-94000000D02*
X164134552Y-95890982D01*
X134800000Y9100000D02*
G75*
G03*
X133800000Y8100000I0J-1000000D01*
G01*
M02*
